<svg xmlns="http://www.w3.org/2000/svg" xml:space="preserve" style="enable-background:new 0 0 117 101" viewBox="0 0 117 101"><linearGradient id="a" x1=".167" x2="116.833" y1="50.5" y2="50.5" gradientUnits="userSpaceOnUse"><stop offset="0" style="stop-color:#a47a1e"/><stop offset=".23" style="stop-color:#d3a84c"/><stop offset=".43" style="stop-color:#ffec94"/><stop offset=".57" style="stop-color:#e6be69"/><stop offset=".77" style="stop-color:#ffd87c"/><stop offset=".95" style="stop-color:#b58f3e"/><stop offset="1" style="stop-color:#956d13"/><stop offset="1" style="stop-color:#1d1d1b"/></linearGradient><path d="M8.5.5C3.9.5.2 4.3.2 8.8v83.3c0 4.6 3.8 8.3 8.3 8.3h100c4.6 0 8.3-3.8 8.3-8.3V8.8c0-4.6-3.8-8.3-8.3-8.3H8.5zm0 5.6h100c1.6 0 2.8 1.2 2.8 2.8v8.3H5.7V8.8c0-1.5 1.2-2.7 2.8-2.7zm2.8 2.7c-1.5 0-2.8 1.2-2.8 2.8s1.2 2.8 2.8 2.8 2.8-1.2 2.8-2.8-1.3-2.8-2.8-2.8zm8.3 0c-1.5 0-2.8 1.2-2.8 2.8s1.2 2.8 2.8 2.8c1.5 0 2.8-1.2 2.8-2.8s-1.3-2.8-2.8-2.8zm8.3 0c-1.5 0-2.8 1.2-2.8 2.8s1.2 2.8 2.8 2.8c1.5 0 2.8-1.2 2.8-2.8s-1.2-2.8-2.8-2.8zM5.7 22.7h105.6v69.4c0 1.6-1.2 2.8-2.8 2.8H8.5c-1.6 0-2.8-1.2-2.8-2.8V22.7z" style="fill:url(#a)"/></svg>