<svg xmlns="http://www.w3.org/2000/svg" xml:space="preserve" style="enable-background:new 0 0 76 76" viewBox="0 0 76 76"><linearGradient id="a" x1=".5" x2="75.5" y1="38" y2="38" gradientUnits="userSpaceOnUse"><stop offset="0" style="stop-color:#a47a1e"/><stop offset=".23" style="stop-color:#d3a84c"/><stop offset=".43" style="stop-color:#ffec94"/><stop offset=".57" style="stop-color:#e6be69"/><stop offset=".77" style="stop-color:#ffd87c"/><stop offset=".95" style="stop-color:#b58f3e"/><stop offset="1" style="stop-color:#956d13"/><stop offset="1" style="stop-color:#1d1d1b"/></linearGradient><path d="M59.4.5C55.1.5 51.1 2.2 48 5.2l-8.9 8.9c-2.6 2.6-4.2 5.9-4.6 9.5-.1.6-.1 1.3-.1 1.9 0 2.4.6 4.8 1.6 6.9l2.7-2.7c-.4-1.3-.7-2.7-.7-4.2 0-3.3 1.3-6.5 3.7-8.8l8.9-8.9c2.4-2.4 5.5-3.7 8.8-3.7 3.3 0 6.5 1.3 8.8 3.7 2.4 2.4 3.7 5.5 3.7 8.8s-1.3 6.5-3.7 8.8l-8.9 8.9C57 36.7 53.8 38 50.5 38c-1.5 0-2.9-.3-4.2-.7L43.6 40c2.1 1 4.5 1.6 6.9 1.6 4.3 0 8.3-1.7 11.4-4.7l8.9-8.9c3-3 4.7-7.1 4.7-11.4s-1.7-8.3-4.7-11.4S63.7.5 59.4.5zm-10.7 25c-.5 0-.9.2-1.2.5L26 47.5c-.7.7-.7 1.8-.1 2.5s1.8.7 2.5.1l.1-.1L50 28.5c.7-.7.7-1.8 0-2.5-.3-.3-.8-.5-1.3-.5zm-23.2 8.9c-4.3 0-8.3 1.7-11.4 4.7L5.2 48C2.4 50.8.8 54.4.5 58.3v1c0 4.3 1.7 8.3 4.7 11.4s7.1 4.7 11.4 4.7 8.3-1.7 11.4-4.7l8.9-8.9c3-3 4.7-7.1 4.7-11.4 0-2.4-.6-4.8-1.6-6.9l-2.7 2.7c.5 1.3.7 2.8.7 4.2 0 3.3-1.3 6.5-3.7 8.8l-8.9 8.9c-2.4 2.4-5.5 3.7-8.8 3.7s-6.5-1.3-8.8-3.7c-2.4-2.4-3.7-5.5-3.7-8.8 0-3.3 1.3-6.5 3.7-8.8l8.9-8.9c2.4-2.4 5.5-3.7 8.8-3.7 1.5 0 2.9.3 4.2.7l2.7-2.7c-2.1-.9-4.5-1.5-6.9-1.5z" style="fill:url(#a)"/></svg>