<svg xmlns="http://www.w3.org/2000/svg" xml:space="preserve" style="enable-background:new 0 0 93.7 33.1" viewBox="0 0 93.7 33.1"><linearGradient id="a" x1="9.216" x2="84.216" y1="16.605" y2="16.605" gradientTransform="rotate(-134.91 46.716 16.606)" gradientUnits="userSpaceOnUse"><stop offset="0" style="stop-color:#a47a1e"/><stop offset=".23" style="stop-color:#d3a84c"/><stop offset=".43" style="stop-color:#ffec94"/><stop offset=".57" style="stop-color:#e6be69"/><stop offset=".77" style="stop-color:#ffd87c"/><stop offset=".95" style="stop-color:#b58f3e"/><stop offset="1" style="stop-color:#956d13"/><stop offset="1" style="stop-color:#1d1d1b"/></linearGradient><path d="M5 27.9c3 3 7.1 4.7 11.4 4.7H29c3.6 0 7.1-1.2 9.9-3.4.5-.4 1-.8 1.4-1.3 1.7-1.7 3-3.8 3.8-6h-3.9c-.6 1.3-1.4 2.5-2.5 3.5-2.4 2.4-5.5 3.6-8.8 3.6H16.3c-3.3 0-6.5-1.3-8.8-3.7s-3.6-5.5-3.6-8.8c0-3.3 1.3-6.5 3.7-8.8s5.5-3.6 8.8-3.6H29c3.3 0 6.5 1.3 8.8 3.7 1 1 1.8 2.2 2.4 3.5h3.9c-.8-2.2-2-4.3-3.8-6-3-3-7.1-4.7-11.4-4.7H16.3C12 .6 8 2.3 4.9 5.3S.2 12.4.2 16.7C.3 20.8 2 24.9 5 27.9zm25.3-10c.3.3.8.5 1.2.5h30.3c1 0 1.8-.8 1.8-1.7 0-1-.8-1.8-1.7-1.8H31.5c-1 0-1.8.8-1.8 1.8 0 .4.2.8.6 1.2zM53 28c3 3 7.1 4.7 11.4 4.7H77c3.9 0 7.7-1.4 10.6-4 .3-.2.5-.5.8-.7 3-3 4.7-7.1 4.7-11.4s-1.7-8.3-4.7-11.4c-3-3-7.1-4.7-11.4-4.7H64.4C60.1.5 56.1 2.2 53 5.2c-1.7 1.7-3 3.8-3.8 6h3.9c.6-1.3 1.4-2.5 2.5-3.5 2.4-2.4 5.5-3.6 8.8-3.6H77c3.3 0 6.5 1.3 8.8 3.7 2.4 2.4 3.6 5.5 3.6 8.8 0 3.3-1.3 6.5-3.7 8.8-2.4 2.4-5.5 3.6-8.8 3.6H64.3c-3.3 0-6.5-1.3-8.8-3.7-1-1-1.8-2.2-2.4-3.5h-3.9c.8 2.4 2.1 4.4 3.8 6.2z" style="fill:url(#a)"/></svg>