<svg xmlns="http://www.w3.org/2000/svg" xml:space="preserve" id="Layer_1" x="0" y="0" style="enable-background:new 0 0 328 383" version="1.1" viewBox="0 0 328 383"><style>.st4{fill:#f1e8ca}</style><radialGradient id="SVGID_1_" cx="170.754" cy="191.5" r="172.392" gradientUnits="userSpaceOnUse"><stop offset="0" style="stop-color:#3e4156"/><stop offset=".187" style="stop-color:#3a3d50"/><stop offset=".431" style="stop-color:#2e3040"/><stop offset=".707" style="stop-color:#1b1c25"/><stop offset="1" style="stop-color:#000"/></radialGradient><path d="M17 22v339c0 10.9 8.8 19.7 19.7 19.7h268.1c10.9 0 19.7-8.8 19.7-19.7V85.9L241 2.3H36.7C25.8 2.3 17 11.1 17 22z" style="fill:url(#SVGID_1_)"/><linearGradient id="SVGID_00000137835053176976388210000013389211139786710400_" x1="2.39" x2="16.97" y1="143.463" y2="143.463" gradientUnits="userSpaceOnUse"><stop offset="0" style="stop-color:#f9ec23"/><stop offset=".179" style="stop-color:#f9e423"/><stop offset=".458" style="stop-color:#f8ce22"/><stop offset=".8" style="stop-color:#f7aa21"/><stop offset="1" style="stop-color:#f69220"/></linearGradient><path d="M17 158c-8.1 0-14.6-6.5-14.6-14.6s6.5-14.6 14.6-14.6V158z" style="fill:url(#SVGID_00000137835053176976388210000013389211139786710400_)"/><linearGradient id="SVGID_00000180326958665956641800000012945588219828285826_" x1="2.39" x2="202.668" y1="93.196" y2="93.196" gradientUnits="userSpaceOnUse"><stop offset="0" style="stop-color:#f9ec23"/><stop offset=".013" style="stop-color:#f9e423"/><stop offset=".119" style="stop-color:#f7a921"/><stop offset=".17" style="stop-color:#f69220"/><stop offset=".181" style="stop-color:#ec8c1f"/><stop offset=".24" style="stop-color:#bb6f18"/><stop offset=".304" style="stop-color:#8f5513"/><stop offset=".371" style="stop-color:#683e0e"/><stop offset=".442" style="stop-color:#482b09"/><stop offset=".518" style="stop-color:#2e1b06"/><stop offset=".601" style="stop-color:#190f03"/><stop offset=".696" style="stop-color:#0b0601"/><stop offset=".81" style="stop-color:#030100"/><stop offset="1" style="stop-color:#000"/></linearGradient><path d="M17 42.9c-8 0-14.6 6.5-14.6 14.6V143.5c0-8.1 6.5-14.6 14.6-14.6h180.3c3 0 5.4-2.4 5.4-5.4V48.3c0-3-2.4-5.4-5.4-5.4H17z" style="fill:url(#SVGID_00000180326958665956641800000012945588219828285826_)"/><linearGradient id="SVGID_00000014602035520636606230000000207881641894087562_" x1="215.52" x2="287.902" y1="83.555" y2="41.756" gradientUnits="userSpaceOnUse"><stop offset="0" style="stop-color:#3e4156"/><stop offset=".425" style="stop-color:#1f202b"/><stop offset=".794" style="stop-color:#08090c"/><stop offset="1" style="stop-color:#000"/></linearGradient><path d="m242 2.3 83.6 83.6h-64.5c-10.5 0-19.1-8.5-19.1-19.1V2.3z" style="fill:url(#SVGID_00000014602035520636606230000000207881641894087562_)"/><path d="M23 82.7c0-15 11.2-26.6 26.6-26.6 9.3 0 17.4 4.6 21.9 11.8l-10.1 5.8c-2.3-3.9-6.6-6.3-11.8-6.3-9 0-14.9 6.1-14.9 15.2s5.8 15.2 14.9 15.2c5.2 0 9.6-2.3 11.8-6.3l10.1 5.8c-4.4 7.2-12.5 11.8-21.9 11.8-15.5.1-26.6-11.4-26.6-26.4zM74.3 96.6l10.1-5.8c1.8 4.2 5 7.1 10.7 7.1 5.5 0 6.9-2.2 6.9-4.2 0-3.1-2.9-4.4-10.6-6.5-7.6-2.1-15-5.8-15-15.5 0-9.8 8.3-15.5 17.1-15.5 8.4 0 15 4 18.7 11.5l-9.8 5.8c-1.8-3.6-4.2-5.9-8.8-5.9-3.6 0-5.5 1.8-5.5 3.9 0 2.3 1.2 3.9 9.2 6.3 7.7 2.3 16.4 5 16.4 15.8 0 9.8-7.9 15.7-19 15.7-10.7-.1-17.5-5.2-20.4-12.7zM115.5 96.6l10.1-5.8c1.8 4.2 5 7.1 10.7 7.1 5.5 0 6.9-2.2 6.9-4.2 0-3.1-2.9-4.4-10.6-6.5-7.6-2.1-15-5.8-15-15.5 0-9.8 8.3-15.5 17.1-15.5 8.4 0 15 4 18.7 11.5l-9.8 5.8c-1.8-3.6-4.2-5.9-8.8-5.9-3.6 0-5.5 1.8-5.5 3.9 0 2.3 1.2 3.9 9.2 6.3 7.7 2.3 16.4 5 16.4 15.8 0 9.8-7.9 15.7-19 15.7-10.7-.1-17.5-5.2-20.4-12.7z" class="st4"/><radialGradient id="SVGID_00000129907648557823511960000001241742503825244063_" cx="130.643" cy="264.528" r="13.014" gradientUnits="userSpaceOnUse"><stop offset="0" style="stop-color:#f9ec23"/><stop offset=".013" style="stop-color:#f9e423"/><stop offset=".119" style="stop-color:#f7a921"/><stop offset=".17" style="stop-color:#f69220"/><stop offset=".181" style="stop-color:#ec8c1f"/><stop offset=".24" style="stop-color:#bb6f18"/><stop offset=".304" style="stop-color:#8f5513"/><stop offset=".371" style="stop-color:#683e0e"/><stop offset=".442" style="stop-color:#482b09"/><stop offset=".518" style="stop-color:#2e1b06"/><stop offset=".601" style="stop-color:#190f03"/><stop offset=".696" style="stop-color:#0b0601"/><stop offset=".81" style="stop-color:#030100"/><stop offset="1" style="stop-color:#000"/></radialGradient><path d="M117.6 264.5c0-7.1 5.9-13 13-13s13 5.9 13 13-5.9 13-13 13-13-5.8-13-13z" style="fill:url(#SVGID_00000129907648557823511960000001241742503825244063_)"/><radialGradient id="SVGID_00000065074548015358467610000002375183296031343038_" cx="168.999" cy="264.528" r="13.014" gradientUnits="userSpaceOnUse"><stop offset="0" style="stop-color:#f9ec23"/><stop offset=".013" style="stop-color:#f9e423"/><stop offset=".119" style="stop-color:#f7a921"/><stop offset=".17" style="stop-color:#f69220"/><stop offset=".181" style="stop-color:#ec8c1f"/><stop offset=".24" style="stop-color:#bb6f18"/><stop offset=".304" style="stop-color:#8f5513"/><stop offset=".371" style="stop-color:#683e0e"/><stop offset=".442" style="stop-color:#482b09"/><stop offset=".518" style="stop-color:#2e1b06"/><stop offset=".601" style="stop-color:#190f03"/><stop offset=".696" style="stop-color:#0b0601"/><stop offset=".81" style="stop-color:#030100"/><stop offset="1" style="stop-color:#000"/></radialGradient><path d="M156 264.5c0-7.1 5.9-13 13-13s13 5.9 13 13-5.9 13-13 13-13-5.8-13-13z" style="fill:url(#SVGID_00000065074548015358467610000002375183296031343038_)"/><radialGradient id="SVGID_00000141437601100603953930000000671783457743962252_" cx="207.356" cy="264.528" r="13.014" gradientUnits="userSpaceOnUse"><stop offset="0" style="stop-color:#f9ec23"/><stop offset=".013" style="stop-color:#f9e423"/><stop offset=".119" style="stop-color:#f7a921"/><stop offset=".17" style="stop-color:#f69220"/><stop offset=".181" style="stop-color:#ec8c1f"/><stop offset=".24" style="stop-color:#bb6f18"/><stop offset=".304" style="stop-color:#8f5513"/><stop offset=".371" style="stop-color:#683e0e"/><stop offset=".442" style="stop-color:#482b09"/><stop offset=".518" style="stop-color:#2e1b06"/><stop offset=".601" style="stop-color:#190f03"/><stop offset=".696" style="stop-color:#0b0601"/><stop offset=".81" style="stop-color:#030100"/><stop offset="1" style="stop-color:#000"/></radialGradient><path d="M194.3 264.5c0-7.1 5.9-13 13-13s13 5.9 13 13-5.9 13-13 13-13-5.8-13-13z" style="fill:url(#SVGID_00000141437601100603953930000000671783457743962252_)"/><linearGradient id="SVGID_00000070084786381337481280000017798313223077707949_" x1="88.863" x2="88.863" y1="161.5" y2="336.5" gradientUnits="userSpaceOnUse"><stop offset="0" style="stop-color:#f9ec23"/><stop offset=".028" style="stop-color:#f9e423"/><stop offset=".26" style="stop-color:#f7a921"/><stop offset=".371" style="stop-color:#f69220"/><stop offset=".38" style="stop-color:#ec8c1f"/><stop offset=".424" style="stop-color:#bb6f18"/><stop offset=".472" style="stop-color:#8f5513"/><stop offset=".523" style="stop-color:#683e0e"/><stop offset=".577" style="stop-color:#482b09"/><stop offset=".635" style="stop-color:#2e1b06"/><stop offset=".698" style="stop-color:#190f03"/><stop offset=".769" style="stop-color:#0b0601"/><stop offset=".856" style="stop-color:#030100"/><stop offset="1" style="stop-color:#000"/></linearGradient><path d="M78.6 263.7v-19.5c0-6.6-3.7-7.5-9.6-6.8v-19.9c5.9.7 9.6-.3 9.6-6.8v-19.5c0-17.8 9.2-27.9 30.1-26.6v19.7c-5.9-.7-9.6.3-9.6 6.8v19.5c0 7.5-2.3 13.3-7.3 16.7 4.9 3.6 7.3 9.3 7.3 16.8v19.5c0 6.6 3.7 7.5 9.6 6.8v19.7c-20.9 1.6-30.1-8.6-30.1-26.4z" style="fill:url(#SVGID_00000070084786381337481280000017798313223077707949_)"/><linearGradient id="SVGID_00000117656765698537474350000000587382724270137772_" x1="249.137" x2="249.137" y1="161.5" y2="336.5" gradientUnits="userSpaceOnUse"><stop offset="0" style="stop-color:#f8ec21"/><stop offset=".028" style="stop-color:#f8e421"/><stop offset=".264" style="stop-color:#f7a920"/><stop offset=".377" style="stop-color:#f69220"/><stop offset=".416" style="stop-color:#cd7a1c"/><stop offset=".464" style="stop-color:#a26219"/><stop offset=".515" style="stop-color:#7b4c15"/><stop offset=".57" style="stop-color:#5b3912"/><stop offset=".629" style="stop-color:#412a10"/><stop offset=".693" style="stop-color:#2c1e0e"/><stop offset=".765" style="stop-color:#1e160d"/><stop offset=".854" style="stop-color:#16110c"/><stop offset="1" style="stop-color:#13100c"/></linearGradient><path d="M229.3 270.6c5.9.7 9.6-.3 9.6-6.8v-19.5c0-7.5 2.3-13.3 7.3-16.8-4.9-3.4-7.3-9.2-7.3-16.7v-19.5c0-6.6-3.7-7.5-9.6-6.8v-19.7c21-1.4 30.1 8.8 30.1 26.6v19.5c0 6.6 3.7 7.5 9.6 6.8v19.9c-5.9-.7-9.6.3-9.6 6.8v19.5c0 17.8-9.2 27.9-30.1 26.6v-19.9z" style="fill:url(#SVGID_00000117656765698537474350000000587382724270137772_)"/></svg>