<svg xmlns="http://www.w3.org/2000/svg" xml:space="preserve" style="enable-background:new 0 0 101 101" viewBox="0 0 101 101"><linearGradient id="a" x1="-5.577" x2="113.957" y1="54.173" y2="54.173" gradientTransform="rotate(-12.698 35.832 68.915)" gradientUnits="userSpaceOnUse"><stop offset="0" style="stop-color:#a47a1e"/><stop offset=".23" style="stop-color:#d3a84c"/><stop offset=".43" style="stop-color:#ffec94"/><stop offset=".57" style="stop-color:#e6be69"/><stop offset=".77" style="stop-color:#ffd87c"/><stop offset=".95" style="stop-color:#b58f3e"/><stop offset="1" style="stop-color:#956d13"/><stop offset="1" style="stop-color:#1d1d1b"/></linearGradient><path d="M.5.5v100h100V.5H.5zm9.1 9.1h81.8v81.8H9.6V9.6zm40.5 9.1c-17.8 0-31.4 13.5-31.4 31.3 0 14.2 8.9 26.4 21.7 30.7 1.7.3 2.2-.7 2.2-1.6v-7.9s-9 1.9-10.9-3.8c0 0-1.5-3.7-3.6-4.7 0 0-2.9-2 .2-2 0 0 3.2.3 4.9 3.3 2.8 5 7.5 3.5 9.4 2.7.3-2.1 1.1-3.5 2.1-4.3-7.2-.8-14.4-1.8-14.4-14.2 0-3.5 1-5.3 3-7.6-.3-.8-1.4-4.3.3-8.7 2.7-.8 8.9 3.5 8.9 3.5 2.6-.7 5.3-1.1 8.1-1.1s5.5.4 8.1 1.1c0 0 6.2-4.3 8.9-3.5 1.8 4.5.6 7.9.3 8.7 2.1 2.3 3.3 4 3.3 7.6 0 12.4-7.6 13.4-14.7 14.2 1.2 1 2.2 2.9 2.2 5.9v10.8c0 .8.6 1.8 2.2 1.5C73.6 76.4 82.3 64.2 82.3 50c0-17.8-14.4-31.3-32.2-31.3zM29 61.1c-.7-.2-1.3-.1-1.5.3-.2.3.1.8.8 1.1.6.2 1.3.2 1.5-.2.2-.4-.1-.8-.8-1.2zm1.8 1.1c-.3-.1-.6 0-.8.2-.5.4-.4 1.1.2 1.7.6.5 1.3.7 1.7.3.5-.4.4-1.1-.2-1.7-.3-.3-.6-.4-.9-.5zm2.2 2.4c-.3-.1-.7-.1-1 .1-.6.4-.6 1.4 0 2.3.6.9 1.4 1.3 1.9.9s.5-1.5 0-2.4c-.2-.4-.5-.7-.9-.9zm2.1 2.7c-.5.1-.9.3-1.1.7-.4.7 0 1.7 1.1 2.2 1.1.7 2.2.5 2.6-.2.5-.6-.1-1.7-1.1-2.2-.4-.4-1-.6-1.5-.5zm5.6.7c-1 0-2.1.5-2.2 1.3-.1.8.8 1.5 1.9 1.5 1 .3 2.1-.4 2.2-1.2.2-.7-.7-1.4-1.9-1.6z" style="fill:url(#a)"/></svg>