<svg xmlns="http://www.w3.org/2000/svg" xml:space="preserve" id="Layer_1" x="0" y="0" style="enable-background:new 0 0 328 383" version="1.1" viewBox="0 0 328 383"><style>.st4{fill:#f1e8ca}</style><radialGradient id="SVGID_1_" cx="171.29" cy="191.5" r="172.392" gradientUnits="userSpaceOnUse"><stop offset="0" style="stop-color:#3e4156"/><stop offset=".187" style="stop-color:#3a3d50"/><stop offset=".431" style="stop-color:#2e3040"/><stop offset=".707" style="stop-color:#1b1c25"/><stop offset="1" style="stop-color:#000"/></radialGradient><path d="M17.5 22v339c0 10.9 8.8 19.7 19.7 19.7h268.1c10.9 0 19.7-8.8 19.7-19.7V85.9L241.5 2.3H37.2c-10.9 0-19.7 8.8-19.7 19.7z" style="fill:url(#SVGID_1_)"/><linearGradient id="SVGID_00000163772830718940573250000018407672747565503897_" x1="2.926" x2="17.506" y1="143.463" y2="143.463" gradientUnits="userSpaceOnUse"><stop offset="0" style="stop-color:#f9ec23"/><stop offset=".179" style="stop-color:#f9e423"/><stop offset=".458" style="stop-color:#f8ce22"/><stop offset=".8" style="stop-color:#f7aa21"/><stop offset="1" style="stop-color:#f69220"/></linearGradient><path d="M17.5 158c-8.1 0-14.6-6.5-14.6-14.6s6.5-14.6 14.6-14.6V158z" style="fill:url(#SVGID_00000163772830718940573250000018407672747565503897_)"/><linearGradient id="SVGID_00000089561116691138478390000011922229990139389590_" x1="2.926" x2="203.204" y1="93.196" y2="93.196" gradientUnits="userSpaceOnUse"><stop offset="0" style="stop-color:#f9ec23"/><stop offset=".013" style="stop-color:#f9e423"/><stop offset=".119" style="stop-color:#f7a921"/><stop offset=".17" style="stop-color:#f69220"/><stop offset=".181" style="stop-color:#ec8c1f"/><stop offset=".24" style="stop-color:#bb6f18"/><stop offset=".304" style="stop-color:#8f5513"/><stop offset=".371" style="stop-color:#683e0e"/><stop offset=".442" style="stop-color:#482b09"/><stop offset=".518" style="stop-color:#2e1b06"/><stop offset=".601" style="stop-color:#190f03"/><stop offset=".696" style="stop-color:#0b0601"/><stop offset=".81" style="stop-color:#030100"/><stop offset="1" style="stop-color:#000"/></linearGradient><path d="M17.5 42.9c-8 0-14.6 6.5-14.6 14.6V143.5c0-8.1 6.5-14.6 14.6-14.6h180.3c3 0 5.4-2.4 5.4-5.4V48.3c0-3-2.4-5.4-5.4-5.4H17.5z" style="fill:url(#SVGID_00000089561116691138478390000011922229990139389590_)"/><linearGradient id="SVGID_00000041995174247261200090000012125560784231721862_" x1="214.984" x2="287.366" y1="83.555" y2="41.756" gradientUnits="userSpaceOnUse"><stop offset="0" style="stop-color:#3e4156"/><stop offset=".425" style="stop-color:#1f202b"/><stop offset=".794" style="stop-color:#08090c"/><stop offset="1" style="stop-color:#000"/></linearGradient><path d="m241.5 2.3 83.6 83.6h-64.5c-10.5 0-19.1-8.5-19.1-19.1V2.3z" style="fill:url(#SVGID_00000041995174247261200090000012125560784231721862_)"/><path d="M63 63.5V109H52.6V90.9H38.3V109H27.9V63.5h10.4v17.4h14.3V63.5H63zM101.3 73.5H89.6V109H79.2V73.5H67.5v-10h33.8v10zM151.3 108.9h-10.4V82.5l-11.8 19.3H128l-11.8-19.3v26.4h-10.4V63.5h10.4l12.3 20.2 12.3-20.2h10.4v45.4zM185.7 98.9v10h-26.6V63.5h10.4V99h16.2z" class="st4"/><linearGradient id="SVGID_00000093865610688985168610000016634517001279897493_" x1="99.063" x2="98.769" y1="223.522" y2="163.522" gradientUnits="userSpaceOnUse"><stop offset="0" style="stop-color:#f9ec23"/><stop offset=".013" style="stop-color:#f9e423"/><stop offset=".119" style="stop-color:#f7a921"/><stop offset=".17" style="stop-color:#f69220"/><stop offset=".181" style="stop-color:#ec8c1f"/><stop offset=".24" style="stop-color:#bb6f18"/><stop offset=".304" style="stop-color:#8f5513"/><stop offset=".371" style="stop-color:#683e0e"/><stop offset=".442" style="stop-color:#482b09"/><stop offset=".518" style="stop-color:#2e1b06"/><stop offset=".601" style="stop-color:#190f03"/><stop offset=".696" style="stop-color:#0b0601"/><stop offset=".81" style="stop-color:#030100"/><stop offset="1" style="stop-color:#000"/></linearGradient><path d="m129 209.5-37.3 14.1 37.3 14.1v20.5l-60-26V215l60-26v20.5z" style="fill:url(#SVGID_00000093865610688985168610000016634517001279897493_)"/><linearGradient id="SVGID_00000118381338802647167390000006428708198506735533_" x1="169" x2="169.261" y1="223.539" y2="296.724" gradientUnits="userSpaceOnUse"><stop offset="0" style="stop-color:#f9ec23"/><stop offset=".013" style="stop-color:#f9e423"/><stop offset=".119" style="stop-color:#f7a921"/><stop offset=".17" style="stop-color:#f69220"/><stop offset=".181" style="stop-color:#ec8c1f"/><stop offset=".24" style="stop-color:#bb6f18"/><stop offset=".304" style="stop-color:#8f5513"/><stop offset=".371" style="stop-color:#683e0e"/><stop offset=".442" style="stop-color:#482b09"/><stop offset=".518" style="stop-color:#2e1b06"/><stop offset=".601" style="stop-color:#190f03"/><stop offset=".696" style="stop-color:#0b0601"/><stop offset=".81" style="stop-color:#030100"/><stop offset="1" style="stop-color:#000"/></linearGradient><path d="m132.4 283.7 53.3-120h19.9l-53.3 120h-19.9z" style="fill:url(#SVGID_00000118381338802647167390000006428708198506735533_)"/><linearGradient id="SVGID_00000152959245589825094560000001323838859429628814_" x1="238.946" x2="238.702" y1="223.547" y2="163.548" gradientUnits="userSpaceOnUse"><stop offset="0" style="stop-color:#f9ec23"/><stop offset=".013" style="stop-color:#f9e423"/><stop offset=".119" style="stop-color:#f7a921"/><stop offset=".17" style="stop-color:#f69220"/><stop offset=".181" style="stop-color:#ec8c1f"/><stop offset=".24" style="stop-color:#bb6f18"/><stop offset=".304" style="stop-color:#8f5513"/><stop offset=".371" style="stop-color:#683e0e"/><stop offset=".442" style="stop-color:#482b09"/><stop offset=".518" style="stop-color:#2e1b06"/><stop offset=".601" style="stop-color:#190f03"/><stop offset=".696" style="stop-color:#0b0601"/><stop offset=".81" style="stop-color:#030100"/><stop offset="1" style="stop-color:#000"/></linearGradient><path d="M269 215v17.3l-60 26v-20.5l37.3-14.1-37.3-14.2V189l60 26z" style="fill:url(#SVGID_00000152959245589825094560000001323838859429628814_)"/></svg>