<svg xmlns="http://www.w3.org/2000/svg" xml:space="preserve" style="enable-background:new 0 0 101 101" viewBox="0 0 101 101"><linearGradient id="a" x1=".5" x2="100.5" y1="50.5" y2="50.5" gradientUnits="userSpaceOnUse"><stop offset="0" style="stop-color:#a47a1e"/><stop offset=".23" style="stop-color:#d3a84c"/><stop offset=".43" style="stop-color:#ffec94"/><stop offset=".57" style="stop-color:#e6be69"/><stop offset=".77" style="stop-color:#ffd87c"/><stop offset=".95" style="stop-color:#b58f3e"/><stop offset="1" style="stop-color:#956d13"/><stop offset="1" style="stop-color:#1d1d1b"/></linearGradient><path d="M100.5.5H.5v100h100V.5zM10.6 8.6h79.8v83.8H10.6V8.6zm16.5 10.3c-4.8 0-7.6 2.9-7.6 6.7s2.9 6.7 7.1 6.7c4.8 0 7.6-2.9 7.6-6.7s-2.9-6.7-7.1-6.7zm-7.3 20.5v38.9h14V39.4h-14zm25.6 0v38.9h14V57c0-6.3 4.5-7.2 5.9-7.2 1.4 0 5 1.4 5 7.2v21.3h13.6V57c0-12.2-5.4-17.6-12.2-17.6-6.8 0-10.4 2.3-12.2 5.4v-5.4H45.4z" style="fill:url(#a)"/></svg>