<svg xmlns="http://www.w3.org/2000/svg" xml:space="preserve" id="Layer_1" x="0" y="0" style="enable-background:new 0 0 328 383" version="1.1" viewBox="0 0 328 383"><style>.st4{fill:#f1e8ca}</style><radialGradient id="SVGID_1_" cx="170.156" cy="191.5" r="172.392" gradientUnits="userSpaceOnUse"><stop offset="0" style="stop-color:#3e4156"/><stop offset=".187" style="stop-color:#3a3d50"/><stop offset=".431" style="stop-color:#2e3040"/><stop offset=".707" style="stop-color:#1b1c25"/><stop offset="1" style="stop-color:#000"/></radialGradient><path d="M16.4 22v339c0 10.9 8.8 19.7 19.7 19.7h268.1c10.9 0 19.7-8.8 19.7-19.7V85.9L240.4 2.3H36.1c-10.9 0-19.7 8.8-19.7 19.7z" style="fill:url(#SVGID_1_)"/><linearGradient id="SVGID_00000071551828861891643320000002193876710794354100_" x1="4.06" x2="18.64" y1="143.463" y2="143.463" gradientUnits="userSpaceOnUse"><stop offset="0" style="stop-color:#f9ec23"/><stop offset=".179" style="stop-color:#f9e423"/><stop offset=".458" style="stop-color:#f8ce22"/><stop offset=".8" style="stop-color:#f7aa21"/><stop offset="1" style="stop-color:#f69220"/></linearGradient><path d="M18.6 158C10.5 158 4 151.5 4 143.4s6.5-14.6 14.6-14.6V158z" style="fill:url(#SVGID_00000071551828861891643320000002193876710794354100_)"/><linearGradient id="SVGID_00000080901915392649792600000015083332224306184066_" x1="4.06" x2="204.338" y1="93.196" y2="93.196" gradientUnits="userSpaceOnUse"><stop offset="0" style="stop-color:#f9ec23"/><stop offset=".013" style="stop-color:#f9e423"/><stop offset=".119" style="stop-color:#f7a921"/><stop offset=".17" style="stop-color:#f69220"/><stop offset=".181" style="stop-color:#ec8c1f"/><stop offset=".24" style="stop-color:#bb6f18"/><stop offset=".304" style="stop-color:#8f5513"/><stop offset=".371" style="stop-color:#683e0e"/><stop offset=".442" style="stop-color:#482b09"/><stop offset=".518" style="stop-color:#2e1b06"/><stop offset=".601" style="stop-color:#190f03"/><stop offset=".696" style="stop-color:#0b0601"/><stop offset=".81" style="stop-color:#030100"/><stop offset="1" style="stop-color:#000"/></linearGradient><path d="M18.6 42.9c-8 0-14.6 6.5-14.6 14.6V143.5c0-8.1 6.5-14.6 14.6-14.6H199c3 0 5.4-2.4 5.4-5.4V48.3c0-3-2.4-5.4-5.4-5.4H18.6z" style="fill:url(#SVGID_00000080901915392649792600000015083332224306184066_)"/><linearGradient id="SVGID_00000081625649362744561200000004531710981547823234_" x1="211.881" x2="284.262" y1="83.555" y2="41.756" gradientUnits="userSpaceOnUse"><stop offset="0" style="stop-color:#3e4156"/><stop offset=".425" style="stop-color:#1f202b"/><stop offset=".794" style="stop-color:#08090c"/><stop offset="1" style="stop-color:#000"/></linearGradient><path d="M238.4 2.3 322 85.9h-64.5c-10.5 0-19.1-8.5-19.1-19.1V2.3z" style="fill:url(#SVGID_00000081625649362744561200000004531710981547823234_)"/><path d="M81.5 77.9c0 9.7-7.2 17.5-16.6 17.5h-7.1v16H47v-51h17.9c9.3 0 16.6 7.8 16.6 17.5zm-10.9 0c0-3.7-2.4-6.6-5.8-6.6h-7.1v13.1h7.1c3.4 0 5.8-2.8 5.8-6.5zM83.2 99.8l9.3-5.8c1.7 4.2 4.6 7.1 9.9 7.1 5.1 0 6.4-2.2 6.4-4.2 0-3.1-2.7-4.4-9.8-6.5-7-2.1-13.9-5.8-13.9-15.5 0-9.8 7.7-15.5 15.9-15.5 7.8 0 13.9 4 17.3 11.5l-9.1 5.8c-1.6-3.6-3.9-5.9-8.2-5.9-3.4 0-5.1 1.8-5.1 3.9 0 2.3 1.2 3.9 8.5 6.3 7.2 2.3 15.2 5 15.2 15.8 0 9.8-7.3 15.7-17.6 15.7-9.9 0-16.2-5.1-18.8-12.7z" class="st4"/><radialGradient id="SVGID_00000129206051982984631420000010385031417789198256_" cx="169.984" cy="282.05" r="96.684" gradientUnits="userSpaceOnUse"><stop offset="0" style="stop-color:#f9ec23"/><stop offset=".022" style="stop-color:#f9e423"/><stop offset=".205" style="stop-color:#f7a921"/><stop offset=".293" style="stop-color:#f69220"/><stop offset=".328" style="stop-color:#e1851d"/><stop offset=".433" style="stop-color:#a66316"/><stop offset=".537" style="stop-color:#73440f"/><stop offset=".639" style="stop-color:#4a2c0a"/><stop offset=".738" style="stop-color:#2a1905"/><stop offset=".833" style="stop-color:#130b02"/><stop offset=".922" style="stop-color:#050301"/><stop offset="1" style="stop-color:#000"/></radialGradient><path d="M171.8 282.4c-.6.2-1.2.4-1.8.4-.6 0-1.3-.1-1.8-.4L103.3 256l-30.5 12.4L170 308l97.2-39.6-30.5-12.4-64.9 26.4z" style="fill:url(#SVGID_00000129206051982984631420000010385031417789198256_)"/><radialGradient id="SVGID_00000036248765000443210890000015457825549017947573_" cx="170.328" cy="250.731" r="84.758" gradientUnits="userSpaceOnUse"><stop offset="0" style="stop-color:#f9ec23"/><stop offset=".013" style="stop-color:#f9e423"/><stop offset=".119" style="stop-color:#f7a921"/><stop offset=".17" style="stop-color:#f69220"/><stop offset=".211" style="stop-color:#e1851d"/><stop offset=".334" style="stop-color:#a66316"/><stop offset=".457" style="stop-color:#73440f"/><stop offset=".577" style="stop-color:#4a2c0a"/><stop offset=".693" style="stop-color:#2a1905"/><stop offset=".804" style="stop-color:#130b02"/><stop offset=".909" style="stop-color:#050301"/><stop offset="1" style="stop-color:#000"/></radialGradient><path d="M172.2 251.1c-.6.2-1.2.4-1.8.4-.6 0-1.3-.1-1.8-.4l-64.9-26.4-30.5 12.4 97.2 39.6 97.2-39.6-30.6-12.4-64.8 26.4z" style="fill:url(#SVGID_00000036248765000443210890000015457825549017947573_)"/><radialGradient id="SVGID_00000137825463132449664560000016842502620277828275_" cx="170.156" cy="202.687" r="107.694" gradientUnits="userSpaceOnUse"><stop offset="0" style="stop-color:#f9ec23"/><stop offset=".013" style="stop-color:#f9e423"/><stop offset=".119" style="stop-color:#f7a921"/><stop offset=".17" style="stop-color:#f69220"/><stop offset=".211" style="stop-color:#e1851d"/><stop offset=".334" style="stop-color:#a66316"/><stop offset=".457" style="stop-color:#73440f"/><stop offset=".577" style="stop-color:#4a2c0a"/><stop offset=".693" style="stop-color:#2a1905"/><stop offset=".804" style="stop-color:#130b02"/><stop offset=".909" style="stop-color:#050301"/><stop offset="1" style="stop-color:#000"/></radialGradient><path d="m72.9 202.7 97.3 39.5 97.2-39.5-97.2-39.6z" style="fill:url(#SVGID_00000137825463132449664560000016842502620277828275_)"/><linearGradient id="SVGID_00000180331793128957633230000001059689377986120860_" x1="170.44" x2="170.016" y1="182.651" y2="239.007" gradientUnits="userSpaceOnUse"><stop offset="0" style="stop-color:#000"/><stop offset=".091" style="stop-color:#050301"/><stop offset=".196" style="stop-color:#130b02"/><stop offset=".307" style="stop-color:#2a1905"/><stop offset=".423" style="stop-color:#4a2c0a"/><stop offset=".543" style="stop-color:#73440f"/><stop offset=".666" style="stop-color:#a66316"/><stop offset=".789" style="stop-color:#e1851d"/><stop offset=".83" style="stop-color:#f69220"/><stop offset=".881" style="stop-color:#f7a921"/><stop offset=".987" style="stop-color:#f9e423"/><stop offset="1" style="stop-color:#f9ec23"/></linearGradient><path d="m223.8 220.4-53.6-21.8-53.7 21.8 53.7 21.8z" style="fill:url(#SVGID_00000180331793128957633230000001059689377986120860_)"/></svg>