<svg xmlns="http://www.w3.org/2000/svg" xml:space="preserve" style="enable-background:new 0 0 812.4 514.4" viewBox="0 0 812.4 514.4"><style>.st1{fill:url(#SVGID_00000137816664793143614820000005034884075294148500_)}.st2{fill:url(#SVGID_00000055670792650791976300000018161458371762168200_)}.st3{fill:url(#SVGID_00000000210185968668908050000011765760549450662326_)}.st4{fill:url(#SVGID_00000147917271981279924280000015022394931908142978_)}.st5{fill:url(#SVGID_00000124840934539493563180000012628019100215585181_)}.st6{fill:url(#SVGID_00000057119009075438504780000018049161894106284190_)}.st7{fill:url(#SVGID_00000010994635873678856410000009053147754432886203_)}.st8{fill:url(#SVGID_00000044151553344663854360000002019784729781991343_)}.st9{fill:url(#SVGID_00000022528644712649221850000001117157076652996483_)}.st10{fill:url(#SVGID_00000142897305613463366230000008981048063363291814_)}.st11{fill:url(#SVGID_00000064356360056962438410000003818720131912624785_)}.st12{fill:url(#SVGID_00000018947738776587893250000007485339379418197401_)}.st13{fill:url(#SVGID_00000109722829083697784740000006836803817382474429_)}.st14{fill:url(#SVGID_00000072980124954111201280000002245863981232527769_)}.st15{fill:url(#SVGID_00000150817103333296494010000012452870377895036053_)}.st16{fill:url(#SVGID_00000025427722652200171070000013806421404990901634_)}.st17{fill:url(#SVGID_00000081612252215456575740000012225843790193065898_)}.st18{fill:url(#SVGID_00000145024088740906810680000014722539487647627965_)}.st19{fill:url(#SVGID_00000160191445916672457020000005194570766272546482_)}.st20{fill:url(#SVGID_00000082353330131023227080000001212856910959550095_)}.st21{fill:url(#SVGID_00000113354089740824838810000000555780692652792220_)}.st22{fill:url(#SVGID_00000104706606933080405420000006115039640386327221_)}.st23{fill:url(#SVGID_00000176032625315582661610000005284280987993673095_)}.st24{fill:url(#SVGID_00000078754976986800046190000015974527794234716350_)}.st25{fill:url(#SVGID_00000153667150557247260280000006797786115066682530_)}.st26{fill:url(#SVGID_00000163061573777827835190000011649847076158145439_)}.st27{fill:url(#SVGID_00000085938679991104059170000017290602636756216461_)}.st28{fill:url(#SVGID_00000072977211562689042710000001373539383026318755_)}.st29{fill:url(#SVGID_00000059304976923539002770000014759763299709122978_)}.st30{fill:url(#SVGID_00000110454032600332662380000014360623394545693075_)}.st31{fill:url(#SVGID_00000121958059601095848690000017533843801088819603_)}.st32{fill:url(#SVGID_00000119811601348723631900000011541416974081913491_)}.st33{fill:url(#SVGID_00000174602146970980431370000012400871453724996227_)}.st34{fill:url(#SVGID_00000121281624982845880480000004456983977860590259_)}.st35{fill:url(#SVGID_00000181075703352466645600000006677132891564227991_)}.st36{fill:url(#SVGID_00000088828995066746568040000007168931792916806790_)}.st37{fill:url(#SVGID_00000033347824539810022850000015315578799420675495_)}.st38{fill:url(#SVGID_00000044873804552392073700000010066551719366585503_)}.st39{fill:url(#SVGID_00000150816345650325027600000002869069708817911708_)}.st40{fill:url(#SVGID_00000031192080154352961760000003157432516129344695_)}.st41{fill:url(#SVGID_00000065034263817857903760000008960940611266095544_)}.st42{fill:url(#SVGID_00000013891842802657557430000010068640635982499256_)}.st43{fill:url(#SVGID_00000057131706654127316110000017981056797183262125_)}.st44{fill:url(#SVGID_00000147936878280819369920000001586492145271808659_)}.st45{fill:url(#SVGID_00000013907245039956860160000016114998582736699543_)}.st46{fill:url(#SVGID_00000036239678065293676920000012461601619419755913_)}.st47{fill:url(#SVGID_00000005224309871327032630000010164634627808682890_)}.st48{fill:url(#SVGID_00000098194733543215620830000017735145378257586333_)}.st49{fill:url(#SVGID_00000100377683389171493540000012454405734766979252_)}.st50{fill:url(#SVGID_00000178894747157856110120000002734950798093857958_)}.st51{fill:url(#SVGID_00000021836487829405320140000006159900120154268326_)}.st52{fill:url(#SVGID_00000178184512633551950490000004490438076388782211_)}.st53{fill:url(#SVGID_00000122704115992780032880000007387607889706912946_)}.st54{fill:url(#SVGID_00000099644241288214376800000009028686260166750391_)}.st55{fill:url(#SVGID_00000023247557393154848080000015495258011323801995_)}.st56{fill:url(#SVGID_00000129898512230680764260000005142424403675382677_)}.st57{fill:url(#SVGID_00000056390513495712558730000001491163815704608955_)}</style><g id="A-col-1"><linearGradient id="SVGID_1_" x1="7.479" x2="23.889" y1="498.282" y2="498.282" gradientUnits="userSpaceOnUse"><stop offset="0" style="stop-color:#a47a1e"/><stop offset=".23" style="stop-color:#d3a84c"/><stop offset=".43" style="stop-color:#ffec94"/><stop offset=".57" style="stop-color:#e6be69"/><stop offset=".77" style="stop-color:#ffd87c"/><stop offset=".95" style="stop-color:#b58f3e"/><stop offset="1" style="stop-color:#956d13"/></linearGradient><path d="M23.9 484.8v21.3c0 3.1-2.5 5.7-5.7 5.7h-5.1c-3.1 0-5.7-2.5-5.7-5.7v-.4c2.3-4.2 11-12.3 16.5-20.9z" style="fill:url(#SVGID_1_)"/></g><g id="A-col-2"><linearGradient id="SVGID_00000161624286408216515280000016230629894821405849_" x1="26.077" x2="42.487" y1="464.887" y2="464.887" gradientUnits="userSpaceOnUse"><stop offset="0" style="stop-color:#a47a1e"/><stop offset=".23" style="stop-color:#d3a84c"/><stop offset=".43" style="stop-color:#ffec94"/><stop offset=".57" style="stop-color:#e6be69"/><stop offset=".77" style="stop-color:#ffd87c"/><stop offset=".95" style="stop-color:#b58f3e"/><stop offset="1" style="stop-color:#956d13"/></linearGradient><path d="M42.5 418v88.1c0 3.1-2.5 5.7-5.7 5.7h-5.1c-3.1 0-5.7-2.5-5.7-5.7V481c.8-1.6 1.4-3.2 1.9-4.7 1.1-3.7 6.9-27 14.6-58.3z" style="fill:url(#SVGID_00000161624286408216515280000016230629894821405849_)"/></g><g id="A-col-3"><linearGradient id="SVGID_00000157276659282184731810000011845820843785558712_" x1="44.675" x2="61.085" y1="426.904" y2="426.904" gradientUnits="userSpaceOnUse"><stop offset="0" style="stop-color:#a47a1e"/><stop offset=".23" style="stop-color:#d3a84c"/><stop offset=".43" style="stop-color:#ffec94"/><stop offset=".57" style="stop-color:#e6be69"/><stop offset=".77" style="stop-color:#ffd87c"/><stop offset=".95" style="stop-color:#b58f3e"/><stop offset="1" style="stop-color:#956d13"/></linearGradient><path d="M61.1 342.1v164c0 3.1-2.5 5.7-5.7 5.7h-5.1c-3.1 0-5.7-2.5-5.7-5.7v-97c5.1-20.5 10.9-43.9 16.5-67z" style="fill:url(#SVGID_00000157276659282184731810000011845820843785558712_)"/></g><g id="A-col-4"><linearGradient id="SVGID_00000065051517857253135890000000282937803765990788_" x1="63.273" x2="79.683" y1="388.203" y2="388.203" gradientUnits="userSpaceOnUse"><stop offset="0" style="stop-color:#a47a1e"/><stop offset=".23" style="stop-color:#d3a84c"/><stop offset=".43" style="stop-color:#ffec94"/><stop offset=".57" style="stop-color:#e6be69"/><stop offset=".77" style="stop-color:#ffd87c"/><stop offset=".95" style="stop-color:#b58f3e"/><stop offset="1" style="stop-color:#956d13"/></linearGradient><path d="M73.9 468.9v7c0 5.5 2.6 11.4 5.8 16.6v13.6c0 3.1-2.5 5.7-5.7 5.7h-5.1c-3.1 0-5.7-2.5-5.7-5.7V333c5.9-24.5 11.7-48.4 16.4-68.4V462c-3.6 2.1-5.7 3.5-5.7 6.9z" style="fill:url(#SVGID_00000065051517857253135890000000282937803765990788_)"/></g><g id="A-col-5"><linearGradient id="SVGID_00000110462984218889025630000012198606992481815207_" x1="81.871" x2="90.076" y1="503.752" y2="503.752" gradientUnits="userSpaceOnUse"><stop offset="0" style="stop-color:#a47a1e"/><stop offset=".23" style="stop-color:#d3a84c"/><stop offset=".43" style="stop-color:#ffec94"/><stop offset=".57" style="stop-color:#e6be69"/><stop offset=".77" style="stop-color:#ffd87c"/><stop offset=".95" style="stop-color:#b58f3e"/><stop offset="1" style="stop-color:#956d13"/></linearGradient><path d="M81.9 495.9c4.1 6 8.2 10.6 8.2 11.5 0 2.5-.9 3.8-3.8 4.2-2.5-.6-4.4-2.8-4.4-5.5v-10.2z" style="fill:url(#SVGID_00000110462984218889025630000012198606992481815207_)"/><linearGradient id="SVGID_00000125598221480965680780000005329129546641108108_" x1="81.871" x2="98.281" y1="321.103" y2="321.103" gradientUnits="userSpaceOnUse"><stop offset="0" style="stop-color:#a47a1e"/><stop offset=".23" style="stop-color:#d3a84c"/><stop offset=".43" style="stop-color:#ffec94"/><stop offset=".57" style="stop-color:#e6be69"/><stop offset=".77" style="stop-color:#ffd87c"/><stop offset=".95" style="stop-color:#b58f3e"/><stop offset="1" style="stop-color:#956d13"/></linearGradient><path d="m98.3 367.4-8.6 39.3c0 1.3.4 2.2 1.3 2.2.4 0 1.3-.4 2.2-.9 1.4-.8 3.2-1.8 5.1-2.9v46.5l-16.4 9.2V255.4c5.5-23.4 9.1-39.5 9.1-41.6 0-5.9-5.8-15.8-9.1-22.3v-9.6c.9-.3 2.2-.5 3.8-.5h12.6v186z" style="fill:url(#SVGID_00000125598221480965680780000005329129546641108108_)"/></g><g id="A-col-6"><linearGradient id="SVGID_00000125583221262545118880000017991391864392449950_" x1="100.469" x2="116.879" y1="269.438" y2="269.438" gradientUnits="userSpaceOnUse"><stop offset="0" style="stop-color:#a47a1e"/><stop offset=".23" style="stop-color:#d3a84c"/><stop offset=".43" style="stop-color:#ffec94"/><stop offset=".57" style="stop-color:#e6be69"/><stop offset=".77" style="stop-color:#ffd87c"/><stop offset=".95" style="stop-color:#b58f3e"/><stop offset="1" style="stop-color:#956d13"/></linearGradient><path d="M116.9 181.4v101.5l-16.4 74.6V181.4z" style="fill:url(#SVGID_00000125583221262545118880000017991391864392449950_)"/><linearGradient id="SVGID_00000081610206425147503180000013924501306924351657_" x1="100.469" x2="116.879" y1="422.675" y2="422.675" gradientUnits="userSpaceOnUse"><stop offset="0" style="stop-color:#a47a1e"/><stop offset=".23" style="stop-color:#d3a84c"/><stop offset=".43" style="stop-color:#ffec94"/><stop offset=".57" style="stop-color:#e6be69"/><stop offset=".77" style="stop-color:#ffd87c"/><stop offset=".95" style="stop-color:#b58f3e"/><stop offset="1" style="stop-color:#956d13"/></linearGradient><path d="M116.9 394.9v46.3l-16.4 9.2v-46.5c4.7-2.6 10.4-5.7 16.4-9z" style="fill:url(#SVGID_00000081610206425147503180000013924501306924351657_)"/></g><g id="A-col-7"><linearGradient id="SVGID_00000180347950823936036280000011805816065473361825_" x1="119.067" x2="135.477" y1="230.333" y2="230.333" gradientUnits="userSpaceOnUse"><stop offset="0" style="stop-color:#a47a1e"/><stop offset=".23" style="stop-color:#d3a84c"/><stop offset=".43" style="stop-color:#ffec94"/><stop offset=".57" style="stop-color:#e6be69"/><stop offset=".77" style="stop-color:#ffd87c"/><stop offset=".95" style="stop-color:#b58f3e"/><stop offset="1" style="stop-color:#956d13"/></linearGradient><path d="M135.5 181.4v97.9l-5.6-25.7s-.9-3.1-3.5-3.1c-2.2 0-3.1 3.1-3.1 3.1L119 273v-91.6h16.5z" style="fill:url(#SVGID_00000180347950823936036280000011805816065473361825_)"/><linearGradient id="SVGID_00000014623698922305999130000016166204203934965889_" x1="119.067" x2="135.477" y1="412.353" y2="412.353" gradientUnits="userSpaceOnUse"><stop offset="0" style="stop-color:#a47a1e"/><stop offset=".23" style="stop-color:#d3a84c"/><stop offset=".43" style="stop-color:#ffec94"/><stop offset=".57" style="stop-color:#e6be69"/><stop offset=".77" style="stop-color:#ffd87c"/><stop offset=".95" style="stop-color:#b58f3e"/><stop offset="1" style="stop-color:#956d13"/></linearGradient><path d="M135.5 384.7v46.2l-16.4 9.2v-46.3c5.5-3.1 11.2-6.3 16.4-9.1z" style="fill:url(#SVGID_00000014623698922305999130000016166204203934965889_)"/></g><g id="A-col-8"><linearGradient id="SVGID_00000062896344020253841800000006493986941672775835_" x1="137.665" x2="154.075" y1="273.191" y2="273.191" gradientUnits="userSpaceOnUse"><stop offset="0" style="stop-color:#a47a1e"/><stop offset=".23" style="stop-color:#d3a84c"/><stop offset=".43" style="stop-color:#ffec94"/><stop offset=".57" style="stop-color:#e6be69"/><stop offset=".77" style="stop-color:#ffd87c"/><stop offset=".95" style="stop-color:#b58f3e"/><stop offset="1" style="stop-color:#956d13"/></linearGradient><path d="M154.1 181.4V365l-16.4-75.6v-108z" style="fill:url(#SVGID_00000062896344020253841800000006493986941672775835_)"/><linearGradient id="SVGID_00000048461445536743236500000011998563205490710970_" x1="137.665" x2="154.075" y1="401.621" y2="401.621" gradientUnits="userSpaceOnUse"><stop offset="0" style="stop-color:#a47a1e"/><stop offset=".23" style="stop-color:#d3a84c"/><stop offset=".43" style="stop-color:#ffec94"/><stop offset=".57" style="stop-color:#e6be69"/><stop offset=".77" style="stop-color:#ffd87c"/><stop offset=".95" style="stop-color:#b58f3e"/><stop offset="1" style="stop-color:#956d13"/></linearGradient><path d="M154.1 373.6v46.9l-16.4 9.2v-46.2c6.4-3.6 11.9-6.7 15-8.7.5-.4 1-.8 1.4-1.2z" style="fill:url(#SVGID_00000048461445536743236500000011998563205490710970_)"/></g><g id="A-col-9"><linearGradient id="SVGID_00000044857617189765113430000016536677561449280907_" x1="156.263" x2="172.673" y1="311.694" y2="311.694" gradientUnits="userSpaceOnUse"><stop offset="0" style="stop-color:#a47a1e"/><stop offset=".23" style="stop-color:#d3a84c"/><stop offset=".43" style="stop-color:#ffec94"/><stop offset=".57" style="stop-color:#e6be69"/><stop offset=".77" style="stop-color:#ffd87c"/><stop offset=".95" style="stop-color:#b58f3e"/><stop offset="1" style="stop-color:#956d13"/></linearGradient><path d="M172.7 190.6c-3.2 6.4-9.5 17-9.5 23.2 0 2.9 3.8 20.3 9.5 44.8V442c-2.7-10.5-5.1-19.3-5.6-21.3-.9-2.6-1.8-3.5-3.9-3.5-1.1 0-3.5.6-6.9 2.2v-238h12.1c2 0 3.3.2 4.3.7v8.5z" style="fill:url(#SVGID_00000044857617189765113430000016536677561449280907_)"/><linearGradient id="SVGID_00000004543073785367629730000005540686729175675293_" x1="165.77" x2="172.673" y1="504.644" y2="504.644" gradientUnits="userSpaceOnUse"><stop offset="0" style="stop-color:#a47a1e"/><stop offset=".23" style="stop-color:#d3a84c"/><stop offset=".43" style="stop-color:#ffec94"/><stop offset=".57" style="stop-color:#e6be69"/><stop offset=".77" style="stop-color:#ffd87c"/><stop offset=".95" style="stop-color:#b58f3e"/><stop offset="1" style="stop-color:#956d13"/></linearGradient><path d="M165.8 507.4c0-1.8 3.3-5.4 6.9-9.4v8.1c0 2.4-1.5 4.4-3.5 5.2-2-.5-3.4-1.7-3.4-3.9z" style="fill:url(#SVGID_00000004543073785367629730000005540686729175675293_)"/></g><g id="A-col-10"><linearGradient id="SVGID_00000089550024575621885920000013007999575446472354_" x1="174.861" x2="191.271" y1="389.822" y2="389.822" gradientUnits="userSpaceOnUse"><stop offset="0" style="stop-color:#a47a1e"/><stop offset=".23" style="stop-color:#d3a84c"/><stop offset=".43" style="stop-color:#ffec94"/><stop offset=".57" style="stop-color:#e6be69"/><stop offset=".77" style="stop-color:#ffd87c"/><stop offset=".95" style="stop-color:#b58f3e"/><stop offset="1" style="stop-color:#956d13"/></linearGradient><path d="M191.3 336v170.1c0 3.1-2.5 5.7-5.7 5.7h-5.1c-3.1 0-5.7-2.5-5.7-5.7v-10.6c3.9-4.4 7.5-8.9 7.5-11.8 0-3.2-3.7-18.5-7.5-33.3V267.9c4.8 20.2 10.6 44 16.5 68.1z" style="fill:url(#SVGID_00000089550024575621885920000013007999575446472354_)"/></g><g id="A-col-11"><linearGradient id="SVGID_00000038406421707924798510000017026268391992394155_" x1="193.459" x2="209.869" y1="428.364" y2="428.364" gradientUnits="userSpaceOnUse"><stop offset="0" style="stop-color:#a47a1e"/><stop offset=".23" style="stop-color:#d3a84c"/><stop offset=".43" style="stop-color:#ffec94"/><stop offset=".57" style="stop-color:#e6be69"/><stop offset=".77" style="stop-color:#ffd87c"/><stop offset=".95" style="stop-color:#b58f3e"/><stop offset="1" style="stop-color:#956d13"/></linearGradient><path d="M209.9 411.6v94.5c0 3.1-2.5 5.7-5.7 5.7h-5.1c-3.1 0-5.7-2.5-5.7-5.7V345c5.8 23.4 11.5 46.7 16.5 66.6z" style="fill:url(#SVGID_00000038406421707924798510000017026268391992394155_)"/></g><g id="A-col-12"><linearGradient id="SVGID_00000069395513087796400230000009208990787359408573_" x1="212.057" x2="228.468" y1="466.08" y2="466.08" gradientUnits="userSpaceOnUse"><stop offset="0" style="stop-color:#a47a1e"/><stop offset=".23" style="stop-color:#d3a84c"/><stop offset=".43" style="stop-color:#ffec94"/><stop offset=".57" style="stop-color:#e6be69"/><stop offset=".77" style="stop-color:#ffd87c"/><stop offset=".95" style="stop-color:#b58f3e"/><stop offset="1" style="stop-color:#956d13"/></linearGradient><path d="M228.5 480v26.1c0 3.1-2.5 5.7-5.7 5.7h-5.1c-3.1 0-5.7-2.5-5.7-5.7v-85.7c6.5 26.2 11.2 44.9 11.9 47.6 1.2 4.3 2.8 8.3 4.6 12z" style="fill:url(#SVGID_00000069395513087796400230000009208990787359408573_)"/></g><g id="A-col-13"><linearGradient id="SVGID_00000085930306634958912390000013870221415662317200_" x1="230.655" x2="247.065" y1="497.899" y2="497.899" gradientUnits="userSpaceOnUse"><stop offset="0" style="stop-color:#a47a1e"/><stop offset=".23" style="stop-color:#d3a84c"/><stop offset=".43" style="stop-color:#ffec94"/><stop offset=".57" style="stop-color:#e6be69"/><stop offset=".77" style="stop-color:#ffd87c"/><stop offset=".95" style="stop-color:#b58f3e"/><stop offset="1" style="stop-color:#956d13"/></linearGradient><path d="M247.1 505.9v.2c0 3-2.4 5.5-5.4 5.7H236.3c-3.1 0-5.7-2.5-5.7-5.7v-22c6.4 10.9 14.4 18.1 16.5 21.8z" style="fill:url(#SVGID_00000085930306634958912390000013870221415662317200_)"/></g><g id="S-col-1"><linearGradient id="SVGID_00000015330623626876372280000002135315936106880930_" x1="257.459" x2="282.507" y1="119.816" y2="119.816" gradientUnits="userSpaceOnUse"><stop offset="0" style="stop-color:#a47a1e"/><stop offset=".23" style="stop-color:#d3a84c"/><stop offset=".43" style="stop-color:#ffec94"/><stop offset=".57" style="stop-color:#e6be69"/><stop offset=".77" style="stop-color:#ffd87c"/><stop offset=".95" style="stop-color:#b58f3e"/><stop offset="1" style="stop-color:#956d13"/></linearGradient><path d="M282.5 9.2v221.3c-15.7-11.7-25-23.2-25-44.5V46.7c0-17.9 9.3-30.8 25-37.5z" style="fill:url(#SVGID_00000015330623626876372280000002135315936106880930_)"/><linearGradient id="SVGID_00000173136381964021972690000013999671879287540136_" x1="257.459" x2="282.507" y1="415.44" y2="415.44" gradientUnits="userSpaceOnUse"><stop offset="0" style="stop-color:#a47a1e"/><stop offset=".23" style="stop-color:#d3a84c"/><stop offset=".43" style="stop-color:#ffec94"/><stop offset=".57" style="stop-color:#e6be69"/><stop offset=".77" style="stop-color:#ffd87c"/><stop offset=".95" style="stop-color:#b58f3e"/><stop offset="1" style="stop-color:#956d13"/></linearGradient><path d="M266.7 327.3c2.2 0 8.4 3.1 15.8 7.4v168.8c-16.2-9.1-25-24.4-25-38.2V336.8c0-6.1 2.8-9.5 9.2-9.5z" style="fill:url(#SVGID_00000173136381964021972690000013999671879287540136_)"/></g><g id="S-col-2"><linearGradient id="SVGID_00000004540778379292185970000014675992212986424733_" x1="286.07" x2="312.792" y1="127.481" y2="127.481" gradientUnits="userSpaceOnUse"><stop offset="0" style="stop-color:#a47a1e"/><stop offset=".23" style="stop-color:#d3a84c"/><stop offset=".43" style="stop-color:#ffec94"/><stop offset=".57" style="stop-color:#e6be69"/><stop offset=".77" style="stop-color:#ffd87c"/><stop offset=".95" style="stop-color:#b58f3e"/><stop offset="1" style="stop-color:#956d13"/></linearGradient><path d="M312.8 3.6v247.7L291 236.5c-1.7-1.1-3.3-2.3-4.9-3.4V7.8c7.6-2.7 16.7-4.2 26.7-4.2z" style="fill:url(#SVGID_00000004540778379292185970000014675992212986424733_)"/><linearGradient id="SVGID_00000031165132550896222660000006784261256768016029_" x1="286.07" x2="312.792" y1="424.316" y2="424.316" gradientUnits="userSpaceOnUse"><stop offset="0" style="stop-color:#a47a1e"/><stop offset=".23" style="stop-color:#d3a84c"/><stop offset=".43" style="stop-color:#ffec94"/><stop offset=".57" style="stop-color:#e6be69"/><stop offset=".77" style="stop-color:#ffd87c"/><stop offset=".95" style="stop-color:#b58f3e"/><stop offset="1" style="stop-color:#956d13"/></linearGradient><path d="M286.1 336.9c9.2 5.5 19.6 12.2 26.7 16.9V503c0 3.8-2.5 7-6.1 8.2-1 .4-2 .5-3.2.5h-8.2c-4.2 0-7.7-2.6-8.8-6.2-.2-.8-.4-1.6-.4-2.5V336.9z" style="fill:url(#SVGID_00000031165132550896222660000006784261256768016029_)"/></g><g id="S-col-3"><linearGradient id="SVGID_00000029017594016071406280000003262743048493658004_" x1="316.356" x2="343.078" y1="137.795" y2="137.795" gradientUnits="userSpaceOnUse"><stop offset="0" style="stop-color:#a47a1e"/><stop offset=".23" style="stop-color:#d3a84c"/><stop offset=".43" style="stop-color:#ffec94"/><stop offset=".57" style="stop-color:#e6be69"/><stop offset=".77" style="stop-color:#ffd87c"/><stop offset=".95" style="stop-color:#b58f3e"/><stop offset="1" style="stop-color:#956d13"/></linearGradient><path d="M328.7 72.3v83.5c0 11.5 2.9 20.3 14.4 29.8V272l-26.7-18.2V3.6h26.7v53.9c-10.3.1-14.4 4.9-14.4 14.8z" style="fill:url(#SVGID_00000029017594016071406280000003262743048493658004_)"/><linearGradient id="SVGID_00000124129805488440286890000008657203971231924866_" x1="316.356" x2="343.078" y1="433.949" y2="433.949" gradientUnits="userSpaceOnUse"><stop offset="0" style="stop-color:#a47a1e"/><stop offset=".23" style="stop-color:#d3a84c"/><stop offset=".43" style="stop-color:#ffec94"/><stop offset=".57" style="stop-color:#e6be69"/><stop offset=".77" style="stop-color:#ffd87c"/><stop offset=".95" style="stop-color:#b58f3e"/><stop offset="1" style="stop-color:#956d13"/></linearGradient><path d="M342.3 457.9h.8V503c0 4.8-4.2 8.7-9.2 8.7h-8.2c-5.1 0-9.2-3.9-9.2-8.7V356.1c3.2 2.2 5.2 3.5 5.2 3.5 5 3.4 7.1 8.1 7.1 19.5v64.6c-.1 8.8 7 14.2 13.5 14.2z" style="fill:url(#SVGID_00000124129805488440286890000008657203971231924866_)"/></g><g id="S-col-4"><linearGradient id="SVGID_00000029042238741930225130000017818802260139608454_" x1="346.641" x2="373.364" y1="30.535" y2="30.535" gradientUnits="userSpaceOnUse"><stop offset="0" style="stop-color:#a47a1e"/><stop offset=".23" style="stop-color:#d3a84c"/><stop offset=".43" style="stop-color:#ffec94"/><stop offset=".57" style="stop-color:#e6be69"/><stop offset=".77" style="stop-color:#ffd87c"/><stop offset=".95" style="stop-color:#b58f3e"/><stop offset="1" style="stop-color:#956d13"/></linearGradient><path d="M346.6 3.6h26.7v53.8h-26.7z" style="fill:url(#SVGID_00000029042238741930225130000017818802260139608454_)"/><linearGradient id="SVGID_00000031168272391746474530000006445638685404450210_" x1="346.641" x2="373.364" y1="240.437" y2="240.437" gradientUnits="userSpaceOnUse"><stop offset="0" style="stop-color:#a47a1e"/><stop offset=".23" style="stop-color:#d3a84c"/><stop offset=".43" style="stop-color:#ffec94"/><stop offset=".57" style="stop-color:#e6be69"/><stop offset=".77" style="stop-color:#ffd87c"/><stop offset=".95" style="stop-color:#b58f3e"/><stop offset="1" style="stop-color:#956d13"/></linearGradient><path d="M373.4 206.4v86.2l-26.7-18.2v-86.2c.2.1.4.3.6.4l26.1 17.8z" style="fill:url(#SVGID_00000031168272391746474530000006445638685404450210_)"/><linearGradient id="SVGID_00000015318586349787499670000003300069264709368981_" x1="346.641" x2="373.364" y1="484.832" y2="484.832" gradientUnits="userSpaceOnUse"><stop offset="0" style="stop-color:#a47a1e"/><stop offset=".23" style="stop-color:#d3a84c"/><stop offset=".43" style="stop-color:#ffec94"/><stop offset=".57" style="stop-color:#e6be69"/><stop offset=".77" style="stop-color:#ffd87c"/><stop offset=".95" style="stop-color:#b58f3e"/><stop offset="1" style="stop-color:#956d13"/></linearGradient><path d="M346.6 457.9h26.7V503c0 4.8-4.2 8.7-9.2 8.7h-8.2c-5.1 0-9.2-3.9-9.2-8.7v-45.1z" style="fill:url(#SVGID_00000015318586349787499670000003300069264709368981_)"/></g><g id="S-col-5"><linearGradient id="SVGID_00000166657443635370487510000010792585201162035889_" x1="376.927" x2="403.65" y1="30.535" y2="30.535" gradientUnits="userSpaceOnUse"><stop offset="0" style="stop-color:#a47a1e"/><stop offset=".23" style="stop-color:#d3a84c"/><stop offset=".43" style="stop-color:#ffec94"/><stop offset=".57" style="stop-color:#e6be69"/><stop offset=".77" style="stop-color:#ffd87c"/><stop offset=".95" style="stop-color:#b58f3e"/><stop offset="1" style="stop-color:#956d13"/></linearGradient><path d="M376.9 3.6h26.7v53.8h-26.7z" style="fill:url(#SVGID_00000166657443635370487510000010792585201162035889_)"/><linearGradient id="SVGID_00000124122575642359317310000004489051118409724800_" x1="376.927" x2="403.65" y1="261.041" y2="261.041" gradientUnits="userSpaceOnUse"><stop offset="0" style="stop-color:#a47a1e"/><stop offset=".23" style="stop-color:#d3a84c"/><stop offset=".43" style="stop-color:#ffec94"/><stop offset=".57" style="stop-color:#e6be69"/><stop offset=".77" style="stop-color:#ffd87c"/><stop offset=".95" style="stop-color:#b58f3e"/><stop offset="1" style="stop-color:#956d13"/></linearGradient><path d="M403.6 227v86.2L376.9 295v-86.2z" style="fill:url(#SVGID_00000124122575642359317310000004489051118409724800_)"/><linearGradient id="SVGID_00000043433883134434156990000002906290451495966389_" x1="376.927" x2="403.65" y1="484.832" y2="484.832" gradientUnits="userSpaceOnUse"><stop offset="0" style="stop-color:#a47a1e"/><stop offset=".23" style="stop-color:#d3a84c"/><stop offset=".43" style="stop-color:#ffec94"/><stop offset=".57" style="stop-color:#e6be69"/><stop offset=".77" style="stop-color:#ffd87c"/><stop offset=".95" style="stop-color:#b58f3e"/><stop offset="1" style="stop-color:#956d13"/></linearGradient><path d="M376.9 457.9h26.7V503c0 4.8-4.2 8.7-9.2 8.7h-8.2c-5.1 0-9.2-3.9-9.2-8.7v-45.1z" style="fill:url(#SVGID_00000043433883134434156990000002906290451495966389_)"/></g><g id="S-col-6"><linearGradient id="SVGID_00000121277128164391749910000011754943941303752381_" x1="407.213" x2="433.936" y1="69.732" y2="69.732" gradientUnits="userSpaceOnUse"><stop offset="0" style="stop-color:#a47a1e"/><stop offset=".23" style="stop-color:#d3a84c"/><stop offset=".43" style="stop-color:#ffec94"/><stop offset=".57" style="stop-color:#e6be69"/><stop offset=".77" style="stop-color:#ffd87c"/><stop offset=".95" style="stop-color:#b58f3e"/><stop offset="1" style="stop-color:#956d13"/></linearGradient><path d="M433.9 3.6v132.2c-.3-.2-.5-.3-.5-.3-5-3.4-7.1-8.1-7.1-19.5V71.6c0-8.7-5.7-14.1-13.5-14.1h-5.6V3.6h26.7z" style="fill:url(#SVGID_00000121277128164391749910000011754943941303752381_)"/><linearGradient id="SVGID_00000110437923678063801200000009061630989368079013_" x1="407.213" x2="433.936" y1="370.572" y2="370.572" gradientUnits="userSpaceOnUse"><stop offset="0" style="stop-color:#a47a1e"/><stop offset=".23" style="stop-color:#d3a84c"/><stop offset=".43" style="stop-color:#ffec94"/><stop offset=".57" style="stop-color:#e6be69"/><stop offset=".77" style="stop-color:#ffd87c"/><stop offset=".95" style="stop-color:#b58f3e"/><stop offset="1" style="stop-color:#956d13"/></linearGradient><path d="M433.9 247.5V503c0 4.8-4.2 8.7-9.2 8.7h-8.2c-5.1 0-9.2-3.9-9.2-8.7v-45.1h4.2c10.7 0 15-4.7 15-14.8v-95.6c0-12.1-5-22.2-17.8-31l-1.3-.9v-86.3l26.5 18.2z" style="fill:url(#SVGID_00000110437923678063801200000009061630989368079013_)"/></g><g id="S-col-7"><linearGradient id="SVGID_00000017476221941350506850000000493954932594620035_" x1="437.499" x2="464.222" y1="79.508" y2="79.508" gradientUnits="userSpaceOnUse"><stop offset="0" style="stop-color:#a47a1e"/><stop offset=".23" style="stop-color:#d3a84c"/><stop offset=".43" style="stop-color:#ffec94"/><stop offset=".57" style="stop-color:#e6be69"/><stop offset=".77" style="stop-color:#ffd87c"/><stop offset=".95" style="stop-color:#b58f3e"/><stop offset="1" style="stop-color:#956d13"/></linearGradient><path d="M464.2 8v147.5c-10.3-6.3-21.1-13.4-26.7-17.2V3.6h1.7c9.4 0 17.7 1.6 25 4.4z" style="fill:url(#SVGID_00000017476221941350506850000000493954932594620035_)"/><linearGradient id="SVGID_00000030455831961703276780000005560900360655205001_" x1="437.499" x2="464.222" y1="380.845" y2="380.845" gradientUnits="userSpaceOnUse"><stop offset="0" style="stop-color:#a47a1e"/><stop offset=".23" style="stop-color:#d3a84c"/><stop offset=".43" style="stop-color:#ffec94"/><stop offset=".57" style="stop-color:#e6be69"/><stop offset=".77" style="stop-color:#ffd87c"/><stop offset=".95" style="stop-color:#b58f3e"/><stop offset="1" style="stop-color:#956d13"/></linearGradient><path d="m437.5 249.9 26.7 18.1v235c0 2.8-1.4 5.3-3.6 6.9-1.6 1.1-3.5 1.8-5.7 1.8h-8.2c-.4 0-.7 0-1.1-.1-4.6-.5-8.1-4.2-8.1-8.6V249.9z" style="fill:url(#SVGID_00000030455831961703276780000005560900360655205001_)"/></g><g id="S-col-8"><linearGradient id="SVGID_00000089544384026918823360000008739099714269492140_" x1="467.785" x2="494.507" y1="88.62" y2="88.62" gradientUnits="userSpaceOnUse"><stop offset="0" style="stop-color:#a47a1e"/><stop offset=".23" style="stop-color:#d3a84c"/><stop offset=".43" style="stop-color:#ffec94"/><stop offset=".57" style="stop-color:#e6be69"/><stop offset=".77" style="stop-color:#ffd87c"/><stop offset=".95" style="stop-color:#b58f3e"/><stop offset="1" style="stop-color:#956d13"/></linearGradient><path d="M494.5 35.5v130.6c-1.5 1.1-3.5 1.7-6.2 1.7s-11.1-4.6-20.6-10.3V9.4c13.3 5.9 22.4 15.7 26.8 26.1z" style="fill:url(#SVGID_00000089544384026918823360000008739099714269492140_)"/><linearGradient id="SVGID_00000051343880686707040340000005572675373760217014_" x1="467.785" x2="494.507" y1="389.023" y2="389.023" gradientUnits="userSpaceOnUse"><stop offset="0" style="stop-color:#a47a1e"/><stop offset=".23" style="stop-color:#d3a84c"/><stop offset=".43" style="stop-color:#ffec94"/><stop offset=".57" style="stop-color:#e6be69"/><stop offset=".77" style="stop-color:#ffd87c"/><stop offset=".95" style="stop-color:#b58f3e"/><stop offset="1" style="stop-color:#956d13"/></linearGradient><path d="M494.5 299.9v185.2c-4.4 10.5-13.2 18.1-25.4 22.4-.9-1.3-1.4-2.9-1.4-4.5V270.5c14 9.5 22.6 17.8 26.8 29.4z" style="fill:url(#SVGID_00000051343880686707040340000005572675373760217014_)"/></g><g id="M-col-1"><linearGradient id="SVGID_00000137108158578063142580000002783365695658647701_" x1="524.555" x2="526.496" y1="194.056" y2="194.056" gradientUnits="userSpaceOnUse"><stop offset="0" style="stop-color:#a47a1e"/><stop offset=".23" style="stop-color:#d3a84c"/><stop offset=".43" style="stop-color:#ffec94"/><stop offset=".57" style="stop-color:#e6be69"/><stop offset=".77" style="stop-color:#ffd87c"/><stop offset=".95" style="stop-color:#b58f3e"/><stop offset="1" style="stop-color:#956d13"/></linearGradient><path d="M526.5 190.2v7.8c-1.2-1.6-1.9-3-1.9-4.1 0-1.9.6-3.1 1.9-3.7z" style="fill:url(#SVGID_00000137108158578063142580000002783365695658647701_)"/><linearGradient id="SVGID_00000178180860261425830810000015592205262632074648_" x1="524.555" x2="526.496" y1="506.645" y2="506.645" gradientUnits="userSpaceOnUse"><stop offset="0" style="stop-color:#a47a1e"/><stop offset=".23" style="stop-color:#d3a84c"/><stop offset=".43" style="stop-color:#ffec94"/><stop offset=".57" style="stop-color:#e6be69"/><stop offset=".77" style="stop-color:#ffd87c"/><stop offset=".95" style="stop-color:#b58f3e"/><stop offset="1" style="stop-color:#956d13"/></linearGradient><path d="M524.6 507.5c0-1.1.7-2.5 1.9-4.1v2.8c0 1.4-.5 2.7-1.4 3.7-.4-.6-.5-1.4-.5-2.4z" style="fill:url(#SVGID_00000178180860261425830810000015592205262632074648_)"/></g><g id="M-col-2"><linearGradient id="SVGID_00000169531032466951403720000001096826416513992636_" x1="528.63" x2="544.631" y1="350.681" y2="350.681" gradientUnits="userSpaceOnUse"><stop offset="0" style="stop-color:#a47a1e"/><stop offset=".23" style="stop-color:#d3a84c"/><stop offset=".43" style="stop-color:#ffec94"/><stop offset=".57" style="stop-color:#e6be69"/><stop offset=".77" style="stop-color:#ffd87c"/><stop offset=".95" style="stop-color:#b58f3e"/><stop offset="1" style="stop-color:#956d13"/></linearGradient><path d="M544.6 189.6v316.6c0 3.1-2.5 5.5-5.5 5.5h-4.9c-3.1 0-5.5-2.5-5.5-5.5v-5.4c5.4-6.2 14.3-14.6 14.3-23.2V223.7c0-8.6-8.9-17-14.3-23.2v-10.9h15.9z" style="fill:url(#SVGID_00000169531032466951403720000001096826416513992636_)"/></g><g id="M-col-3"><linearGradient id="SVGID_00000137099634584650763920000012479044590664369820_" x1="546.764" x2="562.765" y1="350.681" y2="350.681" gradientUnits="userSpaceOnUse"><stop offset="0" style="stop-color:#a47a1e"/><stop offset=".23" style="stop-color:#d3a84c"/><stop offset=".43" style="stop-color:#ffec94"/><stop offset=".57" style="stop-color:#e6be69"/><stop offset=".77" style="stop-color:#ffd87c"/><stop offset=".95" style="stop-color:#b58f3e"/><stop offset="1" style="stop-color:#956d13"/></linearGradient><path d="M562.8 189.6v316.6c0 3.1-2.5 5.5-5.5 5.5h-4.9c-3.1 0-5.5-2.5-5.5-5.5V189.6h15.9z" style="fill:url(#SVGID_00000137099634584650763920000012479044590664369820_)"/></g><g id="M-col-4"><linearGradient id="SVGID_00000165227373431295624840000000219887206357471395_" x1="564.899" x2="580.9" y1="350.681" y2="350.681" gradientUnits="userSpaceOnUse"><stop offset="0" style="stop-color:#a47a1e"/><stop offset=".23" style="stop-color:#d3a84c"/><stop offset=".43" style="stop-color:#ffec94"/><stop offset=".57" style="stop-color:#e6be69"/><stop offset=".77" style="stop-color:#ffd87c"/><stop offset=".95" style="stop-color:#b58f3e"/><stop offset="1" style="stop-color:#956d13"/></linearGradient><path d="M580.9 189.6v316.6c0 3.1-2.5 5.5-5.5 5.5h-4.9c-3.1 0-5.5-2.5-5.5-5.5V189.6h15.9z" style="fill:url(#SVGID_00000165227373431295624840000000219887206357471395_)"/></g><g id="M-col-5"><linearGradient id="SVGID_00000030465661025297467990000007578722041143233712_" x1="583.034" x2="599.035" y1="350.692" y2="350.692" gradientUnits="userSpaceOnUse"><stop offset="0" style="stop-color:#a47a1e"/><stop offset=".23" style="stop-color:#d3a84c"/><stop offset=".43" style="stop-color:#ffec94"/><stop offset=".57" style="stop-color:#e6be69"/><stop offset=".77" style="stop-color:#ffd87c"/><stop offset=".95" style="stop-color:#b58f3e"/><stop offset="1" style="stop-color:#956d13"/></linearGradient><path d="M583.4 316.3v161.3c0 9.4 10.5 18.5 15.6 24.7v3.9c0 3.1-2.5 5.5-5.5 5.5h-4.9c-3.1 0-5.5-2.5-5.5-5.5V189.6c6 .3 10.8 3.8 13.2 12.8.6 1.9 1.5 5.1 2.8 9.3v133l-9.2-30c-.9-3-1.7-4.3-3.8-4.3s-2.7 2.5-2.7 5.9z" style="fill:url(#SVGID_00000030465661025297467990000007578722041143233712_)"/></g><g id="M-col-6_00000010310907774355560120000001579377866550827425_"><linearGradient id="SVGID_00000085243181736438246340000000400627915176186548_" x1="601.168" x2="617.169" y1="311.254" y2="311.254" gradientUnits="userSpaceOnUse"><stop offset="0" style="stop-color:#a47a1e"/><stop offset=".23" style="stop-color:#d3a84c"/><stop offset=".43" style="stop-color:#ffec94"/><stop offset=".57" style="stop-color:#e6be69"/><stop offset=".77" style="stop-color:#ffd87c"/><stop offset=".95" style="stop-color:#b58f3e"/><stop offset="1" style="stop-color:#956d13"/></linearGradient><path d="M617.2 270.8v133.1l-16-52.2v-133c3.9 12.8 9.6 31.4 16 52.1z" style="fill:url(#SVGID_00000085243181736438246340000000400627915176186548_)"/></g><g id="M-col-7_00000034773426344841257410000002683140979204569743_"><linearGradient id="SVGID_00000157307666315627030070000007407262814210926769_" x1="619.303" x2="635.304" y1="370.384" y2="370.384" gradientUnits="userSpaceOnUse"><stop offset="0" style="stop-color:#a47a1e"/><stop offset=".23" style="stop-color:#d3a84c"/><stop offset=".43" style="stop-color:#ffec94"/><stop offset=".57" style="stop-color:#e6be69"/><stop offset=".77" style="stop-color:#ffd87c"/><stop offset=".95" style="stop-color:#b58f3e"/><stop offset="1" style="stop-color:#956d13"/></linearGradient><path d="M635.3 329.6v133.5l-16-52.2V277.7c5.2 16.8 10.7 34.7 16 51.9z" style="fill:url(#SVGID_00000157307666315627030070000007407262814210926769_)"/><linearGradient id="SVGID_00000047760766449764019300000005657939931656048023_" x1="634.216" x2="635.304" y1="506.042" y2="506.042" gradientUnits="userSpaceOnUse"><stop offset="0" style="stop-color:#a47a1e"/><stop offset=".23" style="stop-color:#d3a84c"/><stop offset=".43" style="stop-color:#ffec94"/><stop offset=".57" style="stop-color:#e6be69"/><stop offset=".77" style="stop-color:#ffd87c"/><stop offset=".95" style="stop-color:#b58f3e"/><stop offset="1" style="stop-color:#956d13"/></linearGradient><path d="M634.2 507.5c0-1.2.4-2.8 1.1-4.6v3.3c0 1.1-.3 2.1-.9 2.9-.1-.4-.2-1-.2-1.6z" style="fill:url(#SVGID_00000047760766449764019300000005657939931656048023_)"/></g><g id="M-col-8_00000147926340350973713050000008346758514925051031_"><linearGradient id="SVGID_00000094596434311775120220000015303960216820792235_" x1="637.438" x2="653.439" y1="424.137" y2="424.137" gradientUnits="userSpaceOnUse"><stop offset="0" style="stop-color:#a47a1e"/><stop offset=".23" style="stop-color:#d3a84c"/><stop offset=".43" style="stop-color:#ffec94"/><stop offset=".57" style="stop-color:#e6be69"/><stop offset=".77" style="stop-color:#ffd87c"/><stop offset=".95" style="stop-color:#b58f3e"/><stop offset="1" style="stop-color:#956d13"/></linearGradient><path d="M653.4 388.3v117.9c0 3.1-2.5 5.5-5.5 5.5H643c-3.1 0-5.5-2.5-5.5-5.5V336.5c5.9 19.3 11.5 37.4 15.9 51.8z" style="fill:url(#SVGID_00000094596434311775120220000015303960216820792235_)"/></g><g id="M-col-9_00000049200890294288099140000007342183578997947786_"><linearGradient id="SVGID_00000016076431871819502710000010558146695391367808_" x1="655.572" x2="671.573" y1="453.494" y2="453.494" gradientUnits="userSpaceOnUse"><stop offset="0" style="stop-color:#a47a1e"/><stop offset=".23" style="stop-color:#d3a84c"/><stop offset=".43" style="stop-color:#ffec94"/><stop offset=".57" style="stop-color:#e6be69"/><stop offset=".77" style="stop-color:#ffd87c"/><stop offset=".95" style="stop-color:#b58f3e"/><stop offset="1" style="stop-color:#956d13"/></linearGradient><path d="M671.6 406.8v99.4c0 3.1-2.5 5.5-5.5 5.5h-4.9c-3.1 0-5.5-2.5-5.5-5.5v-111c4.7 15.2 7.7 24.8 7.7 24.8s.9 2.6 2.1 2.6c1.3 0 2.1-2.6 2.1-2.6s1.4-4.9 4-13.2z" style="fill:url(#SVGID_00000016076431871819502710000010558146695391367808_)"/></g><g id="M-col-10_00000104667950587575759110000009028083283734839195_"><linearGradient id="SVGID_00000011717073961720884730000010451247149337063353_" x1="673.707" x2="689.708" y1="429.935" y2="429.935" gradientUnits="userSpaceOnUse"><stop offset="0" style="stop-color:#a47a1e"/><stop offset=".23" style="stop-color:#d3a84c"/><stop offset=".43" style="stop-color:#ffec94"/><stop offset=".57" style="stop-color:#e6be69"/><stop offset=".77" style="stop-color:#ffd87c"/><stop offset=".95" style="stop-color:#b58f3e"/><stop offset="1" style="stop-color:#956d13"/></linearGradient><path d="M689.7 348.1v158.1c0 3.1-2.5 5.5-5.5 5.5h-4.9c-3.1 0-5.5-2.5-5.5-5.5V399.9c3.9-13.1 9.6-31.4 15.9-51.8z" style="fill:url(#SVGID_00000011717073961720884730000010451247149337063353_)"/></g><g id="M-col-11_00000025407063588356609100000003364410309758268320_"><linearGradient id="SVGID_00000082344794675766545490000018406105792790842046_" x1="691.842" x2="696.514" y1="502.213" y2="502.213" gradientUnits="userSpaceOnUse"><stop offset="0" style="stop-color:#a47a1e"/><stop offset=".23" style="stop-color:#d3a84c"/><stop offset=".43" style="stop-color:#ffec94"/><stop offset=".57" style="stop-color:#e6be69"/><stop offset=".77" style="stop-color:#ffd87c"/><stop offset=".95" style="stop-color:#b58f3e"/><stop offset="1" style="stop-color:#956d13"/></linearGradient><path d="M691.8 493.3c1.9 6 4.7 11.1 4.7 14.2 0 1.8-.6 3-1.7 3.6-1.7-.9-2.9-2.8-2.9-4.9v-12.9z" style="fill:url(#SVGID_00000082344794675766545490000018406105792790842046_)"/><linearGradient id="SVGID_00000138572656473704511100000009611635106006528143_" x1="691.842" x2="707.843" y1="382.049" y2="382.049" gradientUnits="userSpaceOnUse"><stop offset="0" style="stop-color:#a47a1e"/><stop offset=".23" style="stop-color:#d3a84c"/><stop offset=".43" style="stop-color:#ffec94"/><stop offset=".57" style="stop-color:#e6be69"/><stop offset=".77" style="stop-color:#ffd87c"/><stop offset=".95" style="stop-color:#b58f3e"/><stop offset="1" style="stop-color:#956d13"/></linearGradient><path d="M707.8 289.3v133l-16 52.4V341.2c5.2-16.8 10.7-34.7 16-51.9z" style="fill:url(#SVGID_00000138572656473704511100000009611635106006528143_)"/></g><g id="M-col-12_00000023246974597398467300000013924170131855465898_"><linearGradient id="SVGID_00000015317134187488177010000015727722622869672601_" x1="709.976" x2="725.977" y1="322.866" y2="322.866" gradientUnits="userSpaceOnUse"><stop offset="0" style="stop-color:#a47a1e"/><stop offset=".23" style="stop-color:#d3a84c"/><stop offset=".43" style="stop-color:#ffec94"/><stop offset=".57" style="stop-color:#e6be69"/><stop offset=".77" style="stop-color:#ffd87c"/><stop offset=".95" style="stop-color:#b58f3e"/><stop offset="1" style="stop-color:#956d13"/></linearGradient><path d="M726 230.4V363l-16 52.4v-133l16-52z" style="fill:url(#SVGID_00000015317134187488177010000015727722622869672601_)"/></g><g id="M-col-13_00000009559162956519451860000012112316440793320079_"><linearGradient id="SVGID_00000106869832580890100060000006631267194999093681_" x1="728.111" x2="744.112" y1="273.102" y2="273.102" gradientUnits="userSpaceOnUse"><stop offset="0" style="stop-color:#a47a1e"/><stop offset=".23" style="stop-color:#d3a84c"/><stop offset=".43" style="stop-color:#ffec94"/><stop offset=".57" style="stop-color:#e6be69"/><stop offset=".77" style="stop-color:#ffd87c"/><stop offset=".95" style="stop-color:#b58f3e"/><stop offset="1" style="stop-color:#956d13"/></linearGradient><path d="M744.1 190.3v120.2c-1.7.3-2.5 2-3.6 5.1l-12.4 40.5V223.4c3.1-10.1 5.3-17.5 6.4-21 1.9-7.1 5.3-10.8 9.6-12.1z" style="fill:url(#SVGID_00000106869832580890100060000006631267194999093681_)"/><linearGradient id="SVGID_00000132799002691308412220000016696586485010430086_" x1="728.943" x2="744.112" y1="499.498" y2="499.498" gradientUnits="userSpaceOnUse"><stop offset="0" style="stop-color:#a47a1e"/><stop offset=".23" style="stop-color:#d3a84c"/><stop offset=".43" style="stop-color:#ffec94"/><stop offset=".57" style="stop-color:#e6be69"/><stop offset=".77" style="stop-color:#ffd87c"/><stop offset=".95" style="stop-color:#b58f3e"/><stop offset="1" style="stop-color:#956d13"/></linearGradient><path d="M728.9 507.5c0-4.1 9.9-11.6 15.2-20.2v19c0 3.1-2.5 5.5-5.5 5.5h-5.5c-1.4-.2-2.7-.9-3.6-1.9-.4-.7-.6-1.5-.6-2.4z" style="fill:url(#SVGID_00000132799002691308412220000016696586485010430086_)"/></g><g id="M-col-14_00000047763383740942165070000011359859900135121080_"><linearGradient id="SVGID_00000119100073848147451400000007049124745550596761_" x1="746.246" x2="762.247" y1="350.681" y2="350.681" gradientUnits="userSpaceOnUse"><stop offset="0" style="stop-color:#a47a1e"/><stop offset=".23" style="stop-color:#d3a84c"/><stop offset=".43" style="stop-color:#ffec94"/><stop offset=".57" style="stop-color:#e6be69"/><stop offset=".77" style="stop-color:#ffd87c"/><stop offset=".95" style="stop-color:#b58f3e"/><stop offset="1" style="stop-color:#956d13"/></linearGradient><path d="M762.2 189.6v316.6c0 3.1-2.5 5.5-5.5 5.5h-4.9c-3.1 0-5.5-2.5-5.5-5.5V189.8c.8-.1 1.5-.2 2.3-.2h13.6z" style="fill:url(#SVGID_00000119100073848147451400000007049124745550596761_)"/></g><g id="M-col-15_00000145041055908512463640000002541914451346826917_"><linearGradient id="SVGID_00000083075723027096718910000008438355225523837875_" x1="764.38" x2="780.382" y1="350.681" y2="350.681" gradientUnits="userSpaceOnUse"><stop offset="0" style="stop-color:#a47a1e"/><stop offset=".23" style="stop-color:#d3a84c"/><stop offset=".43" style="stop-color:#ffec94"/><stop offset=".57" style="stop-color:#e6be69"/><stop offset=".77" style="stop-color:#ffd87c"/><stop offset=".95" style="stop-color:#b58f3e"/><stop offset="1" style="stop-color:#956d13"/></linearGradient><path d="M780.4 189.6v316.6c0 3.1-2.5 5.5-5.5 5.5H770c-3.1 0-5.5-2.5-5.5-5.5V189.6h15.9z" style="fill:url(#SVGID_00000083075723027096718910000008438355225523837875_)"/></g><g id="M-col-16_00000044886927950418984170000015665141853623989898_"><linearGradient id="SVGID_00000173147728826192077620000011463170363292433325_" x1="782.515" x2="798.516" y1="350.681" y2="350.681" gradientUnits="userSpaceOnUse"><stop offset="0" style="stop-color:#a47a1e"/><stop offset=".23" style="stop-color:#d3a84c"/><stop offset=".43" style="stop-color:#ffec94"/><stop offset=".57" style="stop-color:#e6be69"/><stop offset=".77" style="stop-color:#ffd87c"/><stop offset=".95" style="stop-color:#b58f3e"/><stop offset="1" style="stop-color:#956d13"/></linearGradient><path d="M787.8 223.7v253.9c0 6.9 5.7 13.6 10.7 19.2v9.4c0 3.1-2.5 5.5-5.5 5.5h-5c-3.1 0-5.5-2.5-5.5-5.5V189.6h16v14.9c-5 5.6-10.7 12.4-10.7 19.2z" style="fill:url(#SVGID_00000173147728826192077620000011463170363292433325_)"/></g><g id="M-col-17"><linearGradient id="SVGID_00000022518184939979990170000008702227915133745036_" x1="800.65" x2="806.176" y1="195.897" y2="195.897" gradientUnits="userSpaceOnUse"><stop offset="0" style="stop-color:#a47a1e"/><stop offset=".23" style="stop-color:#d3a84c"/><stop offset=".43" style="stop-color:#ffec94"/><stop offset=".57" style="stop-color:#e6be69"/><stop offset=".77" style="stop-color:#ffd87c"/><stop offset=".95" style="stop-color:#b58f3e"/><stop offset="1" style="stop-color:#956d13"/></linearGradient><path d="M806.2 193.9c0 2-2.4 4.9-5.5 8.3v-12.6h.8c3 0 4.7 1.3 4.7 4.3z" style="fill:url(#SVGID_00000022518184939979990170000008702227915133745036_)"/><linearGradient id="SVGID_00000064333948848394454260000008784066955313475993_" x1="800.65" x2="806.176" y1="505.247" y2="505.247" gradientUnits="userSpaceOnUse"><stop offset="0" style="stop-color:#a47a1e"/><stop offset=".23" style="stop-color:#d3a84c"/><stop offset=".43" style="stop-color:#ffec94"/><stop offset=".57" style="stop-color:#e6be69"/><stop offset=".77" style="stop-color:#ffd87c"/><stop offset=".95" style="stop-color:#b58f3e"/><stop offset="1" style="stop-color:#956d13"/></linearGradient><path d="M800.6 499.2c3.1 3.4 5.5 6.3 5.5 8.3 0 2-.8 3.2-2.2 3.8-2-.8-3.4-2.8-3.4-5.1v-7z" style="fill:url(#SVGID_00000064333948848394454260000008784066955313475993_)"/></g></svg>