<svg xmlns="http://www.w3.org/2000/svg" xml:space="preserve" id="Layer_1" x="0" y="0" style="enable-background:new 0 0 292.9 191" version="1.1" viewBox="0 0 292.9 191"><style>.st7{fill:none}</style><linearGradient id="SVGID_1_" x1=".493" x2="85.743" y1="95.347" y2="95.347" gradientUnits="userSpaceOnUse"><stop offset="0" style="stop-color:#a47a1e"/><stop offset=".23" style="stop-color:#d3a84c"/><stop offset=".43" style="stop-color:#ffec94"/><stop offset=".57" style="stop-color:#e6be69"/><stop offset=".77" style="stop-color:#ffd87c"/><stop offset=".95" style="stop-color:#b58f3e"/><stop offset="1" style="stop-color:#956d13"/></linearGradient><path d="M85.2 16.9v-1.2c0-.2-.1-.5-.2-.8 0-.1 0-.2-.1-.3 0-.2-.1-.5-.2-.7 0-.2-.1-.3-.2-.5-.1-.3-.2-.6-.3-.8v-.2c0-.1-.1-.3-.2-.4v-.1c-.1-.1-.1-.2-.2-.4s-.2-.4-.4-.7c-.1-.1-.1-.2-.2-.3 0 0 0-.1-.1-.1v-.1c-.1-.2-.2-.3-.3-.5-.1-.1-.1-.2-.2-.3-.1-.1-.2-.3-.3-.5 0 0 0-.1-.1-.1-.1-.2-.3-.4-.4-.6-.1-.1-.2-.3-.3-.4l-.3-.3-.6-.6c-.2-.2-.3-.4-.5-.5l-.2-.2-.1-.1c-.6-.2-.8-.3-1-.5-.3-.2-.5-.4-.8-.6-.3-.2-.5-.4-.8-.6-.8-.5-1.6-1-2.4-1.3-.3-.2-.6-.3-1-.4h-.2c-.1-.1-.3-.1-.4-.2-.1 0-.1 0-.2-.1-.2-.1-.4-.2-.7-.2-.1 0-.1 0-.2-.1-.1-.2-.3-.2-.4-.2H71.4c-.2-.1-.4-.1-.7-.2-.2 0-.3-.1-.5-.1s-.4-.1-.6-.1c-.1 0-.2 0-.3-.1-.3-.1-.6-.1-.9-.1h-.3c-.3 0-.7-.1-1-.1H20.5c-2.4 0-4.7.2-6.7.7-.3.1-.6.2-.9.2-.5.1-1 .3-1.5.5 0 0-.1 0-.2.1-.6-.1-1.2.1-1.7.4-.2.1-.5.2-.7.3-.6.4-1.3.8-1.9 1.2-.1.1-.3.2-.4.3-.5.4-1 .8-1.4 1.3-.3.2-.5.5-.7.7-.4.5-.8 1-1.1 1.5-.1.1-.1.2-.2.3-.1.3-.3.5-.4.7 0 .1-.1.2-.1.2-.1.1-.1.3-.2.4v.1c-.2.5-.4.9-.6 1.4-.1.2-.1.4-.2.6v.1c-.1.2-.1.4-.2.6-.1.3-.1.7-.2 1v.2c0 .2 0 .3-.1.5v.2c0 .3-.1.7-.1 1V70.1c0 .5.1 1 .1 1.5v.3c0 .1 0 .3.1.4.1.6.2 1.2.3 1.7v.1c0 .2.1.3.1.5v.2c0 .1 0 .2.1.3.1.2.1.4.2.6.2.4.3.9.5 1.3.1.2.2.4.3.7.2.3.4.7.6 1 .1.2.3.5.5.7.1.2.3.4.5.6.1.2.2.3.3.4.1.1.2.3.3.4l.2.2.3.3c.1.1.2.3.4.4l.2.2c.2.2.3.4.5.5.3.3.6.6 1 .9.3.3.5.5.8.7.2.1.3.3.5.4l.3.3c.7.6 1.5 1.2 2.4 1.8.3.2.6.5.9.7.1.1.2.2.3.2l.1.1.9.6.1.1.7.5.3.2 2.7 2 1 .7.1.1.4.3 1.8 1.3 1.3.9.8.6.2.1.5.4.6.4.2.2.7.5.6.4 1.5 1.1h.1l.3.2.7.5 2.3 1.7.2.2.8.5.1.1 1.5 1 .6.4.3.2 2.7 2 .9.6.2.1.4.3 1.5 1.1 1.7 1.2.9.6.1.1.8.6.3.2.9.7 2.1 1.5.5.3.3.2.3.2.2.2 1.7 1.2.3.2.7.5.3.2 1.8 1.3 1.2.8c.3.2.7.5 1 .8l.1.1.6.6c.1 0 .1.1.2.2l.1.1c.2.2.4.4.6.7.1.1.2.3.4.4l.3.3c.1.1.2.3.3.4.1.2.2.3.3.5.2.2.3.5.5.7.1.2.2.4.3.5.1.2.2.3.2.5.1.2.2.5.3.7.1.3.2.5.3.8.1.2.1.3.2.5 0 .1.1.3.1.4 0 .2.1.3.1.5s.1.4.1.6V165.4c-.1.5-.2.9-.4 1.3 0 0 0 .1-.1.1l-.3.6c-.2.2-.4.5-.6.7-.4.4-.9.6-1.6.8-.1 0-.2 0-.2.1-.1 0-.3.1-.4.1H29.9c-.1 0-.2 0-.2-.1-.2-.1-.3-.1-.5-.2s-.3-.1-.5-.2l-.9-.6-.2-.2-.3-.3-.2-.2-.1-.1c-.1-.1-.2-.2-.2-.4-.1-.1-.1-.2-.2-.4-.1-.1-.1-.2-.2-.4s-.2-.5-.2-.7v-.1c0-.2-.1-.3-.1-.5V137.7c0-.2 0-.5-.1-.7 0-.1 0-.3-.1-.4 0-.2-.1-.4-.1-.6 0-.1 0-.2-.1-.3-.1-.3-.1-.5-.2-.7-.1-.3-.2-.6-.4-.8-.2-.3-.3-.5-.5-.7-.3-.3-.6-.6-.9-.8 0 0-.1-.1-.3-.2-.2-.1-.4-.3-.7-.5-.1 0-.1-.1-.2-.1-.2-.2-.5-.3-.7-.5-.2-.2-.5-.3-.7-.5-.1-.1-.2-.1-.3-.2 0 0-.1 0-.1-.1-.2-.1-.3-.2-.5-.3-.2-.1-.3-.2-.5-.4-.2-.1-.4-.2-.5-.4l-.2-.2-.9-.6c-.8-.5-1.6-1.1-2.5-1.7-.3-.2-.5-.4-.8-.5-.3-.2-.5-.4-.8-.5-.3-.2-.5-.3-.8-.5-.3-.2-.5-.4-.8-.5-.3-.2-.6-.4-1-.6l-.1-.1-.9-.6c-.1 0-.1-.1-.2-.1-.3-.2-.7-.4-1-.6-.7-.4-1.4-.8-2-1.1-.5-.3-1-.5-1.3-.7-.1 0-.2-.1-.3-.1-.1 0-.2-.1-.3-.1H3.8c-.2 0-.4.1-.5.1-.2 0-.3.1-.5.2-.3.2-.5.4-.7.6-.4.5-.6 1.1-.6 1.8v49.7c0 .2 0 .3.1.5 0 .1 0 .3.1.4 0 .2.1.5.1.7 0 .1 0 .2.1.3.1.4.2.7.3 1 .1.2.1.4.2.7.1.3.2.6.4.9v.1c.2.4.3.8.5 1.1.1.2.2.3.3.5l.1.1c.3.5.6 1 .9 1.4.1.1.2.2.2.3.2.2.3.4.5.7.2.2.3.4.5.6.1.1.2.2.3.4.5.5 1.1 1.1 1.7 1.5.2.2.4.4.7.5.2.2.4.3.6.5.3.2.6.4 1 .6.3.2.7.4 1.1.6l1.2.6c.2.1.5.2.8.3.2.1.3.1.5.2s.3.1.5.2c.1.1.3.1.4.1.1 0 .1.1.2.1l.9.3c.1 0 .2 0 .3.1h.2c.3.1.6.1.9.2.4.1.9.2 1.3.2.3 0 .5.1.8.1H19c.2 0 .5 0 .7.1h46.6c.6 0 1.2 0 1.8-.1.3 0 .6 0 .9-.1.3 0 .6 0 .8-.1l2.1-.3c.1 0 .2 0 .4-.1.5-.1 1.1-.2 1.6-.4 1.8-.5 3.5-1.3 4.9-2.2 0 0 .1 0 .1-.1.1-.1.3-.2.4-.3.2-.1.3-.2.4-.3.4-.3.9-.7 1.2-1.1l.6-.6.1-.1c.2-.2.3-.4.5-.6l.1-.1c.1-.2.3-.4.4-.6.2-.2.3-.4.4-.6 0 0 0-.1.1-.1.1-.2.3-.4.4-.7l.3-.6v-.1c.1-.1.1-.3.2-.4.1-.2.2-.5.3-.7.1-.2.1-.3.2-.5.1-.4.2-.7.3-1.1 0-.2.1-.4.1-.6v-.1c0-.2.1-.4.1-.6 0-.2.1-.4.1-.6 0-.2 0-.4.1-.7v-58.2c0-.3 0-.6-.1-.9 0-.4-.1-.7-.1-1.1 0-.3-.1-.6-.1-.9v-.2c0-.2-.1-.4-.1-.6v-.1c0-.2-.1-.4-.1-.6 0-.2-.1-.5-.2-.7-.1-.2-.1-.4-.2-.5 0-.1-.1-.3-.1-.4 0-.1-.1-.2-.1-.3-.1-.2-.2-.5-.3-.7-.1-.3-.3-.6-.4-.9-.1-.2-.2-.5-.4-.7-.2-.3-.4-.7-.6-1-.1-.2-.2-.3-.3-.5l-.1-.1c-.1-.1-.2-.2-.3-.4-.1-.1-.2-.2-.3-.4-.1-.1-.2-.2-.2-.3l-.1-.1-.2-.2c-.1 0-.1-.1-.1-.2-.2-.2-.3-.4-.5-.5-.2-.2-.3-.4-.5-.5l-.3-.3c-.1-.1-.2-.2-.4-.3l-.4-.4-.1-.1c-.2-.1-.3-.3-.5-.4l-1.8-1.5c-.3-.2-.6-.5-1-.7-.2-.2-.5-.3-.7-.5l-.4-.3-1.3-1-1-.7-1.8-1.3L69 96l-.9-.7-.6-.4-.2-.2-.8-.6-.7-.5-.3-.2-.9-.7-1.8-1.3-.3-.2-.5-.4-.5-.3-.6-.4-.5-.4-1-.7-.2-.1-.2-.1-.4-.3-.3-.2-1.8-1.3-1-.7-.5-.4-1-.7-1.2-.8-2.6-1.8-.6-.4-.1-.1-.5-.5-.5-.3-.7-.5h-.1l-.3-.2-.4-.4-.4-.3-.3-.2-3-2.2-.8-.6-.5-.3-.2-.1-.8-.6h-.1l-1.1-.9-.3-.3-.1-.1-.6-.4-.4-.2-2.6-1.8-.5-.4-.5-.4-.4-.3-.6-.5-.3-.3-.9-.7c-.2-.1-.3-.2-.4-.3-.2-.2-.4-.4-.6-.5-.6-.5-1.1-1-1.6-1.5-.1-.1-.2-.3-.4-.4l-.1-.1-.2-.2c-.2-.2-.4-.4-.6-.7-.2-.2-.4-.5-.5-.7-.3-.4-.5-.8-.7-1.2-.2-.4-.4-.8-.5-1.3-.1-.2-.2-.4-.2-.7-.2-.8-.4-1.5-.5-2.3v-.3c0-.4-.1-.9-.1-1.3V25.5c0-.5.1-1 .3-1.5 0-.2.1-.4.2-.5.1-.3.3-.6.5-.9l.3-.3c0-.1.1-.1.2-.1.1-.1.2-.2.3-.2.2-.2.5-.3.8-.4H29.1c.2 0 .3-.1.5-.1s.4-.1.6-.1c.2 0 .4-.1.7-.1h26c.2 0 .5.1.7.2.1 0 .2.1.3.1.1 0 .2.1.3.1.1 0 .1.1.2.1h.1c.1.1.2.1.3.2.2.1.3.3.5.5l.3.3c.1.1.1.2.2.3 0 .1.1.2.1.2 0 .1.1.1.1.2.1.1.1.3.2.4v.1s0 .1.1.2c.1.2.1.5.2.7 0 .1 0 .3.1.4v19c0 .4.1.8.1 1.2V46.3c0 .1 0 .2.1.3.1.3.2.6.2.8l.1.1c0 .1 0 .1.1.2.1.3.2.5.4.7.2.3.4.6.7.8.2.2.5.4.7.6l.1.1h.1c.1.1.3.2.5.4.4.3 1 .7 1.8 1.2.2.1.4.3.7.5.1.1.2.2.4.3.2.1.4.3.6.4 1.1.7 2.3 1.6 3.5 2.4.1.1.3.2.4.3.1.1.2.2.4.3.1 0 .1.1.2.2.3.2.5.4.8.6.4.3.8.5 1.2.8.1.1.3.2.4.2.2.1.3.2.5.3.8.5 1.4 1 2.1 1.4h.2s.1.1.2.1c.4.2.7.4 1 .6 0 0 .1 0 .1.1.3.2.6.4.9.5.7.4 1.4.7 1.9 1 .4.2.7.3.9.3H83c.1 0 .2 0 .3-.1.1 0 .1 0 .2-.1.1 0 .3-.1.4-.1.1 0 .1 0 .2-.1.2-.1.3-.2.4-.3l.2-.2.2-.2c.1-.1.1-.1.1-.2.1-.2.2-.4.3-.7 0-.1.1-.2.1-.3V18.2c-.2-.4-.2-.8-.2-1.3z" style="fill:none;stroke:url(#SVGID_1_);stroke-miterlimit:10"/><linearGradient id="SVGID_00000180359068592438677030000000953504559505353889_" x1=".993" x2="8.823" y1="43.987" y2="43.987" gradientUnits="userSpaceOnUse"><stop offset="0" style="stop-color:#a47a1e"/><stop offset=".23" style="stop-color:#d3a84c"/><stop offset=".43" style="stop-color:#ffec94"/><stop offset=".57" style="stop-color:#e6be69"/><stop offset=".77" style="stop-color:#ffd87c"/><stop offset=".95" style="stop-color:#b58f3e"/><stop offset="1" style="stop-color:#956d13"/></linearGradient><path d="M8.8 3.5v81c-.2-.1-.3-.3-.5-.4-.2-.2-.5-.4-.7-.7-.3-.3-.7-.6-1-.9-.2-.2-.3-.4-.5-.5l-.2-.2c-.1-.1-.2-.3-.4-.4l-.3-.3-.2-.2c-.1-.1-.2-.3-.3-.4-.1-.1-.2-.3-.3-.4-.2-.2-.3-.4-.5-.6-.2-.2-.3-.5-.5-.7-.2-.3-.4-.7-.6-1-.1-.2-.2-.4-.3-.7-.2-.4-.4-.8-.5-1.3 0-.4-.1-.6-.1-.8 0-.1-.1-.2-.1-.3v-.2c-.1-.1-.1-.3-.1-.5v-.1c-.2-.5-.3-1.1-.3-1.7 0-.1 0-.3-.1-.4v-.3c-.1-.5-.1-1-.1-1.5V15.9c0-.3 0-.7.1-1v-.2c0-.2 0-.3.1-.5V14c0-.4.1-.7.2-1 0-.2.1-.4.2-.6v-.1c0-.2.1-.4.2-.6.2-.5.3-1 .6-1.4v-.1c0-.1.1-.3.2-.4 0-.1.1-.1.1-.2-.1-.3.1-.5.2-.8.1-.1.1-.2.2-.3.3-.5.7-1 1.1-1.5.2-.2.4-.5.6-.7.5-.5 1-.9 1.5-1.3.1-.1.3-.2.4-.3.6-.4 1.3-.8 1.9-1.2z" style="fill:url(#SVGID_00000180359068592438677030000000953504559505353889_)"/><linearGradient id="SVGID_00000086679647531578380230000017360706360604471681_" x1=".993" x2="8.823" y1="153.637" y2="153.637" gradientUnits="userSpaceOnUse"><stop offset="0" style="stop-color:#a47a1e"/><stop offset=".23" style="stop-color:#d3a84c"/><stop offset=".43" style="stop-color:#ffec94"/><stop offset=".57" style="stop-color:#e6be69"/><stop offset=".77" style="stop-color:#ffd87c"/><stop offset=".95" style="stop-color:#b58f3e"/><stop offset="1" style="stop-color:#956d13"/></linearGradient><path d="M8.8 123.4v62.7c-.2-.2-.4-.3-.6-.5-.2-.2-.5-.3-.7-.5-.6-.5-1.2-1-1.7-1.5-.1-.1-.2-.2-.3-.4-.2-.2-.4-.4-.5-.6-.2-.2-.4-.4-.5-.7-.1-.1-.2-.2-.2-.3-.3-.5-.7-1-.9-1.4l-.1-.1c-.1-.2-.2-.3-.3-.5-.2-.4-.4-.7-.5-1.1v-.1c-.1-.3-.3-.6-.4-.9-.1-.2-.2-.4-.2-.7-.1-.3-.2-.7-.3-1 0-.1 0-.2-.1-.3 0-.2-.1-.5-.1-.7 0-.1-.1-.3-.1-.4 0-.2 0-.3-.1-.5V124.2c.1-.7.3-1.3.6-1.8.2-.3.4-.5.7-.6.1-.1.3-.1.5-.2s.3-.1.5-.1H5c.1 0 .2.1.3.1.1 0 .2.1.3.1.4.2.8.4 1.3.7.6.2 1.2.6 1.9 1z" style="fill:url(#SVGID_00000086679647531578380230000017360706360604471681_)"/><linearGradient id="SVGID_00000151538016881319620930000009992054306231719068_" x1="12.823" x2="20.823" y1="47.137" y2="47.137" gradientUnits="userSpaceOnUse"><stop offset="0" style="stop-color:#a47a1e"/><stop offset=".23" style="stop-color:#d3a84c"/><stop offset=".43" style="stop-color:#ffec94"/><stop offset=".57" style="stop-color:#e6be69"/><stop offset=".77" style="stop-color:#ffd87c"/><stop offset=".95" style="stop-color:#b58f3e"/><stop offset="1" style="stop-color:#956d13"/></linearGradient><path d="M20.8 1v92.3L19 92l-.5-.3-.1-.1-1-.7-2.7-2-.3-.2-.7-.5-.1-.1-.9-.6V1.9c.3-.1.6-.2.9-.2 2-.5 4.3-.7 6.7-.7h.5z" style="fill:url(#SVGID_00000151538016881319620930000009992054306231719068_)"/><linearGradient id="SVGID_00000041986606124120014230000001365484926657423520_" x1="12.823" x2="20.823" y1="157.807" y2="157.807" gradientUnits="userSpaceOnUse"><stop offset="0" style="stop-color:#a47a1e"/><stop offset=".23" style="stop-color:#d3a84c"/><stop offset=".43" style="stop-color:#ffec94"/><stop offset=".57" style="stop-color:#e6be69"/><stop offset=".77" style="stop-color:#ffd87c"/><stop offset=".95" style="stop-color:#b58f3e"/><stop offset="1" style="stop-color:#956d13"/></linearGradient><path d="M20.8 131.3V188.8c0 .2 0 .3-.1.4v.1c0 .1-.1.2-.1.3 0 0 0 .1-.1.1h-.8c-.2 0-.5 0-.7-.1h-.1c-.3 0-.6-.1-.8-.1-.5-.1-.9-.1-1.3-.2-.3 0-.6-.1-.9-.2h-.2c-.1 0-.2 0-.3-.1l-.9-.3c-.1 0-.1 0-.2-.1-.1 0-.3-.1-.4-.1-.2 0-.3-.1-.5-.2s-.3-.1-.5-.2v-62.2c.3.2.5.3.8.5.3.2.5.4.8.5.3.2.5.4.8.5.8.6 1.7 1.1 2.5 1.7l.9.6c.1 0 .1.1.2.2.2.1.4.3.5.4.2.1.3.2.5.4.2.1.3.2.5.3 0 0 .1 0 .1.1.1.1.2.1.3.2z" style="fill:url(#SVGID_00000041986606124120014230000001365484926657423520_)"/><linearGradient id="SVGID_00000051342427732782833090000003405295942040465793_" x1="25.823" x2="33.823" y1="51.822" y2="51.822" gradientUnits="userSpaceOnUse"><stop offset="0" style="stop-color:#a47a1e"/><stop offset=".23" style="stop-color:#d3a84c"/><stop offset=".43" style="stop-color:#ffec94"/><stop offset=".57" style="stop-color:#e6be69"/><stop offset=".77" style="stop-color:#ffd87c"/><stop offset=".95" style="stop-color:#b58f3e"/><stop offset="1" style="stop-color:#956d13"/></linearGradient><path d="M33.8 1v20H30.6c-.2 0-.5 0-.7.1-.2 0-.4.1-.6.1-.2 0-.3.1-.5.1h-.2c-.3.1-.6.3-.8.4-.1.1-.2.1-.3.2-.1 0-.1.1-.2.1l-.3.3c-.2.3-.4.6-.5.9-.1.2-.2.4-.2.5-.1.4-.2.9-.3 1.5v32.6c0 .5 0 .9.1 1.3v.3c.1.8.2 1.6.5 2.3.1.2.1.5.2.7.1.4.3.8.5 1.3.2.4.4.8.7 1.2.2.2.3.5.5.7.2.2.4.4.6.7 0 .1.1.1.2.2l.1.1c.1.1.2.3.4.4.5.5 1 1 1.6 1.5.2.2.4.4.6.5.1.1.3.2.4.3l.9.7.3.3v32l-.6-.4-1.5-1-.1-.1-.8-.5-.2-.2-2.3-1.7-.7-.5v.1h-.1l-1.5-1.1V1h8z" style="fill:url(#SVGID_00000051342427732782833090000003405295942040465793_)"/><linearGradient id="SVGID_00000023262925595962153180000001493135208671475358_" x1="25.823" x2="33.823" y1="163.652" y2="163.652" gradientUnits="userSpaceOnUse"><stop offset="0" style="stop-color:#a47a1e"/><stop offset=".23" style="stop-color:#d3a84c"/><stop offset=".43" style="stop-color:#ffec94"/><stop offset=".57" style="stop-color:#e6be69"/><stop offset=".77" style="stop-color:#ffd87c"/><stop offset=".95" style="stop-color:#b58f3e"/><stop offset="1" style="stop-color:#956d13"/></linearGradient><path d="M33.8 169.7V188.6c0 .4-.2.8-.4 1.2h-7.2c0-.1-.1-.2-.1-.3v-.2c0-.1-.1-.2-.1-.4v-.2c0-.2-.1-.4-.1-.6v-50.4c0 .2.1.5.1.7v27c0 .2 0 .3.1.5v.1c.1.2.1.5.2.7 0 .1.1.3.2.4.1.1.1.2.2.4.1.1.2.2.2.4 0 0 0 .1.1.1 0 .1.1.2.2.2l.3.3.2.2.9.6c.2.1.3.2.5.2.2.1.3.1.5.2.1 0 .1 0 .2.1h4z" style="fill:url(#SVGID_00000023262925595962153180000001493135208671475358_)"/><path d="M78 5.1c-.3-.2-.5-.4-.8-.6M84 12.6c0-.1 0-.1 0 0 0-.1 0-.1-.1-.2 0-.1-.1-.3-.2-.4 0 0 0-.1-.1-.1M81.9 8.9c-.1-.2-.3-.4-.4-.6" class="st7"/><linearGradient id="SVGID_00000168824111269007452170000007019830572303512753_" x1="78.823" x2="85.243" y1="33.832" y2="33.832" gradientUnits="userSpaceOnUse"><stop offset="0" style="stop-color:#a47a1e"/><stop offset=".23" style="stop-color:#d3a84c"/><stop offset=".43" style="stop-color:#ffec94"/><stop offset=".57" style="stop-color:#e6be69"/><stop offset=".77" style="stop-color:#ffd87c"/><stop offset=".95" style="stop-color:#b58f3e"/><stop offset="1" style="stop-color:#956d13"/></linearGradient><path d="M85.2 18.2V59.6c0 .1-.1.2-.1.3-.1.3-.2.5-.3.7 0 .1-.1.1-.1.2s-.1.1-.2.2l-.2.2c-.1.1-.3.2-.4.3-.1 0-.1.1-.2.1-.1.1-.3.1-.4.1-.1 0-.1 0-.2.1-.1 0-.2 0-.3.1H81.7c-.2-.1-.5-.2-.9-.3-.5-.2-1.2-.6-1.9-1V5.7c.1.2.3.3.5.5l.1.1c.1.1.2.1.2.2.2.2.4.3.5.5l.6.6.4.4c.1.1.2.3.3.4.2.2.3.4.4.6.1 0 .1 0 .1.1.1.1.2.3.3.5.1.1.2.2.2.3.1.1.2.3.3.5v.1s0 .1.1.1c.1.1.1.2.2.3.1.2.2.4.4.7.1.1.1.3.2.4v.1c.1.1.2.3.2.4v.2c.1.3.2.5.3.8.1.2.1.3.2.5s.2.5.2.7c0 .1.1.2.1.3.1.3.1.5.2.8V17c.3.4.3.8.3 1.2z" style="fill:url(#SVGID_00000168824111269007452170000007019830572303512753_)"/><linearGradient id="SVGID_00000123403202876275876490000007257185524584500361_" x1="78.823" x2="85.243" y1="144.842" y2="144.842" gradientUnits="userSpaceOnUse"><stop offset="0" style="stop-color:#a47a1e"/><stop offset=".23" style="stop-color:#d3a84c"/><stop offset=".43" style="stop-color:#ffec94"/><stop offset=".57" style="stop-color:#e6be69"/><stop offset=".77" style="stop-color:#ffd87c"/><stop offset=".95" style="stop-color:#b58f3e"/><stop offset="1" style="stop-color:#956d13"/></linearGradient><path d="M85.2 118.6V175.2c0 .2 0 .5-.1.7 0 .2-.1.4-.1.6 0 .2-.1.4-.1.6v.1c0 .2-.1.4-.1.6-.1.4-.2.8-.3 1.1 0 .2-.1.3-.2.5s-.2.5-.3.7c-.1.1-.1.3-.2.4v.1l-.3.6c-.1.2-.2.5-.4.7 0 0 0 .1-.1.1-.1.2-.3.4-.4.6-.1.2-.3.4-.4.6 0 .1-.1.1-.1.1-.1.2-.3.4-.5.6l-.1.1-.6.6c-.4.4-.8.7-1.2 1.1-.1.1-.3.2-.4.3-.1.1-.3.2-.4.3v-83c.1.1.2.2.4.3l.3.3.5.5c.2.2.3.4.5.5 0 .1.1.1.1.2.1 0 .1.1.2.2 0 .1.1.1.1.1.1.1.2.2.2.3.1.1.2.2.3.4.1.1.2.2.3.4l.1.1c.1.2.2.3.3.5.2.3.4.7.6 1 .1.2.3.5.4.7.2.3.3.6.4.9.1.2.2.4.3.7 0 .1.1.2.1.3.1.1.1.3.1.4.1.2.1.4.2.5.1.2.1.5.2.7.1.2.1.4.1.6v.1c0 .2.1.4.1.6v.2c.1.3.1.6.1.9 0 .3.1.7.1 1.1 0 .3 0 .6.1.9v1.1c.2.4.2.6.2.8z" style="fill:url(#SVGID_00000123403202876275876490000007257185524584500361_)"/><linearGradient id="SVGID_00000021820442216201325710000001789951421402117818_" x1="65.823" x2="73.823" y1="29.272" y2="29.272" gradientUnits="userSpaceOnUse"><stop offset="0" style="stop-color:#a47a1e"/><stop offset=".23" style="stop-color:#d3a84c"/><stop offset=".43" style="stop-color:#ffec94"/><stop offset=".57" style="stop-color:#e6be69"/><stop offset=".77" style="stop-color:#ffd87c"/><stop offset=".95" style="stop-color:#b58f3e"/><stop offset="1" style="stop-color:#956d13"/></linearGradient><path d="M73.8 2.7v54.8c-.1-.1-.3-.2-.4-.2-.4-.3-.8-.5-1.2-.8-.3-.2-.6-.4-.8-.6-.1 0-.2-.1-.2-.2-.1-.1-.3-.2-.4-.3-.1-.1-.3-.2-.4-.3-1.3-.9-2.5-1.7-3.5-2.4-.2-.1-.4-.3-.6-.4-.1-.1-.2-.2-.4-.3V1h1.3c.4 0 .7.1 1 .1h.3c.3 0 .6.1.9.1.1 0 .2 0 .3.1.2 0 .4.1.6.1.2 0 .3.1.5.1.2.1.4.1.7.2H71.8c0 .3.2.3.3.4.1 0 .1 0 .2.1.2.1.4.1.7.2.1 0 .1 0 .2.1.1 0 .3.1.4.2.1-.1.1 0 .2 0z" style="fill:url(#SVGID_00000021820442216201325710000001789951421402117818_)"/><linearGradient id="SVGID_00000117635957662858998720000012878282936024953525_" x1="65.823" x2="73.823" y1="141.692" y2="141.692" gradientUnits="userSpaceOnUse"><stop offset="0" style="stop-color:#a47a1e"/><stop offset=".23" style="stop-color:#d3a84c"/><stop offset=".43" style="stop-color:#ffec94"/><stop offset=".57" style="stop-color:#e6be69"/><stop offset=".77" style="stop-color:#ffd87c"/><stop offset=".95" style="stop-color:#b58f3e"/><stop offset="1" style="stop-color:#956d13"/></linearGradient><path d="M73.8 99.4V188c0 .2 0 .5-.1.7-.5.2-1 .3-1.6.4-.1 0-.3.1-.4.1-.7.1-1.4.3-2.1.3-.3 0-.6.1-.8.1-.3 0-.6.1-.9.1-.6 0-1.2.1-1.8.1 0-.1-.1-.1-.1-.2-.2-.5-.3-1-.3-1.5V93.7l.7.5.8.6.2.2.6.4 1 .6.7.5 1.8 1.3 1 .7 1.3.9z" style="fill:url(#SVGID_00000117635957662858998720000012878282936024953525_)"/><linearGradient id="SVGID_00000119823824982774782270000007489376452597455488_" x1="52.823" x2="60.823" y1="24.207" y2="24.207" gradientUnits="userSpaceOnUse"><stop offset="0" style="stop-color:#a47a1e"/><stop offset=".23" style="stop-color:#d3a84c"/><stop offset=".43" style="stop-color:#ffec94"/><stop offset=".57" style="stop-color:#e6be69"/><stop offset=".77" style="stop-color:#ffd87c"/><stop offset=".95" style="stop-color:#b58f3e"/><stop offset="1" style="stop-color:#956d13"/></linearGradient><path d="M60.8 1v46.5c-.1-.3-.2-.5-.2-.8 0-.1 0-.2-.1-.3v-.8c0-.4-.1-.8-.1-1.2V25.4c0-.1 0-.3-.1-.4 0-.2-.1-.5-.2-.7 0-.1 0-.1-.1-.2V24c-.1-.1-.1-.3-.2-.4 0-.1-.1-.1-.1-.2s-.1-.2-.1-.2c-.1-.1-.1-.2-.2-.3l-.3-.3-.5-.5c-.1-.1-.2-.1-.3-.2h-.1c-.1-.1-.1-.1-.2-.1-.1-.1-.2-.1-.3-.1-.1-.1-.2-.1-.3-.1-.2-.1-.4-.2-.7-.2H52.9V1h7.9z" style="fill:url(#SVGID_00000119823824982774782270000007489376452597455488_)"/><linearGradient id="SVGID_00000154422465824019092950000005659938373749694631_" x1="52.823" x2="60.823" y1="137.027" y2="137.027" gradientUnits="userSpaceOnUse"><stop offset="0" style="stop-color:#a47a1e"/><stop offset=".23" style="stop-color:#d3a84c"/><stop offset=".43" style="stop-color:#ffec94"/><stop offset=".57" style="stop-color:#e6be69"/><stop offset=".77" style="stop-color:#ffd87c"/><stop offset=".95" style="stop-color:#b58f3e"/><stop offset="1" style="stop-color:#956d13"/></linearGradient><path d="M60.8 90.1V188c0 .5-.1 1-.3 1.5 0 .1-.1.2-.1.2h-7.2c0-.1-.1-.1-.1-.2-.2-.3-.3-.7-.3-1.1v-18.7h3.6c.2 0 .3 0 .4-.1.1 0 .2 0 .2-.1.6-.2 1.2-.4 1.6-.8.2-.2.4-.4.6-.7l.3-.6s0-.1.1-.1c.2-.4.3-.8.4-1.3V126.7c0-.2-.1-.4-.1-.6 0-.2-.1-.3-.1-.5 0-.1-.1-.3-.1-.4 0-.2-.1-.3-.2-.5-.1-.3-.2-.5-.3-.8-.1-.2-.2-.5-.3-.7-.1-.2-.2-.3-.2-.5-.1-.2-.2-.4-.3-.5-.1-.2-.3-.5-.5-.7-.1-.2-.2-.3-.3-.5-.1-.1-.2-.3-.3-.4l-.3-.3c-.1-.1-.2-.3-.4-.4-.2-.2-.4-.4-.6-.7l-.1-.1-.2-.2-.6-.6-.1-.1c-.3-.2-.6-.5-1-.8l-1.2-.8V84.3l1.2.8 1 .7.4.3 1 .7 1.8 1.3.3.2.4.3.2.1.2.1 1 .7.5.6z" style="fill:url(#SVGID_00000154422465824019092950000005659938373749694631_)"/><linearGradient id="SVGID_00000103973372935334895020000002030839862315625648_" x1="39.823" x2="47.823" y1="10.972" y2="10.972" gradientUnits="userSpaceOnUse"><stop offset="0" style="stop-color:#a47a1e"/><stop offset=".23" style="stop-color:#d3a84c"/><stop offset=".43" style="stop-color:#ffec94"/><stop offset=".57" style="stop-color:#e6be69"/><stop offset=".77" style="stop-color:#ffd87c"/><stop offset=".95" style="stop-color:#b58f3e"/><stop offset="1" style="stop-color:#956d13"/></linearGradient><path d="M39.8 1h8v20h-8z" style="fill:url(#SVGID_00000103973372935334895020000002030839862315625648_)"/><linearGradient id="SVGID_00000164513819962518833910000009438752775003334316_" x1="39.823" x2="47.823" y1="93.882" y2="93.882" gradientUnits="userSpaceOnUse"><stop offset="0" style="stop-color:#a47a1e"/><stop offset=".23" style="stop-color:#d3a84c"/><stop offset=".43" style="stop-color:#ffec94"/><stop offset=".57" style="stop-color:#e6be69"/><stop offset=".77" style="stop-color:#ffd87c"/><stop offset=".95" style="stop-color:#b58f3e"/><stop offset="1" style="stop-color:#956d13"/></linearGradient><path d="M47.8 80.7v32.1l-.3-.3-.4-.2-.4-.4-2.1-1.5-1-.6-.3-.3-.8-.6-.1-.1-.9-.6-1.7-1.2V75l1.2.8v.1l.8.5v.1h.1l.1.1.4.3.9.6 3 2.2.3.2.4.3.5.3z" style="fill:url(#SVGID_00000164513819962518833910000009438752775003334316_)"/><linearGradient id="SVGID_00000165226930248605484480000012417847804279107742_" x1="39.823" x2="47.823" y1="179.722" y2="179.722" gradientUnits="userSpaceOnUse"><stop offset="0" style="stop-color:#a47a1e"/><stop offset=".23" style="stop-color:#d3a84c"/><stop offset=".43" style="stop-color:#ffec94"/><stop offset=".57" style="stop-color:#e6be69"/><stop offset=".77" style="stop-color:#ffd87c"/><stop offset=".95" style="stop-color:#b58f3e"/><stop offset="1" style="stop-color:#956d13"/></linearGradient><path d="M47.8 169.7v18.8c0 .4-.2.8-.3 1.1 0 .1 0 .1-.1.2h-7.2c-.2-.4-.3-.8-.3-1.2 0-.2-.1-.4-.1-.5v-18.2h8z" style="fill:url(#SVGID_00000165226930248605484480000012417847804279107742_)"/><linearGradient id="SVGID_00000129905259730038084380000009359653353207569087_" x1="96.048" x2="102.048" y1="174.202" y2="174.202" gradientUnits="userSpaceOnUse"><stop offset="0" style="stop-color:#a47a1e"/><stop offset=".23" style="stop-color:#d3a84c"/><stop offset=".43" style="stop-color:#ffec94"/><stop offset=".57" style="stop-color:#e6be69"/><stop offset=".77" style="stop-color:#ffd87c"/><stop offset=".95" style="stop-color:#b58f3e"/><stop offset="1" style="stop-color:#956d13"/></linearGradient><path d="M102 158.7v31h-6v-9.8c.7-1 1.2-2.1 1.5-3.1 0-.1 0-.2.1-.3 0-.1.1-.3.1-.4.1-.2.1-.5.2-.9.1-.2.1-.5.2-.7 0-.2.1-.4.2-.7.2-.9.5-2 .8-3.3 0-.2.1-.3.1-.5.1-.5.3-1.1.4-1.6.1-.3.1-.6.2-.9.1-.3.2-.6.2-.9 0-.1 0-.2.1-.3v-.2c.3-1.1.5-2.2.8-3.4l.3-1.2c0-.2.1-.5.2-.7.1-.3.2-.7.2-1 0-.2.1-.5.2-.7.2-.2.2-.3.2-.4z" style="fill:url(#SVGID_00000129905259730038084380000009359653353207569087_)"/><linearGradient id="SVGID_00000063630845448492332410000007382437664937710751_" x1="89.848" x2="93.248" y1="186.627" y2="186.627" gradientUnits="userSpaceOnUse"><stop offset="0" style="stop-color:#a47a1e"/><stop offset=".23" style="stop-color:#d3a84c"/><stop offset=".43" style="stop-color:#ffec94"/><stop offset=".57" style="stop-color:#e6be69"/><stop offset=".77" style="stop-color:#ffd87c"/><stop offset=".95" style="stop-color:#b58f3e"/><stop offset="1" style="stop-color:#956d13"/></linearGradient><path d="M93.2 183.5v6.2h-1.6c-1.1 0-1.8-.5-1.8-1.6v-.2c0-.1 0-.1.1-.2 0-.1.1-.1.1-.2.3-.6 1-1.3 1.7-2.2 0-.1.1-.1.1-.2l.2-.2c.5-.5.9-.9 1.2-1.4z" style="fill:url(#SVGID_00000063630845448492332410000007382437664937710751_)"/><linearGradient id="SVGID_00000064341861892598913030000011131404959730214834_" x1="89.348" x2="178.348" y1="129.322" y2="129.322" gradientUnits="userSpaceOnUse"><stop offset="0" style="stop-color:#a47a1e"/><stop offset=".23" style="stop-color:#d3a84c"/><stop offset=".43" style="stop-color:#ffec94"/><stop offset=".57" style="stop-color:#e6be69"/><stop offset=".77" style="stop-color:#ffd87c"/><stop offset=".95" style="stop-color:#b58f3e"/><stop offset="1" style="stop-color:#956d13"/></linearGradient><path d="M177.8 187.9v-.1c-.1-.1-.2-.3-.3-.5-.5-.6-1.2-1.5-2.2-2.7-.1-.1-.2-.2-.3-.4l-.1-.1c-.1-.1-.2-.2-.3-.4 0-.1-.1-.1-.1-.2-.6-.8-1.3-1.7-2-2.7-.1-.1-.2-.3-.2-.4s-.2-.2-.2-.4c0-.1-.1-.1-.1-.2-.1-.2-.3-.5-.4-.7-.3-.5-.6-1.1-.8-1.7-.1-.1-.1-.2-.1-.3-.1-.1-.1-.3-.2-.4-.1-.2-.2-.4-.2-.6-.1-.2-.2-.4-.2-.7-.1-.2-.1-.3-.2-.5 0-.1 0-.1-.1-.2 0-.2-.1-.3-.1-.5 0-.1-.1-.1-.1-.2s-.1-.2-.1-.4v-.1c0-.1-.1-.2-.1-.4s-.1-.3-.1-.5c0-.1-.1-.2-.1-.3v-.2c-.1-.2-.1-.5-.2-.7-.1-.2-.1-.5-.2-.7 0-.1-.1-.3-.1-.4 0-.2-.1-.4-.1-.5-.2-.7-.3-1.4-.5-2.2 0-.1 0-.1-.1-.2 0-.1 0-.2-.1-.2 0-.1 0-.2-.1-.3-.3-1.2-.6-2.4-.9-3.8 0-.1-.1-.3-.1-.4 0-.1 0-.2-.1-.3-.2-.7-.3-1.4-.5-2.1 0-.1-.1-.2-.1-.4v-.1l-.3-1.2v-.2c0-.1-.1-.2-.1-.4 0-.1 0-.2-.1-.2-.1-.3-.1-.6-.2-.8-.1-.2-.1-.5-.2-.7-.4-1.5-.8-3.1-1.2-4.8-.1-.2-.1-.5-.2-.7 0-.1-.1-.2-.1-.4-.1-.5-.2-.9-.3-1.4V148.7c0-.1-.1-.2-.1-.4-.1-.5-.3-1.1-.4-1.6 0-.2-.1-.4-.2-.7-.1-.5-.2-1-.4-1.5-.1-.2-.1-.5-.2-.7l-1.2-4.8c-.1-.2-.1-.5-.2-.7-.1-.5-.2-1-.4-1.5v-.1c0-.2-.1-.4-.1-.6v-.1c-.1-.2-.1-.4-.1-.5 0-.2-.1-.4-.1-.5-.1-.2-.1-.4-.2-.6-.1-.2-.1-.4-.2-.7-.3-1-.5-2-.8-3.1 0-.2-.1-.3-.1-.5-.2-1-.5-2-.7-3v-.1c0-.2-.1-.3-.1-.5-.3-1.4-.7-2.7-1-4.1-.1-.2-.1-.5-.2-.7-.1-.3-.1-.6-.2-.9 0-.2-.1-.4-.1-.5-.2-.7-.3-1.4-.5-2.1 0-.2-.1-.4-.1-.6-.2-.7-.3-1.3-.5-2 0-.2-.1-.4-.1-.6-.1-.2-.1-.5-.2-.7-.1-.3-.2-.7-.2-1-.1-.2-.1-.5-.2-.7-.2-.6-.3-1.2-.4-1.8-.1-.2-.1-.5-.2-.7-.1-.5-.2-1-.4-1.6 0-.2-.1-.4-.1-.5 0-.2-.1-.4-.1-.6 0-.2-.1-.3-.1-.5-.3-1.1-.5-2.2-.8-3.3-.1-.2-.1-.4-.1-.6-.2-.7-.4-1.4-.5-2.1-.1-.2-.1-.5-.2-.7l-.6-2.4c0-.1-.1-.2-.1-.4l-.3-1.2c-.1-.2-.1-.5-.2-.7-.1-.6-.3-1.2-.4-1.7 0-.2-.1-.4-.1-.5 0-.2-.1-.4-.1-.6 0-.2-.1-.5-.2-.7 0-.2-.1-.4-.1-.6 0-.2-.1-.3-.1-.5s-.1-.4-.1-.6c-.1-.6-.3-1.2-.4-1.8 0-.1 0-.2-.1-.3-.3-1.5-.6-2.8-.8-3.9-.1-.2-.1-.5-.1-.7-.2-1.1-.4-1.9-.4-2.3V81c0-.4.1-.8.2-1.3 0-.1 0-.2.1-.3 0-.1.1-.3.1-.4.1-.3.2-.5.3-.8.1-.2.2-.5.3-.7l.9-1.8c.7-1.4 1.4-2.7 1.8-3.6.1-.2.2-.3.2-.5.1-.3.2-.6.2-.8v-.5c0-.1-.1-.2-.1-.3v-.1c-.1-.1-.1-.2-.2-.3-.3-.3-.9-.4-1.8-.4h-30.2c-.9 0-1.4.1-1.8.4-.1 0-.1.1-.2.1 0 0-.1.1-.1.2 0 0 0 .1-.1.1V70.9c0 .2.1.4.2.6.1.2.2.5.3.7.1.2.2.5.4.7.1.3.3.6.5.9.1.3.3.6.4.8.1.2.2.5.4.7.2.4.4.7.5 1.1.2.4.3.7.5 1.1.2.5.4.9.5 1.4.1.2.1.3.2.5.1.3.1.5.2.8v.7c0 .2 0 .5-.2 1 0 .2-.1.3-.1.5-.2.8-.4 1.9-.7 3.2l-.3 1.5c0 .2-.1.5-.2.7l-.3 1.2c-.1.4-.2.9-.3 1.3 0 .1 0 .2-.1.4s-.1.5-.2.7c-.1.3-.1.5-.2.8-.1.3-.1.6-.2.9-.1.2-.1.5-.2.7-.1.6-.3 1.2-.4 1.8 0 .2-.1.3-.1.5s-.1.4-.1.6c-.3 1.3-.6 2.7-1 4.2-.2.8-.4 1.5-.5 2.3 0 .1-.1.3-.1.4-.3 1.1-.5 2.2-.8 3.3-.1.2-.1.4-.2.6-.3 1.2-.6 2.5-.9 3.8-.5 2.2-1.1 4.4-1.6 6.6 0 .1-.1.3-.1.4-.4 1.5-.7 3-1.1 4.5 0 .1 0 .2-.1.2 0 .2-.1.5-.2.7-.1.3-.2.7-.2 1 0 .2-.1.5-.2.7-.4 1.6-.8 3.1-1.1 4.7 0 .1-.1.3-.1.5-.7 2.8-1.4 5.6-2 8.4 0 .2-.1.3-.1.5-.3 1.1-.5 2.2-.8 3.2 0 .2-.1.4-.2.7-.3 1.3-.6 2.6-1 3.9-.1.5-.3 1.1-.4 1.6 0 .1 0 .2-.1.3-.4 1.5-.8 3.1-1.1 4.5-.1.2-.1.3-.1.5-.4 1.5-.7 3-1.1 4.4 0 .1 0 .2-.1.3-.1.2-.1.5-.2.7-.1.3-.2.7-.2 1-.1.2-.1.5-.2.7l-.3 1.2c-.3 1.2-.6 2.3-.8 3.4v.2c0 .1-.1.2-.1.3-.1.3-.1.6-.2.9-.1.3-.2.6-.2.9-.1.6-.3 1.1-.4 1.6 0 .2-.1.3-.1.5-.3 1.2-.6 2.3-.8 3.3-.1.2-.1.5-.2.7-.1.3-.1.5-.2.7-.1.3-.2.6-.2.9 0 .2-.1.3-.1.4 0 .1-.1.2-.1.3-.3 1-.8 2.1-1.5 3.1 0 0 0 .1-.1.1l-.1.1c-.8 1.2-1.7 2.4-2.7 3.4-.4.4-.7.9-1.1 1.3-.1.1-.1.2-.2.2 0 .1-.1.1-.1.2-.7.9-1.4 1.6-1.7 2.2 0 .1-.1.1-.1.2s-.1.2-.1.2v.2c0 1.1.6 1.6 1.8 1.6H118c.8 0 1.3-.1 1.6-.3.1 0 .2-.1.2-.2.1-.1.2-.2.3-.4.1-.2.1-.4.1-.7 0-.1-.2-.5-.6-.9s-.9-1.1-1.4-1.9c-.2-.2-.4-.5-.5-.7-.5-.8-1.1-1.6-1.6-2.5-.1-.2-.2-.4-.4-.7-.1-.2-.2-.4-.3-.7-.1-.1-.1-.3-.2-.4-.1-.2-.2-.4-.2-.6v-.1c-.1-.2-.1-.4-.2-.6 0-.1-.1-.3-.1-.4-.1-.4-.2-.7-.2-1.1V173.4c0-.1 0-.2.1-.2v-.1c0-.1.1-.2.1-.3.1-.1.1-.2.2-.3l.1-.1c.2-.2.4-.3.6-.4.3-.2.6-.4 1-.6l1.6-.9.6-.3.7-.4.2-.1.2-.1 2.5-1.4.8-.5 1-.6.8-.5 1.3-.7 2-1.1 2.8-1.6 3.6-2 .2-.1.5-.3 1.7-1 2.7-1.5h.1l1.1-.6 1.6-.9.9-.5c.9-.5 1.7-.8 2.3-.9.4-.1.7-.2.9-.2.7 0 1.1.3 1.4 1.1 0 .1 0 .1.1.2 0 .1.1.2.1.4.1.2.1.5.2.8 0 .1.1.3.1.4 0 .1.1.2.1.3.3 1.1.7 2.5 1.1 4 0 .2.1.4.2.6.3 1 .5 2.1.8 3.1 0 .1.1.2.1.3.1.2.1.4.2.6.1.2.1.5.2.7.1.6.3 1.2.5 1.8.1.2.1.4.2.6s.1.4.1.6c.1.2.1.4.2.6 0 .2.1.4.1.5.1.2.1.4.2.7.1.6.3 1.1.4 1.7 0 .2.1.3.1.5v.2c0 .2.1.3.1.5l.3 1.5c0 .2.1.5.1.7.1.7.2 1.3.2 1.6v.4c0 .1 0 .2-.1.3-.1.4-.4.8-.7 1.3-.1.2-.2.3-.3.5-1.2 1.6-3 3.4-4 4.7-.2.2-.4.5-.5.7-.2.3-.3.5-.4.7v.2c0 .2 0 .4.1.6.1.2.2.4.4.5.1.1.2.1.3.2 0 0 .1 0 .1.1.5.2 1.1.3 1.6.3h25.9c.7-.1 1.2-.3 1.4-.7.1-.2.1-.5.1-.8.1-.2.1-.2.1-.3zm-33.7-49.5c0 .2-.1.4-.2.5v.1c0 .1-.1.1-.1.2s-.1.1-.2.2-.2.2-.3.2c0 0-.1.1-.2.1-.7.5-1.8 1.1-3.1 1.8-.7.4-1.5.9-2.3 1.3-.2.1-.3.2-.5.3l-.6.3c-.4.2-.8.4-1.1.6h-.1c-.1.1-.2.1-.3.2l-.2.2c-1 .6-2 1.1-3.1 1.7-.2.1-.3.2-.5.3l-.6.3c-.8.4-1.5.8-2.2 1.2-.5.2-.9.5-1.3.7-.5.2-.9.5-1.3.7-.7.4-1.3.7-1.9 1-.4.2-.8.5-1.2.7-.1.1-.2.1-.3.2-.4.2-.8.4-1.1.6-.3.2-.6.3-.8.3-.3 0-.5-.3-.5-.8l.1-.3.1-.6.2-1.1.1-.7.5-2.1.1-.4.6-2.8.2-.7.5-2.1.2-1 .2-.7.5-2.2v-.1l.1-.3v-.1l.4-1.9.1-.5.7-3 .1-.7 1-4.6.2-.7.2-1 .2-.7 1-4.7.2-.7.6-2.6.1-.6.2-1.1.1-.6 1.2-5.3.2-.7.7-3.1.2-.7.5-2.3V100.3l1-4.3.2-.7s.3-1.1 1.1-1.1c1 0 1.3 1.1 1.3 1.1l.1.7.9 4.2.1.4.5 2.2.2.7.7 3v.1l.1.7.6 2.7.1.5.4 2 .2.7.2 1 .2.7.5 2.5.2.7.3 1.2.5 2.4.1.5.2.8.1.5.2 1.2.1.5 1 4.7.1.7.6 2.9.2.7.4 1.7v.1l.1.5v.4c.1.3.2.7.2.9V138.4z" style="fill:none;stroke:url(#SVGID_00000064341861892598913030000011131404959730214834_);stroke-miterlimit:10"/><linearGradient id="SVGID_00000037662052700789121300000012457838952054470818_" x1="116.408" x2="119.648" y1="73.162" y2="73.162" gradientUnits="userSpaceOnUse"><stop offset="0" style="stop-color:#a47a1e"/><stop offset=".23" style="stop-color:#d3a84c"/><stop offset=".43" style="stop-color:#ffec94"/><stop offset=".57" style="stop-color:#e6be69"/><stop offset=".77" style="stop-color:#ffd87c"/><stop offset=".95" style="stop-color:#b58f3e"/><stop offset="1" style="stop-color:#956d13"/></linearGradient><path d="M119.6 68.9v8.5c-.2-.3-.3-.7-.5-1.1-.2-.4-.3-.7-.5-1.1-.1-.2-.2-.5-.4-.7-.2-.3-.3-.6-.4-.8-.2-.3-.3-.6-.5-.9-.1-.2-.3-.5-.4-.7-.1-.3-.2-.5-.3-.7-.1-.2-.2-.4-.2-.6v-.9s0-.1.1-.1c0-.1.1-.1.1-.2s.1-.1.2-.1c.3-.3.9-.4 1.8-.4h1z" style="fill:url(#SVGID_00000037662052700789121300000012457838952054470818_)"/><linearGradient id="SVGID_00000137826984139627084620000012155758945556401045_" x1="113.648" x2="119.648" y1="137.602" y2="137.602" gradientUnits="userSpaceOnUse"><stop offset="0" style="stop-color:#a47a1e"/><stop offset=".23" style="stop-color:#d3a84c"/><stop offset=".43" style="stop-color:#ffec94"/><stop offset=".57" style="stop-color:#e6be69"/><stop offset=".77" style="stop-color:#ffd87c"/><stop offset=".95" style="stop-color:#b58f3e"/><stop offset="1" style="stop-color:#956d13"/></linearGradient><path d="M119.6 85.5v84.3l-.2.1-.7.4-.6.3-1.6.9c-.4.2-.7.4-1 .6-.2.1-.4.3-.6.4l-.1.1c-.1.1-.2.2-.2.3-.1.1-.1.2-.1.3v.1c0 .1-.1.2-.1.2v4.2c0 .4.1.7.2 1.1 0 .1.1.3.1.4.1.2.1.4.2.6v.1c.1.2.2.4.2.6.1.1.1.3.2.4.1.2.2.4.3.7.1.2.2.5.4.7.5.9 1.1 1.8 1.6 2.5.2.3.4.5.5.7.6.8 1.1 1.4 1.4 1.9v2.2c-.3.2-.9.3-1.6.3h-4.4v-78.6c.3-1.3.6-2.5.9-3.8 0-.2.1-.4.2-.6.3-1.1.5-2.2.8-3.3 0-.1.1-.3.1-.4.2-.8.4-1.5.5-2.3.3-1.5.7-2.9 1-4.2 0-.2.1-.4.1-.6 0-.2.1-.3.1-.5.1-.6.3-1.2.4-1.8.1-.2.1-.5.2-.7.1-.3.1-.6.2-.9.1-.3.1-.6.2-.8 0-.2.1-.5.2-.7 0-.1 0-.2.1-.4.1-.5.2-.9.3-1.3s.2-.9.3-1.2c.1-.2.1-.5.2-.7.1-.7.2-1.2.3-1.6z" style="fill:url(#SVGID_00000137826984139627084620000012155758945556401045_)"/><linearGradient id="SVGID_00000093173512108008390030000010065450671196900027_" x1="104.848" x2="110.848" y1="156.227" y2="156.227" gradientUnits="userSpaceOnUse"><stop offset="0" style="stop-color:#a47a1e"/><stop offset=".23" style="stop-color:#d3a84c"/><stop offset=".43" style="stop-color:#ffec94"/><stop offset=".57" style="stop-color:#e6be69"/><stop offset=".77" style="stop-color:#ffd87c"/><stop offset=".95" style="stop-color:#b58f3e"/><stop offset="1" style="stop-color:#956d13"/></linearGradient><path d="M110.8 122.7v67h-6v-42.4c.3-1.3.6-2.6 1-3.9.1-.2.1-.5.2-.7.3-1.1.5-2.2.8-3.2 0-.2.1-.3.1-.5.7-2.8 1.4-5.6 2-8.4 0-.1.1-.3.1-.5.4-1.6.8-3.1 1.1-4.7.1-.2.1-.5.2-.7.1-.3.2-.7.2-1 .1-.2.1-.5.2-.7.1-.1.1-.2.1-.3z" style="fill:url(#SVGID_00000093173512108008390030000010065450671196900027_)"/><linearGradient id="SVGID_00000093859684422701259100000000926192052281299610_" x1="140.048" x2="146.048" y1="113.642" y2="113.642" gradientUnits="userSpaceOnUse"><stop offset="0" style="stop-color:#a47a1e"/><stop offset=".23" style="stop-color:#d3a84c"/><stop offset=".43" style="stop-color:#ffec94"/><stop offset=".57" style="stop-color:#e6be69"/><stop offset=".77" style="stop-color:#ffd87c"/><stop offset=".95" style="stop-color:#b58f3e"/><stop offset="1" style="stop-color:#956d13"/></linearGradient><path d="M146 68.9v86.4c-.6.2-1.3.5-2.3.9l-.9.5-1.6.9-1.1.6v-16.9c1.3-.7 2.4-1.4 3.1-1.8.1 0 .1-.1.2-.1.1-.1.2-.1.3-.2.1 0 .1-.1.2-.2.1 0 .1-.1.1-.2v-.1c.1-.2.2-.3.2-.5v-.5c0-.3-.1-.6-.2-.9v-.4l-.1-.5v-.1l-.4-1.7-.2-.7-.6-2.9-.1-.7-1-4.7-.1-.5-.2-1.2-.1-.5-.2-.8-.1-.5-.5-2.4V68.9h5.6z" style="fill:url(#SVGID_00000093859684422701259100000000926192052281299610_)"/><linearGradient id="SVGID_00000068647924199485026870000016903953620861121672_" x1="131.248" x2="137.248" y1="87.742" y2="87.742" gradientUnits="userSpaceOnUse"><stop offset="0" style="stop-color:#a47a1e"/><stop offset=".23" style="stop-color:#d3a84c"/><stop offset=".43" style="stop-color:#ffec94"/><stop offset=".57" style="stop-color:#e6be69"/><stop offset=".77" style="stop-color:#ffd87c"/><stop offset=".95" style="stop-color:#b58f3e"/><stop offset="1" style="stop-color:#956d13"/></linearGradient><path d="M137.2 68.9v37.6l-.7-3-.2-.7-.5-2.2-.1-.4-.9-4.2-.1-.7s-.3-1.1-1.3-1.1c-.8 0-1.1 1.1-1.1 1.1l-.2.7-1 4.3V100.6 68.9h6.1z" style="fill:url(#SVGID_00000068647924199485026870000016903953620861121672_)"/><linearGradient id="SVGID_00000040570620685008692200000004197892776004525223_" x1="131.248" x2="137.248" y1="153.157" y2="153.157" gradientUnits="userSpaceOnUse"><stop offset="0" style="stop-color:#a47a1e"/><stop offset=".23" style="stop-color:#d3a84c"/><stop offset=".43" style="stop-color:#ffec94"/><stop offset=".57" style="stop-color:#e6be69"/><stop offset=".77" style="stop-color:#ffd87c"/><stop offset=".95" style="stop-color:#b58f3e"/><stop offset="1" style="stop-color:#956d13"/></linearGradient><path d="M137.2 143v16.9l-1.7 1-.5.3-.2.1-3.6 2v-16.9c.2-.1.3-.2.5-.3 1-.6 2.1-1.1 3.1-1.7.1 0 .2-.1.2-.2.1 0 .2-.1.3-.2h.1c.4-.2.8-.4 1.1-.6.4-.2.6-.3.7-.4z" style="fill:url(#SVGID_00000040570620685008692200000004197892776004525223_)"/><linearGradient id="SVGID_00000026868285948568848720000008562827841869691041_" x1="122.448" x2="128.448" y1="104.757" y2="104.757" gradientUnits="userSpaceOnUse"><stop offset="0" style="stop-color:#a47a1e"/><stop offset=".23" style="stop-color:#d3a84c"/><stop offset=".43" style="stop-color:#ffec94"/><stop offset=".57" style="stop-color:#e6be69"/><stop offset=".77" style="stop-color:#ffd87c"/><stop offset=".95" style="stop-color:#b58f3e"/><stop offset="1" style="stop-color:#956d13"/></linearGradient><path d="M128.4 68.9v44.4l-.2 1.1-.1.6-.6 2.6-.1.7-1.1 4.7-.1.7-.3 1-.1.7-1 4.6-.2.7-.6 3-.1.5-.5 1.9v.1l-.1.3v.1l-.5 2.3-.1.7-.3 1V68.9z" style="fill:url(#SVGID_00000026868285948568848720000008562827841869691041_)"/><linearGradient id="SVGID_00000152260291634593330990000009141892317948966564_" x1="122.448" x2="128.448" y1="158.037" y2="158.037" gradientUnits="userSpaceOnUse"><stop offset="0" style="stop-color:#a47a1e"/><stop offset=".23" style="stop-color:#d3a84c"/><stop offset=".43" style="stop-color:#ffec94"/><stop offset=".57" style="stop-color:#e6be69"/><stop offset=".77" style="stop-color:#ffd87c"/><stop offset=".95" style="stop-color:#b58f3e"/><stop offset="1" style="stop-color:#956d13"/></linearGradient><path d="M128.4 147.9v17l-2 1.1-1.3.7-.8.5-1 .6-.8.5v-17c.1-.1.2-.1.3-.2.4-.2.8-.4 1.2-.7.6-.3 1.2-.7 1.9-1 .4-.2.8-.5 1.3-.7.4-.3.8-.6 1.2-.8z" style="fill:url(#SVGID_00000152260291634593330990000009141892317948966564_)"/><linearGradient id="SVGID_00000072260336022175223890000010929551689854129563_" x1="148.848" x2="151.128" y1="72.152" y2="72.152" gradientUnits="userSpaceOnUse"><stop offset="0" style="stop-color:#a47a1e"/><stop offset=".23" style="stop-color:#d3a84c"/><stop offset=".43" style="stop-color:#ffec94"/><stop offset=".57" style="stop-color:#e6be69"/><stop offset=".77" style="stop-color:#ffd87c"/><stop offset=".95" style="stop-color:#b58f3e"/><stop offset="1" style="stop-color:#956d13"/></linearGradient><path d="M151.1 70.5c0 .2-.1.5-.2.8-.1.1-.1.3-.2.5-.4.9-1.2 2.2-1.8 3.6v-6.5c.9 0 1.5.1 1.8.4.1.1.2.2.2.3v.1c0 .1.1.2.1.3.1.2.1.3.1.5z" style="fill:url(#SVGID_00000072260336022175223890000010929551689854129563_)"/><linearGradient id="SVGID_00000169538315065221678040000015268406681451031734_" x1="148.848" x2="154.848" y1="139.947" y2="139.947" gradientUnits="userSpaceOnUse"><stop offset="0" style="stop-color:#a47a1e"/><stop offset=".23" style="stop-color:#d3a84c"/><stop offset=".43" style="stop-color:#ffec94"/><stop offset=".57" style="stop-color:#e6be69"/><stop offset=".77" style="stop-color:#ffd87c"/><stop offset=".95" style="stop-color:#b58f3e"/><stop offset="1" style="stop-color:#956d13"/></linearGradient><path d="M154.8 115.6v74.1h-4.4c-.6 0-1.2-.1-1.6-.3v-2.9c1.1-1.3 2.9-3.1 4-4.7.1-.2.2-.3.3-.5.3-.5.5-.9.7-1.3 0-.1.1-.2.1-.3v-.4c0-.3-.1-.9-.2-1.6 0-.2-.1-.4-.1-.7l-.3-1.5c0-.2-.1-.3-.1-.5v-.2c0-.2-.1-.3-.1-.5-.1-.5-.3-1.1-.4-1.7 0-.2-.1-.4-.2-.7 0-.2-.1-.4-.1-.5 0-.2-.1-.4-.2-.6 0-.2-.1-.4-.1-.6s-.1-.4-.2-.6c-.1-.6-.3-1.2-.5-1.8-.1-.2-.1-.5-.2-.7 0-.2-.1-.4-.2-.6 0-.1 0-.2-.1-.3-.3-1.1-.6-2.1-.8-3.1-.1-.2-.1-.4-.2-.6-.4-1.5-.8-2.9-1.1-4 0-.1 0-.2-.1-.3v-68c0 .2.1.4.1.6 0 .1.1.3.1.5s.1.4.1.6c.1.2.1.5.2.7 0 .2.1.4.1.6 0 .2.1.4.1.5.1.6.3 1.1.4 1.7.1.2.1.5.2.7l.3 1.2c0 .1.1.2.1.4l.6 2.4c0 .2.1.5.2.7.2.7.3 1.4.5 2.1 0 .2.1.4.1.6.2 1.1.5 2.2.8 3.3.1.2.1.3.1.5s.1.4.1.6c0 .2.1.4.1.5.1.5.2 1.1.4 1.6.1.2.1.5.2.7.1.6.3 1.2.4 1.8 0 .2.1.5.2.7.1.3.2.7.2 1 .1.2.1.5.2.7.2.3.3.5.3.7z" style="fill:url(#SVGID_00000169538315065221678040000015268406681451031734_)"/><linearGradient id="SVGID_00000092440490870487157300000001625766126797657774_" x1="157.648" x2="163.648" y1="158.407" y2="158.407" gradientUnits="userSpaceOnUse"><stop offset="0" style="stop-color:#a47a1e"/><stop offset=".23" style="stop-color:#d3a84c"/><stop offset=".43" style="stop-color:#ffec94"/><stop offset=".57" style="stop-color:#e6be69"/><stop offset=".77" style="stop-color:#ffd87c"/><stop offset=".95" style="stop-color:#b58f3e"/><stop offset="1" style="stop-color:#956d13"/></linearGradient><path d="M163.6 151.5v38.3h-6v-62.6c.2 1 .5 2 .7 3 0 .2.1.3.1.5.2 1 .5 2 .8 3.1 0 .2.1.4.2.7 0 .2.1.4.2.6 0 .2.1.4.1.5 0 .2.1.4.1.5v.1c0 .2.1.4.1.6v.1c.1.5.2 1 .4 1.5.1.2.1.5.2.7l1.2 4.8c.1.2.1.5.2.7.1.5.2 1 .4 1.5.1.2.1.5.2.7.1.5.3 1.1.4 1.6 0 .1.1.2.1.4V149.1c.1.5.2.9.3 1.4 0 .1.1.2.1.4.1.1.2.3.2.6z" style="fill:url(#SVGID_00000092440490870487157300000001625766126797657774_)"/><linearGradient id="SVGID_00000150070298144456321180000003977081051327262081_" x1="166.448" x2="172.448" y1="176.222" y2="176.222" gradientUnits="userSpaceOnUse"><stop offset="0" style="stop-color:#a47a1e"/><stop offset=".23" style="stop-color:#d3a84c"/><stop offset=".43" style="stop-color:#ffec94"/><stop offset=".57" style="stop-color:#e6be69"/><stop offset=".77" style="stop-color:#ffd87c"/><stop offset=".95" style="stop-color:#b58f3e"/><stop offset="1" style="stop-color:#956d13"/></linearGradient><path d="M172.4 180.9v8.8h-6v-27c0 .1.1.3.1.4.3 1.4.7 2.6.9 3.8 0 .1.1.2.1.3 0 .1 0 .2.1.2 0 .1 0 .2.1.2.2.8.4 1.5.5 2.2 0 .2.1.4.1.5 0 .1.1.3.1.4.1.3.1.5.2.7.1.3.1.5.2.7v.2c0 .1 0 .2.1.3.1.2.1.4.1.5.1.2.1.3.1.4v.1c0 .1.1.2.1.4 0 .1 0 .1.1.2 0 .2.1.3.1.5 0 .1 0 .1.1.2.1.2.1.3.2.5s.2.5.2.7c.1.2.2.4.2.6.1.1.1.3.2.4 0 .1.1.2.1.3.3.6.5 1.1.8 1.7.1.2.3.5.4.7 0 .1.1.1.1.2.1.1.2.2.2.4s.5.4.5.5z" style="fill:url(#SVGID_00000150070298144456321180000003977081051327262081_)"/><linearGradient id="SVGID_00000017473999308715761780000011052398337999507626_" x1="175.248" x2="177.848" y1="187.157" y2="187.157" gradientUnits="userSpaceOnUse"><stop offset="0" style="stop-color:#a47a1e"/><stop offset=".23" style="stop-color:#d3a84c"/><stop offset=".43" style="stop-color:#ffec94"/><stop offset=".57" style="stop-color:#e6be69"/><stop offset=".77" style="stop-color:#ffd87c"/><stop offset=".95" style="stop-color:#b58f3e"/><stop offset="1" style="stop-color:#956d13"/></linearGradient><path d="M177.8 188.1c0 .3 0 .6-.1.8-.2.5-.6.7-1.4.7h-1.1v-5.1c1 1.1 1.8 2 2.2 2.7.1.2.2.3.3.5v.1c.1.2.1.2.1.3z" style="fill:url(#SVGID_00000017473999308715761780000011052398337999507626_)"/><linearGradient id="SVGID_00000160158965643053980690000014524719700449258409_" x1="185.417" x2="292.017" y1="129.322" y2="129.322" gradientUnits="userSpaceOnUse"><stop offset="0" style="stop-color:#a47a1e"/><stop offset=".23" style="stop-color:#d3a84c"/><stop offset=".43" style="stop-color:#ffec94"/><stop offset=".57" style="stop-color:#e6be69"/><stop offset=".77" style="stop-color:#ffd87c"/><stop offset=".95" style="stop-color:#b58f3e"/><stop offset="1" style="stop-color:#956d13"/></linearGradient><path d="M284.8 80.4c.1-.2.1-.4.2-.6.2-.7.6-1.4 1.1-2.1.2-.3.4-.6.6-.8.2-.2.4-.5.5-.7.2-.2.4-.5.5-.7.3-.4.6-.7.9-1 .3-.3.6-.6.8-1l.3-.3c.2-.2.3-.4.5-.6l.1-.1c.4-.4.7-.8.9-1.2 0-.1.1-.1.1-.2s0-.1.1-.2c0-.1.1-.2.1-.3v-.4c0-.1 0-.2-.1-.3 0-.1 0-.2-.1-.2 0 0 0-.1-.1-.1v-.1c-.1-.1-.2-.2-.4-.3 0 0-.1 0-.1-.1-.1 0-.1-.1-.2-.1h-.1c-.2-.1-.4-.1-.7-.1H269c-.3.1-.7.2-1.1.3-.5.2-1 .5-1.4.9l-.3.3-.1.1-.2.2-.1.1c-.4.5-.7 1-.9 1.7-.1.2-.2.5-.2.7-.1.2-.1.3-.2.5-.1.4-.3 1-.5 1.7-.1.2-.1.5-.2.8 0 .1 0 .1-.1.2 0 .1-.1.2-.1.3v.1c-.1.2-.1.4-.2.7-.1.2-.1.5-.2.7-.2.5-.3 1-.5 1.5-.1.2-.1.5-.2.7-.2.7-.4 1.3-.6 2 0 .2-.1.4-.2.5-.2.7-.4 1.3-.6 2 0 .1-.1.3-.1.5-.1.4-.3.9-.4 1.3 0 .1 0 .1-.1.2-.1.2-.1.4-.2.5-.3 1.1-.7 2.2-1 3.3l-.2.6c-.1.4-.2.7-.3 1.1 0 .1 0 .2-.1.2 0 .1 0 .2-.1.2-.2.5-.3 1.1-.5 1.6v.1c0 .1-.1.3-.1.4-.1.3-.2.6-.3 1-.1.2-.2.5-.2.7-.2.7-.5 1.5-.7 2.2-.1.2-.1.4-.2.7 0 .1 0 .1-.1.2 0 .1-.1.3-.1.4 0 .1 0 .2-.1.2 0 .1-.1.2-.1.3-.3 1-.6 2-.9 3.1v.1c-.3.9-.5 1.8-.8 2.7-.1.2-.1.5-.2.7-.2.5-.3 1-.5 1.5-.1.2-.1.5-.2.7-.1.2-.1.4-.2.6-.1.2-.1.4-.2.6 0 .2-.1.3-.1.5 0 .1 0 .2-.1.3v.1c0 .1-.1.2-.1.3-.1.4-.3.8-.4 1.2 0 .2-.1.3-.1.5-.1.2-.1.4-.2.6 0 .1-.1.2-.1.3 0 .1-.1.2-.1.3-.4 1.4-.9 2.8-1.3 4.2-.1.2-.2.5-.2.7 0 .2-.1.3-.2.5 0 .1 0 .2-.1.2v.1c-.1.2-.1.5-.2.7-.1.4-.3.9-.4 1.3-.3.9-.5 1.8-.8 2.7-.1.2-.1.4-.2.7l-.9 3c0 .2-.1.4-.2.6-.2.8-.5 1.5-.7 2.2-.1.3-.2.6-.3.8-.1.2-.1.4-.2.6-.1.2-.1.4-.2.6-.1.2-.1.4-.2.6 0 .2-.1.4-.2.5v.1c0 .2-.1.4-.2.5v.1c-.1.2-.1.4-.2.6 0 0 0 .1-.1.1 0 .1-.1.3-.1.4 0 .1 0 .1-.1.2 0 .1 0 .1-.1.2-.1.2-.1.5-.2.7v.1c-.3.8-.5 1.7-.8 2.5-.2.5-.3 1-.5 1.5-.1.2-.1.4-.2.6-.1.2-.1.5-.2.7-.1.2-.2.5-.2.7v.2c-.1.2-.1.4-.2.6-.1.2-.1.5-.2.7-.1.2-.1.4-.2.6-.1.2-.1.4-.2.6 0 .2-.1.3-.1.5 0 .1-.1.2-.1.3v.1c0 .1-.1.2-.1.3 0 .1-.1.3-.1.4l-.3.9c-.1.2-.1.3-.1.5-.1.2-.1.3-.2.5v.1c-.1.2-.1.4-.2.6-.2.7-.4 1.4-.6 1.9-.1.2-.1.4-.2.6-.1.2-.1.4-.2.6-.1.2-.1.5-.2.6v.2c0 .1 0 .1-.1.2v.2s0 .1-.1.2c0 0 0 .1-.1.1 0 .1-.1.1-.1.2-.1.1-.2.3-.4.3h-.2c-.1-.1-.3-.2-.4-.3 0-.1-.1-.1-.1-.2 0 0 0-.1-.1-.1-.1-.1-.1-.2-.1-.2v-.1c0-.2-.2-.6-.4-1.3-.1-.2-.1-.3-.2-.5 0-.2-.1-.3-.2-.5v-.2c-.2-.5-.3-1.1-.5-1.7-.1-.2-.1-.4-.2-.7 0-.1-.1-.3-.1-.5-.1-.2-.1-.4-.2-.6-.1-.3-.2-.5-.3-.8 0-.1-.1-.2-.1-.3 0-.1-.1-.3-.1-.4v-.2c-.1-.2-.1-.4-.2-.6-.1-.2-.1-.5-.2-.7v-.1c0-.1-.1-.2-.1-.4-.1-.2-.1-.5-.2-.7 0-.1-.1-.3-.1-.4-.1-.2-.1-.3-.2-.5s-.1-.4-.2-.5c0-.1-.1-.2-.1-.3 0-.1-.1-.2-.1-.3v-.1c-.3-1.1-.7-2.3-1.1-3.6v-.1c-.1-.4-.2-.7-.3-1.1-.1-.2-.1-.5-.2-.7v-.2c0-.1 0-.1-.1-.2 0-.2-.1-.4-.2-.5 0-.1 0-.1-.1-.2 0-.2-.1-.3-.2-.5v-.1c-.1-.2-.1-.4-.2-.6v-.1c-.1-.2-.1-.5-.2-.7 0-.1 0-.1-.1-.2-.1-.2-.2-.5-.2-.7-.1-.2-.1-.5-.2-.7-.1-.4-.3-.8-.4-1.3 0-.1 0-.1-.1-.2-.1-.4-.2-.8-.4-1.2 0-.1-.1-.2-.1-.3-.1-.2-.1-.4-.2-.6v-.1c-.5-1.5-.9-3-1.4-4.5 0-.1 0-.1-.1-.2 0-.1-.1-.2-.1-.4v-.1c-.1-.4-.2-.8-.4-1.2 0-.1-.1-.2-.1-.3-.1-.3-.2-.5-.2-.8 0-.2-.1-.3-.1-.5v-.1c-.1-.2-.1-.4-.2-.6-.1-.2-.1-.4-.2-.6v-.1l-.3-.9c-.1-.5-.3-.9-.4-1.4-.1-.2-.2-.5-.2-.7-.2-.5-.3-1-.5-1.5-.1-.2-.2-.5-.2-.7 0-.1-.1-.2-.1-.3-.1-.2-.2-.5-.2-.7 0-.2-.1-.3-.1-.4-.1-.2-.1-.4-.2-.5-.1-.2-.1-.5-.2-.7-.1-.2-.1-.4-.2-.6 0-.1-.1-.3-.1-.4 0-.1 0-.2-.1-.3-.1-.2-.1-.4-.2-.6-.1-.2-.1-.4-.2-.6-.2-.6-.3-1.1-.5-1.7-.1-.2-.1-.5-.2-.7 0-.1-.1-.2-.1-.3-.1-.2-.1-.5-.2-.7 0-.1-.1-.2-.1-.3-.1-.2-.1-.4-.2-.6-.1-.4-.3-.9-.4-1.3-.1-.2-.1-.5-.2-.7 0-.1 0-.2-.1-.2-.1-.2-.2-.5-.2-.7-.1-.2-.1-.3-.1-.5v-.1c0-.1-.1-.2-.1-.3-.1-.2-.1-.4-.2-.7-.1-.2-.1-.4-.2-.6 0-.2-.1-.3-.2-.5-.4-1.4-.9-2.8-1.3-4.1-.1-.2-.2-.5-.2-.7v-.1c-.1-.2-.1-.4-.2-.7-.1-.3-.2-.6-.3-.8-.1-.2-.2-.5-.2-.7-.1-.2-.1-.4-.2-.6 0-.1-.1-.3-.1-.4v-.1c-.1-.2-.1-.4-.2-.6-.1-.2-.1-.5-.2-.7l-.9-3v-.1c0-.2-.1-.3-.2-.5v-.1c-.3-1-.6-2.1-.9-3v-.1c0-.1-.1-.2-.1-.3-.1-.4-.2-.8-.4-1.2 0-.1-.1-.1-.1-.2 0 0 0-.1-.1-.2-.3-.9-.5-1.8-.8-2.5 0-.2-.1-.4-.2-.6v-.1c0-.2-.1-.3-.1-.5 0-.1-.1-.3-.1-.4-.1-.2-.1-.3-.2-.5-.2-.9-.5-1.6-.6-2.1 0-.1-.1-.3-.1-.4v-.1c0-.1-.1-.3-.1-.4 0-.1-.1-.3-.1-.4-.1-.2-.2-.5-.3-.7-.1-.3-.3-.5-.4-.7-.1-.1-.1-.2-.2-.3-.1-.2-.2-.3-.3-.4l-.3-.3c-.1-.1-.2-.1-.2-.2-.1-.1-.2-.2-.3-.2-.1-.1-.3-.2-.4-.3-.1 0-.2-.1-.2-.1s-.1 0-.1-.1h-.1c-.6-.2-1.3-.4-2-.4h-19.8c-.5 0-.9.1-1.2.3 0 0-.1 0-.1.1-.2.2-.3.4-.4.6-.1.1-.1.3-.1.5v.1c0 .2 0 .3.1.5 0 .1.1.3.2.4.1.1.2.3.3.4.4.5.8 1.1 1.4 1.7l.1.1c.2.2.4.4.6.7v.1c.5.5 1 1.1 1.5 1.7l.9 1.2c.2.2.3.5.5.7.2.4.5.8.7 1.1.1.2.2.4.3.7.1.2.1.4.2.6 0 .1.1.3.1.5s.1.4.1.6v95.9c0 .2 0 .3-.1.5 0 .2-.1.4-.1.6 0 .1-.1.2-.1.3-.1.2-.1.4-.2.5v.1l-.3.6c-.1.1-.2.3-.2.4 0 .1-.1.2-.1.3-.1.1-.2.2-.2.3-.1.1-.2.2-.3.4-.1.2-.2.3-.4.5-.2.3-.4.5-.6.8-.2.3-.5.6-.8.9l-.1.1-.3.3-.3.3c-1 1.1-1.9 2.1-2.4 2.9 0 .1-.1.1-.1.2-.1.1-.1.3-.1.4v.3c0 .3.1.6.2.8.2.4.6.6 1.1.7H214.5c.1 0 .2 0 .3-.1h.1c.1 0 .1 0 .2-.1 0 0 .1 0 .1-.1l.3-.3.1-.1c.1-.1.1-.3.2-.5V187.9c0-.1 0-.1-.1-.2v-.2s0-.1-.1-.2-.1-.2-.2-.4v-.1c-.1-.1-.2-.3-.3-.5-.1-.1-.2-.3-.3-.4-.4-.4-.8-.9-1.3-1.4-.1-.1-.1-.2-.2-.2-.1-.2-.3-.3-.4-.5l-.2-.2c-.4-.5-.9-1-1.2-1.5-.2-.2-.4-.5-.5-.7 0-.1-.1-.1-.1-.2 0 0 0-.1-.1-.1-.1-.1-.1-.2-.2-.3-.1-.1-.2-.3-.2-.4-.1-.1-.1-.2-.2-.3 0 0 0-.1-.1-.1-.1-.2-.2-.3-.2-.5-.1-.2-.2-.5-.3-.7-.1-.2-.1-.4-.2-.6-.1-.2-.1-.5-.1-.7v-60.8c0-.6 0-1.2.2-1.6.1-.2.2-.3.3-.5.1-.1.3-.2.5-.2s.5.1.6.2h.1l.1.1.1.1.1.1c0 .1.1.1.1.2.1.2.2.5.3.9l.2.7v.1l.2.7v.1l.9 2.9.2.7.3 1.1.2.7.3 1v.1l.2.6v.1l1.4 4.5.2.7.4 1.2.2.6.3 1.1v.1l.1.2.1.3.5 1.7v.1l.2.5v.1l.2.5.1.2.2.5v.2l.1.3.1.4.2.7.1.3.2.6.2.8.2.6.3.9.2.6.1.4.1.2.1.4.2.5.2.7.1.3.2.7.2.5.2.7.2.6.1.2.2.5v.2l.1.3.2.5.2.7.1.3.2.7.5 1.5.2.6.6 2.1.2.5.1.4.1.5.1.1.2.6.8 2.5.1.4v.1l.3 1 .1.4.9 3v.1l.2.5v.1l.1.4.2.7.1.5.2.7.2.6.2.7.2.6.2.5.2.6.2.7.2.8.2.7v.2l.2.5V173.8l.1.4.5 1.5.2.7.1.2c.1.1.1.2.1.3.1.2.1.4.1.7v1.1c0 .3 0 .7-.1 1V180c0 .1 0 .3-.1.4 0 .2-.1.3-.1.5s-.1.4-.2.7l-.3.9c-.1.2-.2.5-.3.7V183.5c0 .1-.1.3-.2.4v.1c-.2.6-.5 1.2-.7 1.8-.1.2-.2.5-.2.7 0 .2-.1.3-.1.4 0 .1-.1.3-.1.4V188.4c0 .1.1.2.1.2s0 .1.1.1l.1.1.1.1.1.1s.1 0 .1.1c.1.1.3.1.5.1H249.4c.4 0 .7 0 .9-.2.5-.2.8-.7.8-1.4v-.2c0-.3-.1-.7-.2-1.1 0-.1-.1-.2-.1-.4v-.1c0-.1 0-.1-.1-.2l-.3-.9c-.3-.7-.6-1.5-.9-2.3 0-.1-.1-.2-.1-.3-.4-1.1-.6-2.3-.6-3.5v-1c0-.4.1-.8.3-1.3l.1-.3.1-.4.1-.4.2-.6.2-.7.2-.5v-.2l.2-.5.1-.2.1-.3.4-1.3.1-.2.2-.7.2-.7.1-.4.2-.6.7-2.2v-.2l.1-.2.1-.4.4-1.3.8-2.5.2-.7.6-2 .2-.6.5-1.5.1-.4.2-.7.1-.3.2-.7 1-3.2.1-.3 1-3.4.1-.3v-.1l.2-.7.5-1.7.1-.2v-.1l.1-.3.4-1.4.2-.6.2-.7.1-.4.6-2 .2-.5.2-.8.1-.4.1-.2.1-.5.2-.6.3-1.2V134.7l.2-.7.2-.7 1-3.3.2-.6 1.2-3.8.2-.7.6-2 .2-.6.5-1.5.1-.4.3-1 .2-.7.7-2.1.3-1v-.1c0-.1.1-.2.1-.3.4-1 .7-1.5 1.4-1.5.3 0 .5.1.6.3.2.3.3.7.3 1.2v61.3c0 .4-.1.9-.2 1.3 0 .2-.1.4-.2.6v.1c-.1.2-.2.5-.3.7-.1.3-.3.5-.4.8-.1.1-.2.3-.2.4-.4.6-.8 1.1-1.2 1.7-.1.1-.2.2-.2.3 0 0-.1.1-.1.2-.1.1-.1.2-.2.2-1 1.1-2 2.1-2.7 3l-.1.1c-.1.1-.2.3-.3.5-.2.3-.4.5-.4.8 0 .1-.1.1-.1.2V187.7c0 1.1.6 1.6 1.8 1.6h25.4c1.1 0 1.8-.5 1.8-1.6v-.3c0-.1-.1-.2-.1-.3 0-.1-.1-.2-.1-.3-.1-.1-.1-.2-.2-.3-.1-.2-.3-.4-.5-.7-.1-.1-.2-.3-.3-.4-.2-.3-.5-.6-.8-1l-.3-.3c-.3-.3-.5-.6-.8-.9l-.2-.2c0-.1-.1-.1-.2-.2-.1-.2-.3-.3-.4-.5l-.2-.2c-.2-.2-.4-.5-.6-.8-.2-.2-.3-.5-.5-.7l-.1-.1c-.1-.2-.3-.4-.4-.6l-.3-.6c-.1-.2-.2-.5-.3-.7v-.1c-.1-.2-.1-.4-.2-.6-.1-.5-.2-.9-.2-1.3V81.7c-1-.4-.9-.8-.8-1.3z" style="fill:none;stroke:url(#SVGID_00000160158965643053980690000014524719700449258409_);stroke-miterlimit:10"/><linearGradient id="SVGID_00000010304758595312169480000012200364172089447860_" x1="252.077" x2="258.077" y1="129.892" y2="129.892" gradientUnits="userSpaceOnUse"><stop offset="0" style="stop-color:#a47a1e"/><stop offset=".23" style="stop-color:#d3a84c"/><stop offset=".43" style="stop-color:#ffec94"/><stop offset=".57" style="stop-color:#e6be69"/><stop offset=".77" style="stop-color:#ffd87c"/><stop offset=".95" style="stop-color:#b58f3e"/><stop offset="1" style="stop-color:#956d13"/></linearGradient><path d="M258.1 95.2V145l-.1.3v.1l-.1.2-.5 1.7-.2.7v.1l-.1.3-1 3.4-.1.3-1 3.2-.2.7-.1.3-.2.7-.1.4-.5 1.5-.2.6-.6 2-.2.7-.8 2.5v-50c0-.1.1-.2.1-.3 0-.2.1-.4.2-.6 0-.2.1-.3.1-.5.1-.4.3-.8.4-1.2 0-.1.1-.2.1-.3v-.1c0-.1 0-.2.1-.3 0-.2.1-.3.1-.5.1-.2.1-.4.2-.6.1-.2.1-.4.2-.6.1-.2.1-.4.2-.7.2-.5.3-1 .5-1.5.1-.2.2-.5.2-.7.3-.9.6-1.8.8-2.7v-.1c.3-1 .6-2 .9-3.1 0-.1.1-.2.1-.3 0-.1 0-.2.1-.2 0-.1.1-.3.1-.4 0-.1 0-.1.1-.2.1-.2.1-.4.2-.7.2-.8.5-1.5.7-2.2.1-.2.2-.5.2-.7.2-.4.3-.7.4-1z" style="fill:url(#SVGID_00000010304758595312169480000012200364172089447860_)"/><linearGradient id="SVGID_00000116207649079201419680000007758049546432656550_" x1="286.077" x2="291.517" y1="185.317" y2="185.317" gradientUnits="userSpaceOnUse"><stop offset="0" style="stop-color:#a47a1e"/><stop offset=".23" style="stop-color:#d3a84c"/><stop offset=".43" style="stop-color:#ffec94"/><stop offset=".57" style="stop-color:#e6be69"/><stop offset=".77" style="stop-color:#ffd87c"/><stop offset=".95" style="stop-color:#b58f3e"/><stop offset="1" style="stop-color:#956d13"/></linearGradient><path d="M291.5 188.1c0 1.1-.6 1.6-1.8 1.6H286v-8.8l.1.1c.2.2.3.5.5.7.2.3.4.5.6.8l.2.2c.1.2.3.3.4.5.1.1.1.2.2.2l.2.2c.3.3.5.6.8.9l.3.3c.3.3.6.6.8 1 .1.1.2.3.3.4.2.2.4.5.5.7.1.1.2.2.2.3.1.1.1.2.1.3.1.1.1.2.1.3.2.1.2.2.2.3z" style="fill:url(#SVGID_00000116207649079201419680000007758049546432656550_)"/><linearGradient id="SVGID_00000039095020322874662410000002416082450025343154_" x1="286.077" x2="291.517" y1="73.327" y2="73.327" gradientUnits="userSpaceOnUse"><stop offset="0" style="stop-color:#a47a1e"/><stop offset=".23" style="stop-color:#d3a84c"/><stop offset=".43" style="stop-color:#ffec94"/><stop offset=".57" style="stop-color:#e6be69"/><stop offset=".77" style="stop-color:#ffd87c"/><stop offset=".95" style="stop-color:#b58f3e"/><stop offset="1" style="stop-color:#956d13"/></linearGradient><path d="M291.5 70.5v.2c0 .1 0 .2-.1.3 0 0 0 .1-.1.2 0 0-.1.1-.1.2-.2.4-.5.8-.9 1.2l-.1.1c-.2.2-.3.4-.5.6l-.3.3c-.3.3-.6.6-.8 1-.3.3-.6.7-.9 1-.2.2-.4.4-.5.7-.2.2-.4.5-.5.7-.2.3-.4.6-.6.8V69h3.7c.3 0 .5 0 .7.1h.1c.1 0 .2 0 .2.1 0 0 .1 0 .1.1.1.1.3.2.4.3v.1l.1.1c0 .1.1.2.1.2 0 .1 0 .2.1.3-.1.1-.1.1-.1.2z" style="fill:url(#SVGID_00000039095020322874662410000002416082450025343154_)"/><linearGradient id="SVGID_00000183949401769150722900000009722536178030735238_" x1="260.577" x2="266.577" y1="103.457" y2="103.457" gradientUnits="userSpaceOnUse"><stop offset="0" style="stop-color:#a47a1e"/><stop offset=".23" style="stop-color:#d3a84c"/><stop offset=".43" style="stop-color:#ffec94"/><stop offset=".57" style="stop-color:#e6be69"/><stop offset=".77" style="stop-color:#ffd87c"/><stop offset=".95" style="stop-color:#b58f3e"/><stop offset="1" style="stop-color:#956d13"/></linearGradient><path d="M266.6 70.2v47l-.7 2.1-.2.7-.3 1-.1.4-.5 1.5-.2.6-.6 2-.2.7-1.2 3.8-.2.6-1 3.3-.2.7-.2.7V135.6l-.3 1.2V87c0-.1 0-.1.1-.2.1-.5.3-.9.4-1.3 0-.2.1-.3.1-.5.2-.7.4-1.4.6-2 .1-.2.1-.4.2-.5.2-.7.4-1.4.6-2 .1-.2.1-.5.2-.7.2-.5.3-1.1.5-1.5.1-.2.1-.5.2-.7.1-.2.1-.5.2-.7v-.1c0-.1.1-.2.1-.3 0-.1 0-.2.1-.2.1-.3.1-.5.2-.8.2-.7.4-1.3.5-1.7 0-.2.1-.3.2-.5s.2-.5.2-.7c.3-.7.6-1.2.9-1.7l.1-.1c.1-.1.1-.2.2-.2l.1-.1c0-.2.1-.3.2-.3z" style="fill:url(#SVGID_00000183949401769150722900000009722536178030735238_)"/><linearGradient id="SVGID_00000070099016709130377590000012143743021294462860_" x1="262.557" x2="266.577" y1="186.262" y2="186.262" gradientUnits="userSpaceOnUse"><stop offset="0" style="stop-color:#a47a1e"/><stop offset=".23" style="stop-color:#d3a84c"/><stop offset=".43" style="stop-color:#ffec94"/><stop offset=".57" style="stop-color:#e6be69"/><stop offset=".77" style="stop-color:#ffd87c"/><stop offset=".95" style="stop-color:#b58f3e"/><stop offset="1" style="stop-color:#956d13"/></linearGradient><path d="M266.6 182.8v6.9h-2.3c-1.1 0-1.8-.5-1.8-1.6V187.8c0-.1 0-.1.1-.2.1-.2.2-.5.4-.8.1-.2.2-.3.3-.5l.1-.1c.7-.9 1.7-1.9 2.7-3 .1-.1.1-.2.2-.2.2-.1.2-.1.3-.2z" style="fill:url(#SVGID_00000070099016709130377590000012143743021294462860_)"/><linearGradient id="SVGID_00000125597400860154992490000008109246572526896296_" x1="269.077" x2="275.077" y1="129.322" y2="129.322" gradientUnits="userSpaceOnUse"><stop offset="0" style="stop-color:#a47a1e"/><stop offset=".23" style="stop-color:#d3a84c"/><stop offset=".43" style="stop-color:#ffec94"/><stop offset=".57" style="stop-color:#e6be69"/><stop offset=".77" style="stop-color:#ffd87c"/><stop offset=".95" style="stop-color:#b58f3e"/><stop offset="1" style="stop-color:#956d13"/></linearGradient><path d="M275.1 68.9v120.8h-6V69h6z" style="fill:url(#SVGID_00000125597400860154992490000008109246572526896296_)"/><linearGradient id="SVGID_00000058585799190790536890000017070049917678151839_" x1="277.577" x2="283.577" y1="129.322" y2="129.322" gradientUnits="userSpaceOnUse"><stop offset="0" style="stop-color:#a47a1e"/><stop offset=".23" style="stop-color:#d3a84c"/><stop offset=".43" style="stop-color:#ffec94"/><stop offset=".57" style="stop-color:#e6be69"/><stop offset=".77" style="stop-color:#ffd87c"/><stop offset=".95" style="stop-color:#b58f3e"/><stop offset="1" style="stop-color:#956d13"/></linearGradient><path d="M277.6 68.9h6v120.8h-6z" style="fill:url(#SVGID_00000058585799190790536890000017070049917678151839_)"/><linearGradient id="SVGID_00000154384081555859441020000014692918179090816915_" x1="185.917" x2="190.077" y1="72.467" y2="72.467" gradientUnits="userSpaceOnUse"><stop offset="0" style="stop-color:#a47a1e"/><stop offset=".23" style="stop-color:#d3a84c"/><stop offset=".43" style="stop-color:#ffec94"/><stop offset=".57" style="stop-color:#e6be69"/><stop offset=".77" style="stop-color:#ffd87c"/><stop offset=".95" style="stop-color:#b58f3e"/><stop offset="1" style="stop-color:#956d13"/></linearGradient><path d="M190.1 68.9V76c-.5-.6-1-1.2-1.5-1.7v-.1c-.2-.2-.4-.4-.6-.7l-.1-.1c-.5-.6-1-1.2-1.4-1.7-.1-.2-.2-.3-.3-.4-.1-.2-.2-.3-.2-.4-.1-.2-.1-.3-.1-.5v-.1c0-.2 0-.4.1-.5.1-.3.2-.5.4-.6l.1-.1c.3-.2.7-.3 1.2-.3h2.4z" style="fill:url(#SVGID_00000154384081555859441020000014692918179090816915_)"/><linearGradient id="SVGID_00000183224836754432489740000008213130948051548567_" x1="185.917" x2="190.077" y1="186.182" y2="186.182" gradientUnits="userSpaceOnUse"><stop offset="0" style="stop-color:#a47a1e"/><stop offset=".23" style="stop-color:#d3a84c"/><stop offset=".43" style="stop-color:#ffec94"/><stop offset=".57" style="stop-color:#e6be69"/><stop offset=".77" style="stop-color:#ffd87c"/><stop offset=".95" style="stop-color:#b58f3e"/><stop offset="1" style="stop-color:#956d13"/></linearGradient><path d="M190.1 182.6v7.1h-2.9c-.5-.1-.9-.3-1.1-.7-.1-.2-.2-.5-.2-.8v-.3c0-.1.1-.2.1-.4 0-.1.1-.1.1-.2.5-.8 1.4-1.8 2.4-2.9l.3-.3.3-.3.1-.1c.4-.5.6-.8.9-1.1z" style="fill:url(#SVGID_00000183224836754432489740000008213130948051548567_)"/><linearGradient id="SVGID_00000105389609927227469470000016365525205166341818_" x1="201.077" x2="207.077" y1="129.322" y2="129.322" gradientUnits="userSpaceOnUse"><stop offset="0" style="stop-color:#a47a1e"/><stop offset=".23" style="stop-color:#d3a84c"/><stop offset=".43" style="stop-color:#ffec94"/><stop offset=".57" style="stop-color:#e6be69"/><stop offset=".77" style="stop-color:#ffd87c"/><stop offset=".95" style="stop-color:#b58f3e"/><stop offset="1" style="stop-color:#956d13"/></linearGradient><path d="M201.1 68.9h6v120.8h-6z" style="fill:url(#SVGID_00000105389609927227469470000016365525205166341818_)"/><linearGradient id="SVGID_00000176724558976640505200000004204506723947166609_" x1="209.577" x2="214.877" y1="185.422" y2="185.422" gradientUnits="userSpaceOnUse"><stop offset="0" style="stop-color:#a47a1e"/><stop offset=".23" style="stop-color:#d3a84c"/><stop offset=".43" style="stop-color:#ffec94"/><stop offset=".57" style="stop-color:#e6be69"/><stop offset=".77" style="stop-color:#ffd87c"/><stop offset=".95" style="stop-color:#b58f3e"/><stop offset="1" style="stop-color:#956d13"/></linearGradient><path d="M214.9 188.1v.4c0 .2-.1.3-.2.5 0 0 0 .1-.1.1l-.3.3s-.1 0-.1.1c-.1 0-.1.1-.2.1h-.1c-.1 0-.2.1-.3.1h-3.9v-8.6c0 .1.1.1.1.2.2.2.3.5.5.7l1.2 1.5c0 .1.1.1.2.2s.3.3.4.5c.1.1.1.2.2.2.5.5.9 1 1.3 1.4.1.2.2.3.3.4.1.2.2.3.3.5v.1c.1.1.2.2.2.4 0 .1.1.1.1.2v.2c0 .1.1.1.1.2v.1c.3.1.3.1.3.2z" style="fill:url(#SVGID_00000176724558976640505200000004204506723947166609_)"/><linearGradient id="SVGID_00000155107437797784921010000003410834388329561006_" x1="209.577" x2="215.577" y1="101.012" y2="101.012" gradientUnits="userSpaceOnUse"><stop offset="0" style="stop-color:#a47a1e"/><stop offset=".23" style="stop-color:#d3a84c"/><stop offset=".43" style="stop-color:#ffec94"/><stop offset=".57" style="stop-color:#e6be69"/><stop offset=".77" style="stop-color:#ffd87c"/><stop offset=".95" style="stop-color:#b58f3e"/><stop offset="1" style="stop-color:#956d13"/></linearGradient><path d="M215.6 82.9v49.9-.1l-.3-1.1-.2-.6-.4-1.2-.2-.7-1.4-4.5v-.1l-.2-.6v-.1l-.3-1-.2-.7-.3-1.1-.2-.7-.9-2.9v-.1l-.2-.7v-.1l-.2-.7c-.1-.4-.2-.7-.3-.9 0-.1-.1-.1-.1-.2l-.1-.1-.1-.1-.1-.1h-.1v-45s.1 0 .1.1c.1 0 .2.1.2.1.1.1.3.2.4.3.1.1.2.1.3.2.1.1.2.1.2.2l.3.3c.1.1.2.3.3.4.1.1.1.2.2.3.1.2.3.5.4.7.1.2.2.5.3.7 0 .1.1.3.1.4 0 .1.1.3.1.4v.1c0 .1.1.2.1.4.2.5.4 1.3.6 2.1 0 .2.1.3.2.5 0 .1.1.3.1.4 0 .2.1.3.1.5v.1c.1.2.1.4.2.6.2.8.5 1.6.8 2.5v.2c0 .1 0 .1.1.2.1.4.2.8.4 1.2.2.3.2.4.3.6z" style="fill:url(#SVGID_00000155107437797784921010000003410834388329561006_)"/><linearGradient id="SVGID_00000117634387232052299760000008030424876422598023_" x1="243.577" x2="249.577" y1="156.237" y2="156.237" gradientUnits="userSpaceOnUse"><stop offset="0" style="stop-color:#a47a1e"/><stop offset=".23" style="stop-color:#d3a84c"/><stop offset=".43" style="stop-color:#ffec94"/><stop offset=".57" style="stop-color:#e6be69"/><stop offset=".77" style="stop-color:#ffd87c"/><stop offset=".95" style="stop-color:#b58f3e"/><stop offset="1" style="stop-color:#956d13"/></linearGradient><path d="M249.6 122.8v66.8c-.2.1-.6.2-.9.2h-5.1v-47.5c.2-.5.3-1 .5-1.5.2-.8.5-1.6.8-2.5v-.1c.1-.2.1-.5.2-.7 0-.1 0-.1.1-.2 0-.1 0-.1.1-.2 0-.1.1-.2.1-.4 0 0 0-.1.1-.1.1-.2.1-.4.2-.6v-.1c0-.2.1-.4.2-.5v-.1c.1-.2.1-.3.2-.5s.1-.4.2-.6c.1-.2.1-.4.2-.6.1-.2.1-.4.2-.6.1-.3.2-.5.2-.8.2-.7.5-1.5.7-2.2.1-.2.1-.4.2-.6l.9-3c.1-.2.1-.4.2-.7.1-1.2.4-2 .7-2.9z" style="fill:url(#SVGID_00000117634387232052299760000008030424876422598023_)"/><linearGradient id="SVGID_00000021083793198759512320000002342389926878010554_" x1="192.577" x2="198.577" y1="129.322" y2="129.322" gradientUnits="userSpaceOnUse"><stop offset="0" style="stop-color:#a47a1e"/><stop offset=".23" style="stop-color:#d3a84c"/><stop offset=".43" style="stop-color:#ffec94"/><stop offset=".57" style="stop-color:#e6be69"/><stop offset=".77" style="stop-color:#ffd87c"/><stop offset=".95" style="stop-color:#b58f3e"/><stop offset="1" style="stop-color:#956d13"/></linearGradient><path d="M192.6 68.9h6v120.8h-6z" style="fill:url(#SVGID_00000021083793198759512320000002342389926878010554_)"/><linearGradient id="SVGID_00000028295640192648173810000016012383245196080784_" x1="226.577" x2="232.577" y1="154.162" y2="154.162" gradientUnits="userSpaceOnUse"><stop offset="0" style="stop-color:#a47a1e"/><stop offset=".23" style="stop-color:#d3a84c"/><stop offset=".43" style="stop-color:#ffec94"/><stop offset=".57" style="stop-color:#e6be69"/><stop offset=".77" style="stop-color:#ffd87c"/><stop offset=".95" style="stop-color:#b58f3e"/><stop offset="1" style="stop-color:#956d13"/></linearGradient><path d="M232.6 138v51.7h-4.4c-.2 0-.3-.1-.5-.1 0 0-.1 0-.1-.1l-.1-.1s-.1 0-.1-.1l-.1-.1-.1-.1c0-.1-.1-.1-.1-.2v-1.1c0-.1 0-.2.1-.4 0-.1.1-.3.1-.4.1-.2.1-.4.2-.7.2-.5.4-1.1.7-1.8v-.1c.1-.1.1-.3.2-.4V183.7c.1-.2.2-.5.2-.7l.3-.9c.1-.2.1-.4.2-.7 0-.2.1-.3.1-.5 0-.1 0-.2.1-.4V180.2c.1-.3.1-.7.1-1v-1.1c0-.2-.1-.4-.1-.7 0-.1-.1-.2-.1-.3l-.1-.2-.2-.7-.5-1.5-.1-.4V174l-.2-.5v-.2l-.2-.7-.2-.8-.2-.7-.2-.6-.2-.5-.2-.6-.2-.7v-50l.3.9v.1c.1.2.1.4.2.6.1.2.1.4.2.6v.1c0 .2.1.3.1.5.1.3.2.5.2.8 0 .1.1.2.1.3.1.4.3.8.4 1.2v.1c0 .1.1.2.1.4 0 .1 0 .1.1.2.5 1.5.9 3 1.4 4.5v.1c.1.2.1.4.2.6 0 .1 0 .2.1.3.1.4.2.8.4 1.2 0 .1 0 .1.1.2.1.4.3.9.4 1.3.1.2.2.5.2.7.1.2.2.5.2.7 0 .1 0 .1.1.2.1.2.1.5.2.7v.1c.1.2.1.4.2.6v.1c0 .2.1.3.2.5 0 .1 0 .1.1.2.1.2.1.4.2.5 0 .1 0 .1.1.2v.2c-.1.2 0 .4.1.6z" style="fill:url(#SVGID_00000028295640192648173810000016012383245196080784_)"/><linearGradient id="SVGID_00000059305761915030843790000018212788648028190124_" x1="218.077" x2="224.077" y1="125.737" y2="125.737" gradientUnits="userSpaceOnUse"><stop offset="0" style="stop-color:#a47a1e"/><stop offset=".23" style="stop-color:#d3a84c"/><stop offset=".43" style="stop-color:#ffec94"/><stop offset=".57" style="stop-color:#e6be69"/><stop offset=".77" style="stop-color:#ffd87c"/><stop offset=".95" style="stop-color:#b58f3e"/><stop offset="1" style="stop-color:#956d13"/></linearGradient><path d="M224.1 110.5v50-.1l-.1-.4-.8-2.5-.2-.6-.1-.1-.1-.5-.1-.4-.2-.5-.6-2.1-.2-.6-.5-1.5-.2-.7-.1-.3-.2-.7-.2-.5-.1-.3v-.2l-.2-.5-.1-.2-.2-.6-.2-.7-.2-.5-.2-.7-.1-.3-.2-1-.2-.5-.1-.4-.1-.2-.1-.4-.2-.6-.3-.9V91c0 .1.1.3.1.4 0 .2.1.4.2.6.1.2.1.5.2.7.1.3.2.6.3.8.1.2.1.4.2.7v.1c.1.2.1.5.2.7.4 1.3.8 2.7 1.3 4.1.1.2.1.3.2.5s.1.4.2.6c.1.2.1.4.2.7 0 .1.1.2.1.3v.1c0 .2.1.3.1.5.1.2.1.5.2.7 0 .1 0 .2.1.2.1.2.2.5.2.7.1.4.3.9.4 1.3.1.2.1.4.2.6 0 .1.1.2.1.3.1.2.1.5.2.7 0 .1.1.2.1.3.1.2.1.5.2.7.2.6.3 1.1.5 1.7.1.2.1.4.2.6.1.2.1.4.2.6.1.1.1.2.2.3z" style="fill:url(#SVGID_00000059305761915030843790000018212788648028190124_)"/><linearGradient id="SVGID_00000049191092627356201470000002385845973386597553_" x1="235.077" x2="241.077" y1="167.922" y2="167.922" gradientUnits="userSpaceOnUse"><stop offset="0" style="stop-color:#a47a1e"/><stop offset=".23" style="stop-color:#d3a84c"/><stop offset=".43" style="stop-color:#ffec94"/><stop offset=".57" style="stop-color:#e6be69"/><stop offset=".77" style="stop-color:#ffd87c"/><stop offset=".95" style="stop-color:#b58f3e"/><stop offset="1" style="stop-color:#956d13"/></linearGradient><path d="M241.1 150.3v39.5h-6v-43.6.1c.1.2.1.5.2.7.1.2.1.4.2.6v.2c0 .1.1.3.1.4 0 .1.1.2.1.3.1.3.2.5.3.8.1.2.1.4.2.6.1.2.1.3.1.5.1.2.1.4.2.7.2.6.4 1.2.5 1.7v.2c.1.2.1.3.2.5s.1.3.2.5c.2.7.3 1.1.4 1.3v.1s0 .1.1.2c0 0 0 .1.1.1 0 .1.1.1.1.2.1.1.2.3.4.3h.2c.1-.1.3-.2.4-.3 0-.1.1-.1.1-.2 0 0 0-.1.1-.1.1-.1.1-.2.1-.2v-.2c0-.1 0-.1.1-.2v-.2c0-.2.1-.4.2-.6 0-.2.1-.4.2-.6.1-.2.1-.4.2-.6.2-.5.4-1.2.6-1.9.1-.2.1-.4.2-.6.2-.1.2-.2.2-.2z" style="fill:url(#SVGID_00000049191092627356201470000002385845973386597553_)"/></svg>