<svg xmlns="http://www.w3.org/2000/svg" xmlns:xlink="http://www.w3.org/1999/xlink" xml:space="preserve" id="Layer_1" x="0" y="0" style="enable-background:new 0 0 328 383" version="1.1" viewBox="0 0 328 383"><style>.st5{fill:#f1e8ca}</style><symbol id="A" viewBox="-80 -40 160 80"><linearGradient id="SVGID_1_" x1="-.165" x2=".419" y1="31.325" y2="-61.664" gradientUnits="userSpaceOnUse"><stop offset="0" style="stop-color:#f9ec23"/><stop offset=".013" style="stop-color:#f9e423"/><stop offset=".119" style="stop-color:#f7a921"/><stop offset=".17" style="stop-color:#f69220"/><stop offset=".244" style="stop-color:#eb8c1f"/><stop offset=".372" style="stop-color:#ce7a1b"/><stop offset=".54" style="stop-color:#9f5e15"/><stop offset=".742" style="stop-color:#5e380c"/><stop offset=".97" style="stop-color:#0c0702"/><stop offset="1" style="stop-color:#000"/></linearGradient><path d="M57.8 6c-5.6 0-10.4.9-14.5 2.2-1.5-2-3-3.7-3.2-5-.3-1.5-.6-2.4-.3-4.2s1.9-4.3 1.9-4.5-.4-1.1-3.6-1.1-6 .4-6.3 1c-.3.6-.9 1.9-1.3 3.2C29.9-.6 24 6.4 20.6 10c-1.1-1.4-2-2.7-2.2-3.7-.3-1.5-.6-2.4-.3-4.2S20-2.2 20-2.4s-.4-1.1-3.6-1.1-6 .4-6.3 1S9.5-.6 8.8.6.3 13.5-1.7 16.5c-1.1 1.5-2 2.8-2.6 3.6 0 0 0 .1-.1.2l-.9 1.1c-.4.5-.9 1-1.1 1-.2 0-.5-1.4.1-3.3 1.2-4 3.9-10.3 3.9-10.5 0-.1.5-1.2-1.8-1.8-2.3-.6-3.1.4-3.3.4s-.4.3-.4.3S-5.4.4-12.8.4c-4.6 0-11 3.4-14.1 6.4l-10.8 3.9-5.2 1.9c-.1-.1-.2-.2-.4-.3C-52.2 6.1-68.7 1.6-68-7c.3-3.1 1.9-11.3 31.8-21.2 24.6-8.1 44.2-5.8 47.6-.9C16.2-22 .8-8.8-24.6-6.9c-9.7.7-14.8-1.8-16.1-2.7-1.3-1-1.5-1-2-.8-.8.3-.3 1.2 0 1.7.8 1.3 3.9 3.7 9.2 4.8 4.7 1 16 1.6 29.8-2 15.4-4 27.4-15 23.9-24.3-3.5-9.4-26.9-12.5-49-7.2-13.2 3.1-27.4 8-37.7 14.4-12.2 7.6-14.1 14.2-13.3 17 2.8 9.8 23.1 16.2 31.3 20.9l-1.1.4C-53.7 16.6-69.2 22-73 27.8c-4.4 6.5.7 11.1 4.1 11.7 10.4 1.9 21.2-1.5 26.9-7.3s5.1-13.2 2.4-16.6l-.1-.1 3.2-1.2c2.1-.8 4.1-1.6 5.9-2.2-1 1.8-1.7 4-2.1 7.1-.4 3.7 1.8 8.4 4.8 10.3 1.3.8 2.9.8 3.9.8 3.4 0 5-1.9 6.7-4.2 2.1-2.8 4-6 4-6s-2.4 8.7 4.1 8.7c2.3 0 4.7-2 5.8-3.1 0 0 .1 0 .2-.2l.4-.4c.9-1.1 3-3.6 6.2-7.7C7.1 12.1 11 5.5 11 5.5s.4 1.6 1.5 4.3c.7 1.6 2.2 3.3 3.3 5-.9.9-1.5 1.4-1.5 1.4-.8.7-1.6 1.4-2.5 2.1-3.2 2.5-7 5.4-7.5 6.3-.6 1-.5 1.7.7 2.3.8.4 2.4.5 3.9.4 2.9-.1 4.9-.6 5.9-.9 1.5-.4 3.4-.9 5.1-1.8 3.1-1.5 5-3.7 4.9-6.6-.1-1.6-.9-3.2-1.8-4.7.3-.3.6-.5.8-.8 4.9-4.8 8.8-10.1 8.8-10.1S33 4 34.1 6.7c.6 1.4 1.8 2.8 2.8 4.3-4.6 2.5-7.5 5.4-8.5 7.3-1.8 3.5-.4 5.1 2.3 5.5 1.2.2 3-.2 4.3-.6 1.6-.4 3.6-1 5.4-1.9 3.1-1.5 6.1-3.7 6-6.6-.1-1.3-.6-2.6-1.3-3.9 3.9-1.1 9-1.7 15.5-1.2 13.9 1.1 16.7 6.9 16.1 9.3s-3.4 3.8-4.4 4.2-1.4.6-1.3.9c.1.4.6.4 1.4.3 1.1-.1 7.3-2 7.6-6.4.4-5.7-7.8-12-22.2-11.9zM-49.5 30.1c-4.6 3.4-11 4.6-13.8 3.5-3-1.2-1.8-6.1 3.9-9.6 3.4-2.2 7.9-4.2 10.8-5.4l2.9-1.2c.2-.1.3-.1.3-.1l.7-.3c2 5.1 0 9.6-4.8 13.1zm33.6-15.2c-1.6 2.6-5 9.3-7 8.9-1.8-.3-2.8-5.4-.4-10.4 1.3-2.5 3.9-5.5 5.5-6.7 2.5-1.9 5.3-2.5 6-1.7.8 1-3.1 8.2-4.1 9.9zm27.7 8.8c-.7.2-1.3.4-1.6.3-.2-.1.3-.4.3-.4s3.5-2.5 4.9-3.6l2.7-2.3v.3c0 2.9-4.4 4.9-6.3 5.7zm21.4-3.2c-.5-.2-.4-1 1.3-3.4.6-1 2.2-2.6 4.8-4.1.3.6.5 1.2.5 1.8-.1 3.7-4.2 5.1-6.6 5.7z" style="fill-rule:evenodd;clip-rule:evenodd;fill:url(#SVGID_1_)"/></symbol><radialGradient id="SVGID_00000124878664986470160730000008254062403335768484_" cx="170.609" cy="192.331" r="172.392" gradientUnits="userSpaceOnUse"><stop offset="0" style="stop-color:#3e4156"/><stop offset=".187" style="stop-color:#3a3d50"/><stop offset=".431" style="stop-color:#2e3040"/><stop offset=".707" style="stop-color:#1b1c25"/><stop offset="1" style="stop-color:#000"/></radialGradient><path d="M16.8 22.9v338.9c0 10.9 8.8 19.7 19.7 19.7h268.1c10.9 0 19.7-8.8 19.7-19.7V86.7L240.8 3.2H36.5c-10.9 0-19.7 8.8-19.7 19.7z" style="fill:url(#SVGID_00000124878664986470160730000008254062403335768484_)"/><linearGradient id="SVGID_00000103977017117666913260000015888114054540744331_" x1="2.212" x2="16.792" y1="142.293" y2="142.293" gradientUnits="userSpaceOnUse"><stop offset="0" style="stop-color:#f9ec23"/><stop offset=".179" style="stop-color:#f9e423"/><stop offset=".458" style="stop-color:#f8ce22"/><stop offset=".8" style="stop-color:#f7aa21"/><stop offset="1" style="stop-color:#f69220"/></linearGradient><path d="M16.8 156.9c-8.1 0-14.6-6.5-14.6-14.6s6.5-14.6 14.6-14.6v29.2z" style="fill:url(#SVGID_00000103977017117666913260000015888114054540744331_)"/><linearGradient id="SVGID_00000013155275840783969040000002899779208636859018_" x1="2.212" x2="215.822" y1="92.026" y2="92.026" gradientUnits="userSpaceOnUse"><stop offset="0" style="stop-color:#f9ec23"/><stop offset=".013" style="stop-color:#f9e423"/><stop offset=".119" style="stop-color:#f7a921"/><stop offset=".17" style="stop-color:#f69220"/><stop offset=".181" style="stop-color:#ec8c1f"/><stop offset=".24" style="stop-color:#bb6f18"/><stop offset=".304" style="stop-color:#8f5513"/><stop offset=".371" style="stop-color:#683e0e"/><stop offset=".442" style="stop-color:#482b09"/><stop offset=".518" style="stop-color:#2e1b06"/><stop offset=".601" style="stop-color:#190f03"/><stop offset=".696" style="stop-color:#0b0601"/><stop offset=".81" style="stop-color:#030100"/><stop offset="1" style="stop-color:#000"/></linearGradient><path d="M17.7 41.8c-8.6 0-15.5 6.5-15.5 14.6V142.4c0-8.1 7-14.6 15.5-14.6H210c3.2 0 5.7-2.4 5.7-5.4V47.1c0-3-2.6-5.4-5.7-5.4H17.7z" style="fill:url(#SVGID_00000013155275840783969040000002899779208636859018_)"/><linearGradient id="SVGID_00000030454405457232198690000010834358252663269802_" x1="214.304" x2="286.685" y1="84.386" y2="42.586" gradientUnits="userSpaceOnUse"><stop offset="0" style="stop-color:#3e4156"/><stop offset=".425" style="stop-color:#1f202b"/><stop offset=".794" style="stop-color:#08090c"/><stop offset="1" style="stop-color:#000"/></linearGradient><path d="m240.8 3.2 83.6 83.6h-64.5c-10.5 0-19.1-8.5-19.1-19.1V3.2z" style="fill:url(#SVGID_00000030454405457232198690000010834358252663269802_)"/><path d="m116 97 10.1-5.8c1.8 4.2 5 7.1 10.7 7.1 5.5 0 6.9-2.2 6.9-4.2 0-3.1-2.9-4.4-10.6-6.5-7.6-2.1-15-5.8-15-15.5 0-9.8 8.3-15.5 17.1-15.5 8.4 0 15 4 18.7 11.5l-9.8 5.8c-1.8-3.6-4.2-5.9-8.8-5.9-3.6 0-5.5 1.8-5.5 3.9 0 2.3 1.2 3.9 9.2 6.3 7.7 2.3 16.4 5 16.4 15.8 0 9.8-7.9 15.7-19 15.7-10.7-.1-17.6-5.2-20.4-12.7zM160.1 97.8l10.1-5.8c1.8 4.2 5 7.1 10.7 7.1 5.5 0 6.9-2.2 6.9-4.2 0-3.1-2.9-4.4-10.6-6.5-7.6-2.1-15-5.8-15-15.5 0-9.8 8.3-15.5 17.1-15.5 8.4 0 15 4 18.7 11.5l-9.8 5.8c-1.8-3.6-4.2-5.9-8.8-5.9-3.6 0-5.5 1.8-5.5 3.9 0 2.3 1.2 3.9 9.2 6.3 7.7 2.3 16.4 5 16.4 15.8 0 9.8-7.9 15.7-19 15.7-10.7-.1-17.6-5.2-20.4-12.7z" class="st5"/><linearGradient id="SVGID_00000155855297823917096680000010343265910671548032_" x1="74.685" x2="74.685" y1="160.331" y2="335.331" gradientUnits="userSpaceOnUse"><stop offset="0" style="stop-color:#f9ec23"/><stop offset=".028" style="stop-color:#f9e423"/><stop offset=".26" style="stop-color:#f7a921"/><stop offset=".371" style="stop-color:#f69220"/><stop offset=".38" style="stop-color:#ec8c1f"/><stop offset=".424" style="stop-color:#bb6f18"/><stop offset=".472" style="stop-color:#8f5513"/><stop offset=".523" style="stop-color:#683e0e"/><stop offset=".577" style="stop-color:#482b09"/><stop offset=".635" style="stop-color:#2e1b06"/><stop offset=".698" style="stop-color:#190f03"/><stop offset=".769" style="stop-color:#0b0601"/><stop offset=".856" style="stop-color:#030100"/><stop offset="1" style="stop-color:#000"/></linearGradient><path d="M64.4 262.5V243c0-6.6-3.7-7.5-9.6-6.8v-19.9c5.9.7 9.6-.3 9.6-6.8V190c0-17.8 9.2-27.9 30.1-26.6v19.7c-5.9-.7-9.6.3-9.6 6.8v19.5c0 7.5-2.3 13.3-7.3 16.7 4.9 3.6 7.3 9.3 7.3 16.8v19.5c0 6.6 3.7 7.5 9.6 6.8v19.7c-20.9 1.6-30.1-8.6-30.1-26.4z" style="fill:url(#SVGID_00000155855297823917096680000010343265910671548032_)"/><linearGradient id="SVGID_00000127034909884690341590000018292917951496136605_" x1="254.959" x2="254.959" y1="160.331" y2="335.331" gradientUnits="userSpaceOnUse"><stop offset="0" style="stop-color:#f8ec21"/><stop offset=".028" style="stop-color:#f8e421"/><stop offset=".264" style="stop-color:#f7a920"/><stop offset=".377" style="stop-color:#f69220"/><stop offset=".416" style="stop-color:#cd7a1c"/><stop offset=".464" style="stop-color:#a26219"/><stop offset=".515" style="stop-color:#7b4c15"/><stop offset=".57" style="stop-color:#5b3912"/><stop offset=".629" style="stop-color:#412a10"/><stop offset=".693" style="stop-color:#2c1e0e"/><stop offset=".765" style="stop-color:#1e160d"/><stop offset=".854" style="stop-color:#16110c"/><stop offset="1" style="stop-color:#13100c"/></linearGradient><path d="M235.1 269.4c5.9.7 9.6-.3 9.6-6.8v-19.5c0-7.5 2.3-13.3 7.3-16.8-4.9-3.4-7.3-9.2-7.3-16.7v-19.5c0-6.6-3.7-7.5-9.6-6.8v-19.7c21-1.4 30.1 8.8 30.1 26.6v19.5c0 6.6 3.7 7.5 9.6 6.8v19.9c-5.9-.7-9.6.3-9.6 6.8v19.5c0 17.8-9.2 27.9-30.1 26.6v-19.9z" style="fill:url(#SVGID_00000127034909884690341590000018292917951496136605_)"/><path d="M17.6 97.8 27.7 92c1.8 4.2 5 7.1 10.7 7.1 5.5 0 6.9-2.2 6.9-4.2 0-3.1-2.9-4.4-10.6-6.5-7.6-2.1-15-5.8-15-15.5 0-9.8 8.3-15.5 17.1-15.5 8.4 0 15 4 18.7 11.5l-9.8 5.8c-1.8-3.6-4.2-5.9-8.8-5.9-3.6 0-5.5 1.8-5.5 3.9 0 2.3 1.2 3.9 9.2 6.3C48.3 81.3 57 84 57 94.8c0 9.8-7.9 15.7-19 15.7-10.7-.1-17.5-5.2-20.4-12.7zM96 100.6H77l-2.6 8H61.7l17.4-51.1H94l17.4 51.1H98.5l-2.5-8zm-3.5-11-6-18.7-6 18.7h12z" class="st5"/><use xlink:href="#A" id="XMLID_00000126323705926137068220000003001300427956348041_" width="160" height="80" x="-80" y="-40" style="overflow:visible" transform="translate(163.822 215.33) scale(.8822)"/></svg>