<svg xmlns="http://www.w3.org/2000/svg" xml:space="preserve" id="Layer_1" x="0" y="0" style="enable-background:new 0 0 108 109" version="1.1" viewBox="0 0 108 109"><style>.st1,.st2,.st3,.st4,.st5,.st6{fill-rule:evenodd;clip-rule:evenodd;fill:url(#SVGID_00000057852855389929067000000014387419648722195593_)}.st2,.st3,.st4,.st5,.st6{fill:url(#SVGID_00000155841010674361350890000003095804211863868819_)}.st3,.st4,.st5,.st6{fill:url(#SVGID_00000018211239009377687090000005171027535811644860_)}.st4,.st5,.st6{fill:url(#SVGID_00000108283760431969506540000014485189535742814598_)}.st5,.st6{fill:url(#SVGID_00000130641813920230648460000008888187948348154779_)}.st6{fill:url(#SVGID_00000166657080632231138450000007375999721292163485_)}.st10,.st11,.st12,.st13,.st7,.st8,.st9{fill-rule:evenodd;clip-rule:evenodd;fill:url(#SVGID_00000061432834954114739800000010717202311593846424_)}.st10,.st11,.st12,.st13,.st8,.st9{fill:url(#SVGID_00000026871392845770376930000017152572363295552394_)}.st10,.st11,.st12,.st13,.st9{fill:url(#SVGID_00000181782613929165243980000018396458450238898362_)}.st10,.st11,.st12,.st13{fill:url(#SVGID_00000150080077158438328900000005532776862128100755_)}.st11,.st12,.st13{fill:url(#SVGID_00000010288593161453934830000013292483208354385343_)}.st12,.st13{fill:url(#SVGID_00000127759050614591552170000014364029995804031925_)}.st13{fill:url(#SVGID_00000175316699972661924980000005136407975213719204_)}.st14,.st15,.st16,.st17,.st18,.st19{fill-rule:evenodd;clip-rule:evenodd;fill:url(#SVGID_00000111897074686702405130000017150011997763742131_)}.st15,.st16,.st17,.st18,.st19{fill:url(#SVGID_00000034767882374926008850000013838185129056128677_)}.st16,.st17,.st18,.st19{fill:url(#SVGID_00000170280033055479703860000004261922512057123997_)}.st17,.st18,.st19{fill:url(#SVGID_00000060029312962233646290000006749477079211160736_)}.st18,.st19{fill:url(#SVGID_00000042724891293046111570000001312875699747834814_)}.st19{fill:url(#SVGID_00000110453097117137677840000006248798847113451671_)}.st20{fill:url(#SVGID_00000016066165274040157370000016263136431371914117_)}</style><radialGradient id="SVGID_1_" cx="69.028" cy="85.023" r="50.366" gradientTransform="matrix(1.0459 0 0 1.0554 -18.196 -35.23)" gradientUnits="userSpaceOnUse"><stop offset=".134" style="stop-color:#3e4156"/><stop offset=".502" style="stop-color:#1f202b"/><stop offset=".822" style="stop-color:#08090c"/><stop offset="1" style="stop-color:#000"/></radialGradient><circle cx="54" cy="54.5" r="52.9" style="fill-rule:evenodd;clip-rule:evenodd;fill:url(#SVGID_1_)"/><radialGradient id="SVGID_00000068663620654014606590000010630341989247196291_" cx="54" cy="100.451" r="6.5" gradientUnits="userSpaceOnUse"><stop offset="0" style="stop-color:#f16723"/><stop offset=".064" style="stop-color:#ca561d"/><stop offset=".151" style="stop-color:#9b4216"/><stop offset=".244" style="stop-color:#713010"/><stop offset=".341" style="stop-color:#4e210b"/><stop offset=".443" style="stop-color:#321507"/><stop offset=".552" style="stop-color:#1c0c04"/><stop offset=".671" style="stop-color:#0c0502"/><stop offset=".807" style="stop-color:#030100"/><stop offset="1" style="stop-color:#000"/></radialGradient><circle cx="54" cy="100.5" r="6.5" style="fill-rule:evenodd;clip-rule:evenodd;fill:url(#SVGID_00000068663620654014606590000010630341989247196291_)"/><radialGradient id="SVGID_00000013192420363571722420000005064069434162735007_" cx="85.89" cy="89.297" r="5.5" gradientUnits="userSpaceOnUse"><stop offset="0" style="stop-color:#f16723"/><stop offset=".064" style="stop-color:#ca561d"/><stop offset=".151" style="stop-color:#9b4216"/><stop offset=".244" style="stop-color:#713010"/><stop offset=".341" style="stop-color:#4e210b"/><stop offset=".443" style="stop-color:#321507"/><stop offset=".552" style="stop-color:#1c0c04"/><stop offset=".671" style="stop-color:#0c0502"/><stop offset=".807" style="stop-color:#030100"/><stop offset="1" style="stop-color:#000"/></radialGradient><circle cx="85.9" cy="89.3" r="5.5" style="fill-rule:evenodd;clip-rule:evenodd;fill:url(#SVGID_00000013192420363571722420000005064069434162735007_)"/><radialGradient id="SVGID_00000058559034119200717080000008288299661423313281_" cx="71.769" cy="97.355" r="6" gradientUnits="userSpaceOnUse"><stop offset="0" style="stop-color:#f16723"/><stop offset=".064" style="stop-color:#ca561d"/><stop offset=".151" style="stop-color:#9b4216"/><stop offset=".244" style="stop-color:#713010"/><stop offset=".341" style="stop-color:#4e210b"/><stop offset=".443" style="stop-color:#321507"/><stop offset=".552" style="stop-color:#1c0c04"/><stop offset=".671" style="stop-color:#0c0502"/><stop offset=".807" style="stop-color:#030100"/><stop offset="1" style="stop-color:#000"/></radialGradient><circle cx="71.8" cy="97.4" r="6" style="fill-rule:evenodd;clip-rule:evenodd;fill:url(#SVGID_00000058559034119200717080000008288299661423313281_)"/><radialGradient id="SVGID_00000031169035750003365040000016853100834697449347_" cx="96.035" cy="76.904" r="5" gradientUnits="userSpaceOnUse"><stop offset="0" style="stop-color:#f16723"/><stop offset=".064" style="stop-color:#ca561d"/><stop offset=".151" style="stop-color:#9b4216"/><stop offset=".244" style="stop-color:#713010"/><stop offset=".341" style="stop-color:#4e210b"/><stop offset=".443" style="stop-color:#321507"/><stop offset=".552" style="stop-color:#1c0c04"/><stop offset=".671" style="stop-color:#0c0502"/><stop offset=".807" style="stop-color:#030100"/><stop offset="1" style="stop-color:#000"/></radialGradient><circle cx="96" cy="76.9" r="5" style="fill-rule:evenodd;clip-rule:evenodd;fill:url(#SVGID_00000031169035750003365040000016853100834697449347_)"/><radialGradient id="SVGID_00000044888930257192570700000017655277613699582609_" cx="101.633" cy="62.242" r="4.5" gradientUnits="userSpaceOnUse"><stop offset="0" style="stop-color:#f16723"/><stop offset=".064" style="stop-color:#ca561d"/><stop offset=".151" style="stop-color:#9b4216"/><stop offset=".244" style="stop-color:#713010"/><stop offset=".341" style="stop-color:#4e210b"/><stop offset=".443" style="stop-color:#321507"/><stop offset=".552" style="stop-color:#1c0c04"/><stop offset=".671" style="stop-color:#0c0502"/><stop offset=".807" style="stop-color:#030100"/><stop offset="1" style="stop-color:#000"/></radialGradient><circle cx="101.6" cy="62.2" r="4.5" style="fill-rule:evenodd;clip-rule:evenodd;fill:url(#SVGID_00000044888930257192570700000017655277613699582609_)"/><radialGradient id="SVGID_00000072995537573664131890000005219327238517762442_" cx="101.633" cy="47.889" r="4.5" gradientUnits="userSpaceOnUse"><stop offset="0" style="stop-color:#f16723"/><stop offset=".064" style="stop-color:#ca561d"/><stop offset=".151" style="stop-color:#9b4216"/><stop offset=".244" style="stop-color:#713010"/><stop offset=".341" style="stop-color:#4e210b"/><stop offset=".443" style="stop-color:#321507"/><stop offset=".552" style="stop-color:#1c0c04"/><stop offset=".671" style="stop-color:#0c0502"/><stop offset=".807" style="stop-color:#030100"/><stop offset="1" style="stop-color:#000"/></radialGradient><circle cx="101.6" cy="47.9" r="4.5" style="fill-rule:evenodd;clip-rule:evenodd;fill:url(#SVGID_00000072995537573664131890000005219327238517762442_)"/><radialGradient id="SVGID_00000155845059865667027610000008055850491798344576_" cx="97.799" cy="34.556" r="4.5" gradientUnits="userSpaceOnUse"><stop offset="0" style="stop-color:#f16723"/><stop offset=".064" style="stop-color:#ca561d"/><stop offset=".151" style="stop-color:#9b4216"/><stop offset=".244" style="stop-color:#713010"/><stop offset=".341" style="stop-color:#4e210b"/><stop offset=".443" style="stop-color:#321507"/><stop offset=".552" style="stop-color:#1c0c04"/><stop offset=".671" style="stop-color:#0c0502"/><stop offset=".807" style="stop-color:#030100"/><stop offset="1" style="stop-color:#000"/></radialGradient><circle cx="97.8" cy="34.6" r="4.5" style="fill-rule:evenodd;clip-rule:evenodd;fill:url(#SVGID_00000155845059865667027610000008055850491798344576_)"/><radialGradient id="SVGID_00000018921926702526194010000007735199031719619728_" cx="91.39" cy="23.961" r="4.5" gradientUnits="userSpaceOnUse"><stop offset="0" style="stop-color:#f16723"/><stop offset=".064" style="stop-color:#ca561d"/><stop offset=".151" style="stop-color:#9b4216"/><stop offset=".244" style="stop-color:#713010"/><stop offset=".341" style="stop-color:#4e210b"/><stop offset=".443" style="stop-color:#321507"/><stop offset=".552" style="stop-color:#1c0c04"/><stop offset=".671" style="stop-color:#0c0502"/><stop offset=".807" style="stop-color:#030100"/><stop offset="1" style="stop-color:#000"/></radialGradient><circle cx="91.4" cy="24" r="4.5" style="fill-rule:evenodd;clip-rule:evenodd;fill:url(#SVGID_00000018921926702526194010000007735199031719619728_)"/><radialGradient id="SVGID_00000071559455937369825500000015675545510892413315_" cx="82.357" cy="15.05" r="4" gradientUnits="userSpaceOnUse"><stop offset="0" style="stop-color:#f16723"/><stop offset=".064" style="stop-color:#ca561d"/><stop offset=".151" style="stop-color:#9b4216"/><stop offset=".244" style="stop-color:#713010"/><stop offset=".341" style="stop-color:#4e210b"/><stop offset=".443" style="stop-color:#321507"/><stop offset=".552" style="stop-color:#1c0c04"/><stop offset=".671" style="stop-color:#0c0502"/><stop offset=".807" style="stop-color:#030100"/><stop offset="1" style="stop-color:#000"/></radialGradient><circle cx="82.4" cy="15.1" r="4" style="fill-rule:evenodd;clip-rule:evenodd;fill:url(#SVGID_00000071559455937369825500000015675545510892413315_)"/><radialGradient id="SVGID_00000142886274485482770970000012387617690285214852_" cx="71.293" cy="8.863" r="4" gradientUnits="userSpaceOnUse"><stop offset="0" style="stop-color:#f16723"/><stop offset=".064" style="stop-color:#ca561d"/><stop offset=".151" style="stop-color:#9b4216"/><stop offset=".244" style="stop-color:#713010"/><stop offset=".341" style="stop-color:#4e210b"/><stop offset=".443" style="stop-color:#321507"/><stop offset=".552" style="stop-color:#1c0c04"/><stop offset=".671" style="stop-color:#0c0502"/><stop offset=".807" style="stop-color:#030100"/><stop offset="1" style="stop-color:#000"/></radialGradient><circle cx="71.3" cy="8.9" r="4" style="fill-rule:evenodd;clip-rule:evenodd;fill:url(#SVGID_00000142886274485482770970000012387617690285214852_)"/><radialGradient id="SVGID_00000117663606105088196960000008879120162779660979_" cx="59.599" cy="5.558" r="3.509" gradientUnits="userSpaceOnUse"><stop offset="0" style="stop-color:#f16723"/><stop offset=".064" style="stop-color:#ca561d"/><stop offset=".151" style="stop-color:#9b4216"/><stop offset=".244" style="stop-color:#713010"/><stop offset=".341" style="stop-color:#4e210b"/><stop offset=".443" style="stop-color:#321507"/><stop offset=".552" style="stop-color:#1c0c04"/><stop offset=".671" style="stop-color:#0c0502"/><stop offset=".807" style="stop-color:#030100"/><stop offset="1" style="stop-color:#000"/></radialGradient><circle cx="59.6" cy="5.6" r="3.5" style="fill-rule:evenodd;clip-rule:evenodd;fill:url(#SVGID_00000117663606105088196960000008879120162779660979_)"/><radialGradient id="SVGID_00000054235708236711291980000015070345216973369479_" cx="47.033" cy="5.239" r="3.19" gradientUnits="userSpaceOnUse"><stop offset="0" style="stop-color:#f16723"/><stop offset=".064" style="stop-color:#ca561d"/><stop offset=".151" style="stop-color:#9b4216"/><stop offset=".244" style="stop-color:#713010"/><stop offset=".341" style="stop-color:#4e210b"/><stop offset=".443" style="stop-color:#321507"/><stop offset=".552" style="stop-color:#1c0c04"/><stop offset=".671" style="stop-color:#0c0502"/><stop offset=".807" style="stop-color:#030100"/><stop offset="1" style="stop-color:#000"/></radialGradient><circle cx="47" cy="5.2" r="3.2" style="fill-rule:evenodd;clip-rule:evenodd;fill:url(#SVGID_00000054235708236711291980000015070345216973369479_)"/><radialGradient id="SVGID_00000026142813466951933390000017358689547932705447_" cx="36.308" cy="7.734" r="2.871" gradientUnits="userSpaceOnUse"><stop offset="0" style="stop-color:#f16723"/><stop offset=".064" style="stop-color:#ca561d"/><stop offset=".151" style="stop-color:#9b4216"/><stop offset=".244" style="stop-color:#713010"/><stop offset=".341" style="stop-color:#4e210b"/><stop offset=".443" style="stop-color:#321507"/><stop offset=".552" style="stop-color:#1c0c04"/><stop offset=".671" style="stop-color:#0c0502"/><stop offset=".807" style="stop-color:#030100"/><stop offset="1" style="stop-color:#000"/></radialGradient><circle cx="36.3" cy="7.7" r="2.9" style="fill-rule:evenodd;clip-rule:evenodd;fill:url(#SVGID_00000026142813466951933390000017358689547932705447_)"/><radialGradient id="SVGID_00000134249461812478709750000010029020307111625124_" cx="27.782" cy="11.415" r="2.552" gradientUnits="userSpaceOnUse"><stop offset="0" style="stop-color:#f16723"/><stop offset=".064" style="stop-color:#ca561d"/><stop offset=".151" style="stop-color:#9b4216"/><stop offset=".244" style="stop-color:#713010"/><stop offset=".341" style="stop-color:#4e210b"/><stop offset=".443" style="stop-color:#321507"/><stop offset=".552" style="stop-color:#1c0c04"/><stop offset=".671" style="stop-color:#0c0502"/><stop offset=".807" style="stop-color:#030100"/><stop offset="1" style="stop-color:#000"/></radialGradient><circle cx="27.8" cy="11.4" r="2.6" style="fill-rule:evenodd;clip-rule:evenodd;fill:url(#SVGID_00000134249461812478709750000010029020307111625124_)"/><radialGradient id="SVGID_00000152239996129595456100000000818294879339821955_" cx="20.63" cy="16.462" r="2.233" gradientUnits="userSpaceOnUse"><stop offset="0" style="stop-color:#f16723"/><stop offset=".064" style="stop-color:#ca561d"/><stop offset=".151" style="stop-color:#9b4216"/><stop offset=".244" style="stop-color:#713010"/><stop offset=".341" style="stop-color:#4e210b"/><stop offset=".443" style="stop-color:#321507"/><stop offset=".552" style="stop-color:#1c0c04"/><stop offset=".671" style="stop-color:#0c0502"/><stop offset=".807" style="stop-color:#030100"/><stop offset="1" style="stop-color:#000"/></radialGradient><circle cx="20.6" cy="16.5" r="2.2" style="fill-rule:evenodd;clip-rule:evenodd;fill:url(#SVGID_00000152239996129595456100000000818294879339821955_)"/><radialGradient id="SVGID_00000045615229585287432320000015047507575527160213_" cx="15.94" cy="20.839" r="1.914" gradientUnits="userSpaceOnUse"><stop offset="0" style="stop-color:#f16723"/><stop offset=".064" style="stop-color:#ca561d"/><stop offset=".151" style="stop-color:#9b4216"/><stop offset=".244" style="stop-color:#713010"/><stop offset=".341" style="stop-color:#4e210b"/><stop offset=".443" style="stop-color:#321507"/><stop offset=".552" style="stop-color:#1c0c04"/><stop offset=".671" style="stop-color:#0c0502"/><stop offset=".807" style="stop-color:#030100"/><stop offset="1" style="stop-color:#000"/></radialGradient><circle cx="15.9" cy="20.8" r="1.9" style="fill-rule:evenodd;clip-rule:evenodd;fill:url(#SVGID_00000045615229585287432320000015047507575527160213_)"/><radialGradient id="SVGID_00000080195970250502532300000010840018211214535587_" cx="11.666" cy="25.556" r="1.595" gradientUnits="userSpaceOnUse"><stop offset="0" style="stop-color:#f16723"/><stop offset=".064" style="stop-color:#ca561d"/><stop offset=".151" style="stop-color:#9b4216"/><stop offset=".244" style="stop-color:#713010"/><stop offset=".341" style="stop-color:#4e210b"/><stop offset=".443" style="stop-color:#321507"/><stop offset=".552" style="stop-color:#1c0c04"/><stop offset=".671" style="stop-color:#0c0502"/><stop offset=".807" style="stop-color:#030100"/><stop offset="1" style="stop-color:#000"/></radialGradient><circle cx="11.7" cy="25.6" r="1.6" style="fill-rule:evenodd;clip-rule:evenodd;fill:url(#SVGID_00000080195970250502532300000010840018211214535587_)"/><radialGradient id="SVGID_00000003105606661456796750000016585408015487907235_" cx="8.551" cy="30.409" r="1.276" gradientUnits="userSpaceOnUse"><stop offset="0" style="stop-color:#f16723"/><stop offset=".064" style="stop-color:#ca561d"/><stop offset=".151" style="stop-color:#9b4216"/><stop offset=".244" style="stop-color:#713010"/><stop offset=".341" style="stop-color:#4e210b"/><stop offset=".443" style="stop-color:#321507"/><stop offset=".552" style="stop-color:#1c0c04"/><stop offset=".671" style="stop-color:#0c0502"/><stop offset=".807" style="stop-color:#030100"/><stop offset="1" style="stop-color:#000"/></radialGradient><circle cx="8.6" cy="30.4" r="1.3" style="fill-rule:evenodd;clip-rule:evenodd;fill:url(#SVGID_00000003105606661456796750000016585408015487907235_)"/><radialGradient id="SVGID_00000171703001270663992930000010782911291755126969_" cx="6.318" cy="34.556" r=".957" gradientUnits="userSpaceOnUse"><stop offset="0" style="stop-color:#f16723"/><stop offset=".064" style="stop-color:#ca561d"/><stop offset=".151" style="stop-color:#9b4216"/><stop offset=".244" style="stop-color:#713010"/><stop offset=".341" style="stop-color:#4e210b"/><stop offset=".443" style="stop-color:#321507"/><stop offset=".552" style="stop-color:#1c0c04"/><stop offset=".671" style="stop-color:#0c0502"/><stop offset=".807" style="stop-color:#030100"/><stop offset="1" style="stop-color:#000"/></radialGradient><circle cx="6.3" cy="34.6" r="1" style="fill-rule:evenodd;clip-rule:evenodd;fill:url(#SVGID_00000171703001270663992930000010782911291755126969_)"/><linearGradient id="SVGID_00000003070702871597570390000009443766901135406995_" x1="24.164" x2="83.836" y1="54.5" y2="54.5" gradientUnits="userSpaceOnUse"><stop offset="0" style="stop-color:#a47a1e"/><stop offset=".23" style="stop-color:#d3a84c"/><stop offset=".43" style="stop-color:#ffec94"/><stop offset=".57" style="stop-color:#e6be69"/><stop offset=".77" style="stop-color:#ffd87c"/><stop offset=".95" style="stop-color:#b58f3e"/><stop offset="1" style="stop-color:#956d13"/><stop offset="1" style="stop-color:#1d1d1b"/></linearGradient><path d="M51.4 31.5c-2.7 0-5.5.5-8.1 1.4-3.2 1.1-9.2 3.7-13.7 7.9-4.6 4.3-5.8 8.5-5.3 10.9.9 4.6 5.3 7.7 8.7 10-2.4 1.5-5.1 3.6-6.2 5.9-1 2.2-1.1 4.5-.2 6.4.7 1.4 1.8 2.5 3.1 2.9.9.2 1.8.4 2.7.4 3.6 0 7.1-1.9 9.2-5.1.3-.5.6-1 .8-1.5.1.2.3.3.4.4 1.1 1.1 2.5 1.1 3 1.1 1.4 0 2.4-.6 3.1-1.3.6.4 1.3.6 2 .6h.3c1.5-.2 3.1-1.6 3.1-1.6l.2.2c.6.5 1.4.7 2.4.7h.5c1.2-.1 2.1-.4 2.7-.6.6-.2 1.4-.6 2.3-1.2.2-.2.4-.3.6-.5.4.2.8.4 1.2.5.2 0 .5.1.7.1.6 0 1.3-.2 2.1-.5.6-.2 1.5-.6 2.4-1.3 2.1-1.5 3.1-3.4 3-5.4v-.2h1c.4 0 .8 0 1.3.1 2.9.3 3.5 1.7 3.5 2.1 0 .1-.2.3-.4.4-1.2.7-1.7 1.7-1.5 2.9.2 1.3 1.3 2.1 2.6 2.1.2 0 .5 0 .6-.1 1.5-.3 4.4-2.2 4.6-5.6.1-2-.7-4-2.2-5.6-1.9-1.9-4.6-3-7.7-3h-.1c-1.3 0-2.5.2-3.7.5v-.3c-.1-.5-.1-.7 0-1.2.1-.4.3-1.1.4-1.5.2-.5.3-.8.2-1.4-.1-1-.9-2.7-3.6-2.8H67c-2.4 0-3.8.7-4.3 2-.1.2-.1.4-.2.6-.6-.6-1.4-1-2.8-1h-.9c3.4-3.1 5.6-7.7 4.5-12-1.1-3.7-5.7-6.4-11.9-6.4zm0 2.4c4.8 0 8.7 1.8 9.5 5 1.2 4.8-2.9 10.4-8.2 12.5-2.7 1.1-5.2 1.4-7.1 1.4-1.4 0-2.4-.2-3.1-.4-1.8-.6-2.9-1.8-3.2-2.5-.1-.3-.3-.7 0-.9h.1c.1 0 .2.1.6.5.4.4 1.8 1.5 4.3 1.5.4 0 .8 0 1.2-.1 8.7-1 14-7.8 12.3-11.4-.6-1.3-2.8-2.3-5.9-2.3-2.8 0-6.4.8-10.4 2.8-10.3 5.1-10.8 9.3-10.9 10.9-.2 4.4 5.4 6.7 8.5 10l.1.1c.6-.3 1.2-.6 1.8-1 1.5-.9 3-1.6 3.7-2 1.1-1.6 3.3-3.3 4.9-3.3 2.5 0 1.7 3.6 1.7 3.6l.1-.2c.1 0 .2-.3.7-.3.1 0 .3 0 .5.1.8.3.6.9.6.9 0 .1-.9 3.3-1.3 5.4-.2 1-.1 1.7 0 1.7s.2-.3.4-.5l.3-.6v-.1c.2-.4.5-1.1.9-1.9.7-1.5 3.4-7.5 3.6-8.2.2-.7.3-1.3.5-1.6.1-.3 1-.5 2.1-.5h.1c1.1 0 1.2.5 1.2.6 0 .1-.5 1.4-.6 2.3-.1.9 0 1.4.1 2.2.1.5.4 1.2.8 1.9 1.1-1.9 3.2-5.5 3.4-6.5.1-.7.3-1.3.5-1.6.1-.3 1-.5 2.1-.5H67c1.1 0 1.2.5 1.2.6 0 .1-.5 1.4-.6 2.3-.1.9 0 1.4.1 2.2.1.7.6 1.6 1.1 2.6 1.4-.7 3.1-1.1 5-1.2h.1c4.9 0 7.7 3.2 7.6 6.1-.1 2.3-2.2 3.2-2.6 3.3h-.2c-.1 0-.2 0-.2-.2s.1-.2.4-.4c.3-.2 1.3-.9 1.5-2.1.2-1.2-.8-4.2-5.5-4.8-.5-.1-1.1-.1-1.5-.1-1.5 0-2.8.3-3.8.7.3.6.4 1.3.5 2 .1 1.5-1 2.6-2 3.4-.6.5-1.3.8-1.9 1-.4.2-.8.3-1.2.3h-.2c-.9-.2-1.4-1-.8-2.8.3-1 1.3-2.5 2.9-3.8-.4-.7-.8-1.5-1-2.2-.4-1.4-.5-2.2-.5-2.2s-1.3 2.7-3 5.2c-.1.1-.2.3-.3.4.3.8.6 1.6.6 2.4.1 1.5-.6 2.6-1.7 3.4-.6.4-1.2.7-1.7.9-.3.1-1 .4-2 .5h-.4c-.4 0-.8-.1-1-.2-.4-.3-.4-.7-.2-1.2.2-.4 1.5-1.9 2.6-3.2.3-.4.6-.7.8-1.1s.2-.3.5-.7c-.4-.9-.9-1.8-1.1-2.6-.4-1.4-.5-2.2-.5-2.2s-1.3 3.4-2.7 6.1c-1.1 2.1-1.8 3.4-2.1 3.9s0 .1-.1.2c0 .1-.1.1-.1.1-.4.5-1.2 1.6-2 1.6-2.2 0-1.4-4.5-1.4-4.5s-.6 1.7-1.4 3.1c-.6 1.2-1.1 2.1-2.3 2.1-.3 0-.9 0-1.3-.4-1-1-1.8-3.4-1.6-5.3.1-1.6.4-2.7.7-3.7-.6.3-1.3.7-2 1.1-.4.2-.7.4-1.1.6v.1c.9 1.8 1.1 5.6-.8 8.5-1.6 2.4-4.3 4-7.2 4-.7 0-1.4-.1-2-.3-1.2-.3-2.9-2.7-1.4-6 1.3-2.9 6.6-5.7 8-6.4.1-.1.2-.1.4-.2-2.8-2.4-9.8-5.7-10.7-10.8-.3-1.4.4-4.8 4.6-8.7 3.5-3.3 8.4-5.8 12.9-7.4 2.2-.6 4.7-1 7-1zm.6 5.7c2.5 0 3.6.7 3.7.9.2.4.1 1.2-.5 2.3-1.4 2.4-5 5.1-9.9 5.7-.3 0-.6.1-.9.1-1.8 0-2.6-.7-2.6-.7-.4-.5-1.1-1.2-2.3-1.2-.4 0-.9.1-1.3.3-.3.2-2 1.3-1.1 3.8.5 1.4 2.2 3.1 4.6 3.9.7.2 1.5.4 2.4.5-.4.4-.7.7-1 1.1-.8.4-2 1.1-3.2 1.8l-.2.1c-.8-.7-1.6-1.3-2.4-1.9-2.6-2-4.3-3.5-4.2-5.1.2-3.5 5.3-6.8 9.6-8.9 3.2-1.8 6.5-2.7 9.3-2.7zM55.1 53c0 .1 0 .2-.1.2-.1.3-.1.6-.2.9-.1.2-.4 1-.8 2-.1 0-.1-.1-.2-.1-.1-.7-.4-1.4-.8-2 .2-.1.5-.2.7-.3.4-.2.9-.5 1.4-.7zm-5.5 3.9c-.4 0-1.1.4-1.7 1.1-.5.6-1.4 2.1-1.9 3.4-.8 2.6-.5 5.2.1 5.3h.1c.7 0 1.8-3.3 2.4-4.6.3-.8 1.7-4.6 1.4-5.1-.2 0-.3-.1-.4-.1zm17.8 4.2c-.9.8-1.4 1.6-1.6 2.1-.6 1.2-.6 1.6-.4 1.8.8-.3 2.2-1 2.2-3 0-.2-.1-.5-.2-.9zm-28.8 2.2c-.1.1-.2.1-.2.1l-.1.1c-.4.2-.8.4-1 .6-1 .6-2.5 1.7-3.7 2.8-1.9 1.8-2.3 4.4-1.3 5 .2.1.5.2.8.2 1.1 0 2.7-.7 3.9-2 1.6-1.9 2.3-4.2 1.6-6.8zm21.6.3c-.3.5-.7.9-.9 1.2-.5.6-1.7 1.9-1.7 1.9s-.2.2-.1.2h.1c.1 0 .3-.1.5-.2.7-.4 2.1-1.5 2.1-3v-.1z" style="fill:url(#SVGID_00000003070702871597570390000009443766901135406995_)"/></svg>