<svg xmlns="http://www.w3.org/2000/svg" xml:space="preserve" id="Layer_1" x="0" y="0" style="enable-background:new 0 0 327.4 382.2" version="1.1" viewBox="0 0 327.4 382.2"><style>.st4{fill:#f1e8ca}</style><radialGradient id="SVGID_1_" cx="170.703" cy="191.043" r="172.392" gradientUnits="userSpaceOnUse"><stop offset="0" style="stop-color:#3e4156"/><stop offset=".187" style="stop-color:#3a3d50"/><stop offset=".431" style="stop-color:#2e3040"/><stop offset=".707" style="stop-color:#1b1c25"/><stop offset="1" style="stop-color:#000"/></radialGradient><path d="M16.9 21.6v338.9c0 10.9 8.8 19.7 19.7 19.7h268.1c10.9 0 19.7-8.8 19.7-19.7V85.4L240.9 1.9H36.6c-10.9 0-19.7 8.8-19.7 19.7z" style="fill:url(#SVGID_1_)"/><linearGradient id="SVGID_00000021825172965162183680000001566262029961770405_" x1="2.34" x2="16.919" y1="143.006" y2="143.006" gradientUnits="userSpaceOnUse"><stop offset="0" style="stop-color:#f9ec23"/><stop offset=".179" style="stop-color:#f9e423"/><stop offset=".458" style="stop-color:#f8ce22"/><stop offset=".8" style="stop-color:#f7aa21"/><stop offset="1" style="stop-color:#f69220"/></linearGradient><path d="M16.9 157.6c-8.1 0-14.6-6.5-14.6-14.6s6.5-14.6 14.6-14.6v29.2z" style="fill:url(#SVGID_00000021825172965162183680000001566262029961770405_)"/><linearGradient id="SVGID_00000119825613789657812480000010433338039597957002_" x1="2.34" x2="202.617" y1="92.739" y2="92.739" gradientUnits="userSpaceOnUse"><stop offset="0" style="stop-color:#f9ec23"/><stop offset=".013" style="stop-color:#f9e423"/><stop offset=".119" style="stop-color:#f7a921"/><stop offset=".17" style="stop-color:#f69220"/><stop offset=".181" style="stop-color:#ec8c1f"/><stop offset=".24" style="stop-color:#bb6f18"/><stop offset=".304" style="stop-color:#8f5513"/><stop offset=".371" style="stop-color:#683e0e"/><stop offset=".442" style="stop-color:#482b09"/><stop offset=".518" style="stop-color:#2e1b06"/><stop offset=".601" style="stop-color:#190f03"/><stop offset=".696" style="stop-color:#0b0601"/><stop offset=".81" style="stop-color:#030100"/><stop offset="1" style="stop-color:#000"/></linearGradient><path d="M16.9 42.5C8.9 42.5 2.3 49 2.3 57V143c0-8.1 6.5-14.6 14.6-14.6h180.3c3 0 5.4-2.4 5.4-5.4V47.8c0-3-2.4-5.4-5.4-5.4H16.9z" style="fill:url(#SVGID_00000119825613789657812480000010433338039597957002_)"/><linearGradient id="SVGID_00000129167885646148910960000010885945594464156068_" x1="214.398" x2="286.779" y1="83.099" y2="41.299" gradientUnits="userSpaceOnUse"><stop offset="0" style="stop-color:#3e4156"/><stop offset=".425" style="stop-color:#1f202b"/><stop offset=".794" style="stop-color:#08090c"/><stop offset="1" style="stop-color:#000"/></linearGradient><path d="m240.9 1.9 83.6 83.6H260c-10.5 0-19.1-8.5-19.1-19.1V1.9z" style="fill:url(#SVGID_00000129167885646148910960000010885945594464156068_)"/><path d="m90.1 111-8.6-14.7-8.7 14.7H59.6l15.2-26.2-14.5-24.9h13.3l7.9 13.5 7.9-13.5h13.3L88.1 84.8l15.2 26.2H90.1zM105.2 96.2c0-6 3.3-13.2 13.4-13.2h7.7V60h9.7v51h-17.3c-6.3 0-13.5-4-13.5-14.8zm7.2.3c0 3.7 2.6 6.6 6.2 6.6h7.7V89.9h-7.7c-3.6 0-6.2 2.9-6.2 6.6z" class="st4"/><linearGradient id="SVGID_00000056391433089092072640000007188211376288378301_" x1="68.747" x2="263.245" y1="269.17" y2="269.17" gradientUnits="userSpaceOnUse"><stop offset="0" style="stop-color:#f9ec23"/><stop offset=".022" style="stop-color:#f9e423"/><stop offset=".205" style="stop-color:#f7a921"/><stop offset=".293" style="stop-color:#f69220"/><stop offset=".323" style="stop-color:#ca781a"/><stop offset=".356" style="stop-color:#a05f15"/><stop offset=".393" style="stop-color:#7a4810"/><stop offset=".433" style="stop-color:#59350c"/><stop offset=".478" style="stop-color:#3d2408"/><stop offset=".527" style="stop-color:#261705"/><stop offset=".585" style="stop-color:#150c03"/><stop offset=".655" style="stop-color:#090501"/><stop offset=".752" style="stop-color:#020100"/><stop offset="1" style="stop-color:#000"/></linearGradient><path d="M167.8 269.6c-.6.2-1.2.4-1.8.4-.6 0-1.3-.1-1.8-.4l-64.9-26.4-30.5 12.4 97.2 39.6 97.2-39.6-30.5-12.4-64.9 26.4z" style="fill:url(#SVGID_00000056391433089092072640000007188211376288378301_)"/><linearGradient id="SVGID_00000054265076668861932760000005668508046923214523_" x1="68.747" x2="263.245" y1="233.731" y2="233.731" gradientUnits="userSpaceOnUse"><stop offset="0" style="stop-color:#000"/><stop offset=".091" style="stop-color:#050301"/><stop offset=".196" style="stop-color:#130b02"/><stop offset=".307" style="stop-color:#2a1905"/><stop offset=".423" style="stop-color:#4a2c0a"/><stop offset=".543" style="stop-color:#73440f"/><stop offset=".666" style="stop-color:#a66316"/><stop offset=".789" style="stop-color:#e1851d"/><stop offset=".83" style="stop-color:#f69220"/><stop offset=".881" style="stop-color:#f7a921"/><stop offset=".987" style="stop-color:#f9e423"/><stop offset="1" style="stop-color:#f9ec23"/></linearGradient><path d="M167.8 234.1c-.6.2-1.2.4-1.8.4-.6 0-1.3-.1-1.8-.4l-64.9-26.4-30.5 12.4 97.2 39.6 97.2-39.6-30.5-12.4-64.9 26.4z" style="fill:url(#SVGID_00000054265076668861932760000005668508046923214523_)"/><linearGradient id="SVGID_00000020363376749635557500000008609005173673442988_" x1="166.622" x2="165.437" y1="136.538" y2="227.798" gradientUnits="userSpaceOnUse"><stop offset="0" style="stop-color:#f9ec23"/><stop offset=".023" style="stop-color:#f9e423"/><stop offset=".213" style="stop-color:#f7a921"/><stop offset=".304" style="stop-color:#f69220"/><stop offset=".339" style="stop-color:#e1851d"/><stop offset=".442" style="stop-color:#a66316"/><stop offset=".545" style="stop-color:#73440f"/><stop offset=".645" style="stop-color:#4a2c0a"/><stop offset=".742" style="stop-color:#2a1905"/><stop offset=".836" style="stop-color:#130b02"/><stop offset=".923" style="stop-color:#050301"/><stop offset="1" style="stop-color:#000"/></linearGradient><path d="m68.7 184.7 97.3 39.6 97.2-39.6-97.2-39.5z" style="fill:url(#SVGID_00000020363376749635557500000008609005173673442988_)"/><linearGradient id="SVGID_00000047757764238463313480000003335317395238757021_" x1="165.996" x2="165.996" y1="224.224" y2="185.113" gradientUnits="userSpaceOnUse"><stop offset="0" style="stop-color:#f9ec23"/><stop offset=".013" style="stop-color:#f9e423"/><stop offset=".119" style="stop-color:#f7a921"/><stop offset=".17" style="stop-color:#f69220"/><stop offset=".211" style="stop-color:#e1851d"/><stop offset=".334" style="stop-color:#a66316"/><stop offset=".457" style="stop-color:#73440f"/><stop offset=".577" style="stop-color:#4a2c0a"/><stop offset=".693" style="stop-color:#2a1905"/><stop offset=".804" style="stop-color:#130b02"/><stop offset=".909" style="stop-color:#050301"/><stop offset="1" style="stop-color:#000"/></linearGradient><path d="M219.7 202.4 166 180.6l-53.7 21.8 53.7 21.9z" style="fill:url(#SVGID_00000047757764238463313480000003335317395238757021_)"/></svg>